<?xml version="1.0" encoding="utf-8" standalone="no"?>
<!DOCTYPE svg PUBLIC "-//W3C//DTD SVG 1.1//EN"
  "http://www.w3.org/Graphics/SVG/1.1/DTD/svg11.dtd">
<!-- Created with matplotlib (http://matplotlib.sourceforge.net/) -->
<svg height="369pt" version="1.1" viewBox="0 0 945 369" width="945pt" xmlns="http://www.w3.org/2000/svg" xmlns:xlink="http://www.w3.org/1999/xlink">
 <defs>
  <style type="text/css">
*{stroke-linecap:square;stroke-linejoin:round;}
  </style>
 </defs>
 <g id="figure_1">
  <g id="patch_1">
   <path d="
M0 369
L945 369
L945 0
L0 0
z
" style="fill:#ffffff;"/>
  </g>
  <g id="axes_1">
   <g id="patch_2">
    <path d="
M118.125 332.1
L704.025 332.1
L704.025 36.9
L118.125 36.9
z
" style="fill:#ffffff;"/>
   </g>
   <g id="line2d_1">
    <path clip-path="url(#pe7b0e35aea)" d="
M118.125 256.266
L183.225 275.016
L248.325 205.213
L313.425 209.173
L378.525 209.847
L443.625 331.251
L508.725 209.691
L573.825 209.874
L638.925 280.098
L704.025 328.857" style="fill:none;stroke:#0000ff;"/>
   </g>
   <g id="line2d_2">
    <path clip-path="url(#pe7b0e35aea)" d="
M118.125 209.439
L183.225 209.602
L248.325 205.213
L313.425 209.173
L378.525 209.847
L443.625 209.652
L508.725 209.691
L573.825 209.874
L638.925 209.416
L704.025 208.15" style="fill:none;stroke:#008000;"/>
   </g>
   <g id="line2d_3">
    <path clip-path="url(#pe7b0e35aea)" d="
M118.125 209.439
L183.225 209.602
L248.325 205.213
L313.425 209.173
L378.525 209.847
L443.625 209.652
L508.725 209.691
L573.825 209.874
L638.925 209.416
L704.025 208.15" style="fill:none;stroke:#ff0000;"/>
   </g>
   <g id="line2d_4">
    <path clip-path="url(#pe7b0e35aea)" d="
M118.125 209.439
L183.225 209.602
L248.325 205.213
L313.425 209.173
L378.525 209.847
L443.625 209.652
L508.725 209.691
L573.825 209.874
L638.925 209.416
L704.025 208.15" style="fill:none;stroke:#00bfbf;"/>
   </g>
   <g id="line2d_5">
    <path clip-path="url(#pe7b0e35aea)" d="
M118.125 116.43
L183.225 209.602
L248.325 205.213
L313.425 209.173
L378.525 209.847
L443.625 194.488
L508.725 209.691
L573.825 209.874
L638.925 209.416
L704.025 208.15" style="fill:none;stroke:#bf00bf;"/>
   </g>
   <g id="line2d_6">
    <path clip-path="url(#pe7b0e35aea)" d="
M118.125 67.9848
L183.225 209.602
L248.325 205.213
L313.425 209.173
L378.525 209.847
L443.625 68.1877
L508.725 209.691
L573.825 209.874
L638.925 209.416
L704.025 208.15" style="fill:none;stroke:#bfbf00;"/>
   </g>
   <g id="line2d_7">
    <path clip-path="url(#pe7b0e35aea)" d="
M118.125 67.9848
L183.225 209.602
L248.325 205.213
L313.425 209.173
L378.525 209.847
L443.625 68.1877
L508.725 209.691
L573.825 209.874
L638.925 209.416
L704.025 208.15" style="fill:none;stroke:#000000;"/>
   </g>
   <g id="line2d_8">
    <path clip-path="url(#pe7b0e35aea)" d="
M118.125 67.9848
L183.225 209.602
L248.325 205.213
L313.425 209.173
L378.525 209.847
L443.625 68.1877
L508.725 209.691
L573.825 209.874
L638.925 209.416
L704.025 208.15" style="fill:none;stroke:#0000ff;"/>
   </g>
   <g id="line2d_9">
    <path clip-path="url(#pe7b0e35aea)" d="
M118.125 260.746
L183.225 252.734
L248.325 332.1
L313.425 332.1
L378.525 332.1
L443.625 249.991
L508.725 332.1
L573.825 332.1
L638.925 252.292
L704.025 246.039" style="fill:none;stroke:#008000;"/>
   </g>
   <g id="matplotlib.axis_1">
    <g id="xtick_1">
     <g id="line2d_10">
      <path clip-path="url(#pe7b0e35aea)" d="
M118.125 332.1
L118.125 36.9" style="fill:none;stroke:#000000;stroke-dasharray:1.000000,3.000000;stroke-dashoffset:0.0;stroke-linecap:butt;stroke-width:0.5;"/>
     </g>
     <g id="line2d_11">
      <defs>
       <path d="
M0 0
L0 -4" id="m0012dd4eef" style="stroke:#000000;stroke-linecap:butt;stroke-width:0.5;"/>
      </defs>
      <g>
       <use style="stroke:#000000;stroke-linecap:butt;stroke-width:0.5;" x="118.125" xlink:href="#m0012dd4eef" y="332.1"/>
      </g>
     </g>
     <g id="line2d_12">
      <defs>
       <path d="
M0 0
L0 4" id="m476344969c" style="stroke:#000000;stroke-linecap:butt;stroke-width:0.5;"/>
      </defs>
      <g>
       <use style="stroke:#000000;stroke-linecap:butt;stroke-width:0.5;" x="118.125" xlink:href="#m476344969c" y="36.9"/>
      </g>
     </g>
     <g id="text_1">
      <!-- 0 -->
      <defs>
       <path d="
M31.7812 66.4062
Q24.1719 66.4062 20.3281 58.9062
Q16.5 51.4219 16.5 36.375
Q16.5 21.3906 20.3281 13.8906
Q24.1719 6.39062 31.7812 6.39062
Q39.4531 6.39062 43.2812 13.8906
Q47.125 21.3906 47.125 36.375
Q47.125 51.4219 43.2812 58.9062
Q39.4531 66.4062 31.7812 66.4062
M31.7812 74.2188
Q44.0469 74.2188 50.5156 64.5156
Q56.9844 54.8281 56.9844 36.375
Q56.9844 17.9688 50.5156 8.26562
Q44.0469 -1.42188 31.7812 -1.42188
Q19.5312 -1.42188 13.0625 8.26562
Q6.59375 17.9688 6.59375 36.375
Q6.59375 54.8281 13.0625 64.5156
Q19.5312 74.2188 31.7812 74.2188" id="DejaVuSans-30"/>
      </defs>
      <g transform="translate(115.1015625 345.00625)scale(0.12 -0.12)">
       <use xlink:href="#DejaVuSans-30"/>
      </g>
     </g>
    </g>
    <g id="xtick_2">
     <g id="line2d_13">
      <path clip-path="url(#pe7b0e35aea)" d="
M183.225 332.1
L183.225 36.9" style="fill:none;stroke:#000000;stroke-dasharray:1.000000,3.000000;stroke-dashoffset:0.0;stroke-linecap:butt;stroke-width:0.5;"/>
     </g>
     <g id="line2d_14">
      <g>
       <use style="stroke:#000000;stroke-linecap:butt;stroke-width:0.5;" x="183.225" xlink:href="#m0012dd4eef" y="332.1"/>
      </g>
     </g>
     <g id="line2d_15">
      <g>
       <use style="stroke:#000000;stroke-linecap:butt;stroke-width:0.5;" x="183.225" xlink:href="#m476344969c" y="36.9"/>
      </g>
     </g>
     <g id="text_2">
      <!-- 1 -->
      <defs>
       <path d="
M12.4062 8.29688
L28.5156 8.29688
L28.5156 63.9219
L10.9844 60.4062
L10.9844 69.3906
L28.4219 72.9062
L38.2812 72.9062
L38.2812 8.29688
L54.3906 8.29688
L54.3906 0
L12.4062 0
z
" id="DejaVuSans-31"/>
      </defs>
      <g transform="translate(180.620625 344.84875)scale(0.12 -0.12)">
       <use xlink:href="#DejaVuSans-31"/>
      </g>
     </g>
    </g>
    <g id="xtick_3">
     <g id="line2d_16">
      <path clip-path="url(#pe7b0e35aea)" d="
M248.325 332.1
L248.325 36.9" style="fill:none;stroke:#000000;stroke-dasharray:1.000000,3.000000;stroke-dashoffset:0.0;stroke-linecap:butt;stroke-width:0.5;"/>
     </g>
     <g id="line2d_17">
      <g>
       <use style="stroke:#000000;stroke-linecap:butt;stroke-width:0.5;" x="248.325" xlink:href="#m0012dd4eef" y="332.1"/>
      </g>
     </g>
     <g id="line2d_18">
      <g>
       <use style="stroke:#000000;stroke-linecap:butt;stroke-width:0.5;" x="248.325" xlink:href="#m476344969c" y="36.9"/>
      </g>
     </g>
     <g id="text_3">
      <!-- 2 -->
      <defs>
       <path d="
M19.1875 8.29688
L53.6094 8.29688
L53.6094 0
L7.32812 0
L7.32812 8.29688
Q12.9375 14.1094 22.625 23.8906
Q32.3281 33.6875 34.8125 36.5312
Q39.5469 41.8438 41.4219 45.5312
Q43.3125 49.2188 43.3125 52.7812
Q43.3125 58.5938 39.2344 62.25
Q35.1562 65.9219 28.6094 65.9219
Q23.9688 65.9219 18.8125 64.3125
Q13.6719 62.7031 7.8125 59.4219
L7.8125 69.3906
Q13.7656 71.7812 18.9375 73
Q24.125 74.2188 28.4219 74.2188
Q39.75 74.2188 46.4844 68.5469
Q53.2188 62.8906 53.2188 53.4219
Q53.2188 48.9219 51.5312 44.8906
Q49.8594 40.875 45.4062 35.4062
Q44.1875 33.9844 37.6406 27.2188
Q31.1094 20.4531 19.1875 8.29688" id="DejaVuSans-32"/>
      </defs>
      <g transform="translate(245.548125 345.00625)scale(0.12 -0.12)">
       <use xlink:href="#DejaVuSans-32"/>
      </g>
     </g>
    </g>
    <g id="xtick_4">
     <g id="line2d_19">
      <path clip-path="url(#pe7b0e35aea)" d="
M313.425 332.1
L313.425 36.9" style="fill:none;stroke:#000000;stroke-dasharray:1.000000,3.000000;stroke-dashoffset:0.0;stroke-linecap:butt;stroke-width:0.5;"/>
     </g>
     <g id="line2d_20">
      <g>
       <use style="stroke:#000000;stroke-linecap:butt;stroke-width:0.5;" x="313.425" xlink:href="#m0012dd4eef" y="332.1"/>
      </g>
     </g>
     <g id="line2d_21">
      <g>
       <use style="stroke:#000000;stroke-linecap:butt;stroke-width:0.5;" x="313.425" xlink:href="#m476344969c" y="36.9"/>
      </g>
     </g>
     <g id="text_4">
      <!-- 3 -->
      <defs>
       <path d="
M40.5781 39.3125
Q47.6562 37.7969 51.625 33
Q55.6094 28.2188 55.6094 21.1875
Q55.6094 10.4062 48.1875 4.48438
Q40.7656 -1.42188 27.0938 -1.42188
Q22.5156 -1.42188 17.6562 -0.515625
Q12.7969 0.390625 7.625 2.20312
L7.625 11.7188
Q11.7188 9.32812 16.5938 8.10938
Q21.4844 6.89062 26.8125 6.89062
Q36.0781 6.89062 40.9375 10.5469
Q45.7969 14.2031 45.7969 21.1875
Q45.7969 27.6406 41.2812 31.2656
Q36.7656 34.9062 28.7188 34.9062
L20.2188 34.9062
L20.2188 43.0156
L29.1094 43.0156
Q36.375 43.0156 40.2344 45.9219
Q44.0938 48.8281 44.0938 54.2969
Q44.0938 59.9062 40.1094 62.9062
Q36.1406 65.9219 28.7188 65.9219
Q24.6562 65.9219 20.0156 65.0312
Q15.375 64.1562 9.8125 62.3125
L9.8125 71.0938
Q15.4375 72.6562 20.3438 73.4375
Q25.25 74.2188 29.5938 74.2188
Q40.8281 74.2188 47.3594 69.1094
Q53.9062 64.0156 53.9062 55.3281
Q53.9062 49.2656 50.4375 45.0938
Q46.9688 40.9219 40.5781 39.3125" id="DejaVuSans-33"/>
      </defs>
      <g transform="translate(310.5459375 345.00625)scale(0.12 -0.12)">
       <use xlink:href="#DejaVuSans-33"/>
      </g>
     </g>
    </g>
    <g id="xtick_5">
     <g id="line2d_22">
      <path clip-path="url(#pe7b0e35aea)" d="
M378.525 332.1
L378.525 36.9" style="fill:none;stroke:#000000;stroke-dasharray:1.000000,3.000000;stroke-dashoffset:0.0;stroke-linecap:butt;stroke-width:0.5;"/>
     </g>
     <g id="line2d_23">
      <g>
       <use style="stroke:#000000;stroke-linecap:butt;stroke-width:0.5;" x="378.525" xlink:href="#m0012dd4eef" y="332.1"/>
      </g>
     </g>
     <g id="line2d_24">
      <g>
       <use style="stroke:#000000;stroke-linecap:butt;stroke-width:0.5;" x="378.525" xlink:href="#m476344969c" y="36.9"/>
      </g>
     </g>
     <g id="text_5">
      <!-- 4 -->
      <defs>
       <path d="
M37.7969 64.3125
L12.8906 25.3906
L37.7969 25.3906
z

M35.2031 72.9062
L47.6094 72.9062
L47.6094 25.3906
L58.0156 25.3906
L58.0156 17.1875
L47.6094 17.1875
L47.6094 0
L37.7969 0
L37.7969 17.1875
L4.89062 17.1875
L4.89062 26.7031
z
" id="DejaVuSans-34"/>
      </defs>
      <g transform="translate(375.3375 344.84875)scale(0.12 -0.12)">
       <use xlink:href="#DejaVuSans-34"/>
      </g>
     </g>
    </g>
    <g id="xtick_6">
     <g id="line2d_25">
      <path clip-path="url(#pe7b0e35aea)" d="
M443.625 332.1
L443.625 36.9" style="fill:none;stroke:#000000;stroke-dasharray:1.000000,3.000000;stroke-dashoffset:0.0;stroke-linecap:butt;stroke-width:0.5;"/>
     </g>
     <g id="line2d_26">
      <g>
       <use style="stroke:#000000;stroke-linecap:butt;stroke-width:0.5;" x="443.625" xlink:href="#m0012dd4eef" y="332.1"/>
      </g>
     </g>
     <g id="line2d_27">
      <g>
       <use style="stroke:#000000;stroke-linecap:butt;stroke-width:0.5;" x="443.625" xlink:href="#m476344969c" y="36.9"/>
      </g>
     </g>
     <g id="text_6">
      <!-- 5 -->
      <defs>
       <path d="
M10.7969 72.9062
L49.5156 72.9062
L49.5156 64.5938
L19.8281 64.5938
L19.8281 46.7344
Q21.9688 47.4688 24.1094 47.8281
Q26.2656 48.1875 28.4219 48.1875
Q40.625 48.1875 47.75 41.5
Q54.8906 34.8125 54.8906 23.3906
Q54.8906 11.625 47.5625 5.09375
Q40.2344 -1.42188 26.9062 -1.42188
Q22.3125 -1.42188 17.5469 -0.640625
Q12.7969 0.140625 7.71875 1.70312
L7.71875 11.625
Q12.1094 9.23438 16.7969 8.0625
Q21.4844 6.89062 26.7031 6.89062
Q35.1562 6.89062 40.0781 11.3281
Q45.0156 15.7656 45.0156 23.3906
Q45.0156 31 40.0781 35.4375
Q35.1562 39.8906 26.7031 39.8906
Q22.75 39.8906 18.8125 39.0156
Q14.8906 38.1406 10.7969 36.2812
z
" id="DejaVuSans-35"/>
      </defs>
      <g transform="translate(440.7946875 344.84875)scale(0.12 -0.12)">
       <use xlink:href="#DejaVuSans-35"/>
      </g>
     </g>
    </g>
    <g id="xtick_7">
     <g id="line2d_28">
      <path clip-path="url(#pe7b0e35aea)" d="
M508.725 332.1
L508.725 36.9" style="fill:none;stroke:#000000;stroke-dasharray:1.000000,3.000000;stroke-dashoffset:0.0;stroke-linecap:butt;stroke-width:0.5;"/>
     </g>
     <g id="line2d_29">
      <g>
       <use style="stroke:#000000;stroke-linecap:butt;stroke-width:0.5;" x="508.725" xlink:href="#m0012dd4eef" y="332.1"/>
      </g>
     </g>
     <g id="line2d_30">
      <g>
       <use style="stroke:#000000;stroke-linecap:butt;stroke-width:0.5;" x="508.725" xlink:href="#m476344969c" y="36.9"/>
      </g>
     </g>
     <g id="text_7">
      <!-- 6 -->
      <defs>
       <path d="
M33.0156 40.375
Q26.375 40.375 22.4844 35.8281
Q18.6094 31.2969 18.6094 23.3906
Q18.6094 15.5312 22.4844 10.9531
Q26.375 6.39062 33.0156 6.39062
Q39.6562 6.39062 43.5312 10.9531
Q47.4062 15.5312 47.4062 23.3906
Q47.4062 31.2969 43.5312 35.8281
Q39.6562 40.375 33.0156 40.375
M52.5938 71.2969
L52.5938 62.3125
Q48.875 64.0625 45.0938 64.9844
Q41.3125 65.9219 37.5938 65.9219
Q27.8281 65.9219 22.6719 59.3281
Q17.5312 52.7344 16.7969 39.4062
Q19.6719 43.6562 24.0156 45.9219
Q28.375 48.1875 33.5938 48.1875
Q44.5781 48.1875 50.9531 41.5156
Q57.3281 34.8594 57.3281 23.3906
Q57.3281 12.1562 50.6875 5.35938
Q44.0469 -1.42188 33.0156 -1.42188
Q20.3594 -1.42188 13.6719 8.26562
Q6.98438 17.9688 6.98438 36.375
Q6.98438 53.6562 15.1875 63.9375
Q23.3906 74.2188 37.2031 74.2188
Q40.9219 74.2188 44.7031 73.4844
Q48.4844 72.75 52.5938 71.2969" id="DejaVuSans-36"/>
      </defs>
      <g transform="translate(505.704375 345.00625)scale(0.12 -0.12)">
       <use xlink:href="#DejaVuSans-36"/>
      </g>
     </g>
    </g>
    <g id="xtick_8">
     <g id="line2d_31">
      <path clip-path="url(#pe7b0e35aea)" d="
M573.825 332.1
L573.825 36.9" style="fill:none;stroke:#000000;stroke-dasharray:1.000000,3.000000;stroke-dashoffset:0.0;stroke-linecap:butt;stroke-width:0.5;"/>
     </g>
     <g id="line2d_32">
      <g>
       <use style="stroke:#000000;stroke-linecap:butt;stroke-width:0.5;" x="573.825" xlink:href="#m0012dd4eef" y="332.1"/>
      </g>
     </g>
     <g id="line2d_33">
      <g>
       <use style="stroke:#000000;stroke-linecap:butt;stroke-width:0.5;" x="573.825" xlink:href="#m476344969c" y="36.9"/>
      </g>
     </g>
     <g id="text_8">
      <!-- 7 -->
      <defs>
       <path d="
M8.20312 72.9062
L55.0781 72.9062
L55.0781 68.7031
L28.6094 0
L18.3125 0
L43.2188 64.5938
L8.20312 64.5938
z
" id="DejaVuSans-37"/>
      </defs>
      <g transform="translate(571.0125 344.84875)scale(0.12 -0.12)">
       <use xlink:href="#DejaVuSans-37"/>
      </g>
     </g>
    </g>
    <g id="xtick_9">
     <g id="line2d_34">
      <path clip-path="url(#pe7b0e35aea)" d="
M638.925 332.1
L638.925 36.9" style="fill:none;stroke:#000000;stroke-dasharray:1.000000,3.000000;stroke-dashoffset:0.0;stroke-linecap:butt;stroke-width:0.5;"/>
     </g>
     <g id="line2d_35">
      <g>
       <use style="stroke:#000000;stroke-linecap:butt;stroke-width:0.5;" x="638.925" xlink:href="#m0012dd4eef" y="332.1"/>
      </g>
     </g>
     <g id="line2d_36">
      <g>
       <use style="stroke:#000000;stroke-linecap:butt;stroke-width:0.5;" x="638.925" xlink:href="#m476344969c" y="36.9"/>
      </g>
     </g>
     <g id="text_9">
      <!-- 8 -->
      <defs>
       <path d="
M31.7812 34.625
Q24.75 34.625 20.7188 30.8594
Q16.7031 27.0938 16.7031 20.5156
Q16.7031 13.9219 20.7188 10.1562
Q24.75 6.39062 31.7812 6.39062
Q38.8125 6.39062 42.8594 10.1719
Q46.9219 13.9688 46.9219 20.5156
Q46.9219 27.0938 42.8906 30.8594
Q38.875 34.625 31.7812 34.625
M21.9219 38.8125
Q15.5781 40.375 12.0312 44.7188
Q8.5 49.0781 8.5 55.3281
Q8.5 64.0625 14.7188 69.1406
Q20.9531 74.2188 31.7812 74.2188
Q42.6719 74.2188 48.875 69.1406
Q55.0781 64.0625 55.0781 55.3281
Q55.0781 49.0781 51.5312 44.7188
Q48 40.375 41.7031 38.8125
Q48.8281 37.1562 52.7969 32.3125
Q56.7812 27.4844 56.7812 20.5156
Q56.7812 9.90625 50.3125 4.23438
Q43.8438 -1.42188 31.7812 -1.42188
Q19.7344 -1.42188 13.25 4.23438
Q6.78125 9.90625 6.78125 20.5156
Q6.78125 27.4844 10.7812 32.3125
Q14.7969 37.1562 21.9219 38.8125
M18.3125 54.3906
Q18.3125 48.7344 21.8438 45.5625
Q25.3906 42.3906 31.7812 42.3906
Q38.1406 42.3906 41.7188 45.5625
Q45.3125 48.7344 45.3125 54.3906
Q45.3125 60.0625 41.7188 63.2344
Q38.1406 66.4062 31.7812 66.4062
Q25.3906 66.4062 21.8438 63.2344
Q18.3125 60.0625 18.3125 54.3906" id="DejaVuSans-38"/>
      </defs>
      <g transform="translate(635.925 345.00625)scale(0.12 -0.12)">
       <use xlink:href="#DejaVuSans-38"/>
      </g>
     </g>
    </g>
    <g id="xtick_10">
     <g id="line2d_37">
      <path clip-path="url(#pe7b0e35aea)" d="
M704.025 332.1
L704.025 36.9" style="fill:none;stroke:#000000;stroke-dasharray:1.000000,3.000000;stroke-dashoffset:0.0;stroke-linecap:butt;stroke-width:0.5;"/>
     </g>
     <g id="line2d_38">
      <g>
       <use style="stroke:#000000;stroke-linecap:butt;stroke-width:0.5;" x="704.025" xlink:href="#m0012dd4eef" y="332.1"/>
      </g>
     </g>
     <g id="line2d_39">
      <g>
       <use style="stroke:#000000;stroke-linecap:butt;stroke-width:0.5;" x="704.025" xlink:href="#m476344969c" y="36.9"/>
      </g>
     </g>
     <g id="text_10">
      <!-- 9 -->
      <defs>
       <path d="
M10.9844 1.51562
L10.9844 10.5
Q14.7031 8.73438 18.5 7.8125
Q22.3125 6.89062 25.9844 6.89062
Q35.75 6.89062 40.8906 13.4531
Q46.0469 20.0156 46.7812 33.4062
Q43.9531 29.2031 39.5938 26.9531
Q35.25 24.7031 29.9844 24.7031
Q19.0469 24.7031 12.6719 31.3125
Q6.29688 37.9375 6.29688 49.4219
Q6.29688 60.6406 12.9375 67.4219
Q19.5781 74.2188 30.6094 74.2188
Q43.2656 74.2188 49.9219 64.5156
Q56.5938 54.8281 56.5938 36.375
Q56.5938 19.1406 48.4062 8.85938
Q40.2344 -1.42188 26.4219 -1.42188
Q22.7031 -1.42188 18.8906 -0.6875
Q15.0938 0.046875 10.9844 1.51562
M30.6094 32.4219
Q37.25 32.4219 41.125 36.9531
Q45.0156 41.5 45.0156 49.4219
Q45.0156 57.2812 41.125 61.8438
Q37.25 66.4062 30.6094 66.4062
Q23.9688 66.4062 20.0938 61.8438
Q16.2188 57.2812 16.2188 49.4219
Q16.2188 41.5 20.0938 36.9531
Q23.9688 32.4219 30.6094 32.4219" id="DejaVuSans-39"/>
      </defs>
      <g transform="translate(701.0071875 345.00625)scale(0.12 -0.12)">
       <use xlink:href="#DejaVuSans-39"/>
      </g>
     </g>
    </g>
   </g>
   <g id="matplotlib.axis_2">
    <g id="ytick_1">
     <g id="line2d_40">
      <path clip-path="url(#pe7b0e35aea)" d="
M118.125 332.1
L704.025 332.1" style="fill:none;stroke:#000000;stroke-dasharray:1.000000,3.000000;stroke-dashoffset:0.0;stroke-linecap:butt;stroke-width:0.5;"/>
     </g>
     <g id="line2d_41">
      <defs>
       <path d="
M0 0
L4 0" id="me8a85f7bf6" style="stroke:#000000;stroke-linecap:butt;stroke-width:0.5;"/>
      </defs>
      <g>
       <use style="stroke:#000000;stroke-linecap:butt;stroke-width:0.5;" x="118.125" xlink:href="#me8a85f7bf6" y="332.1"/>
      </g>
     </g>
     <g id="line2d_42">
      <defs>
       <path d="
M0 0
L-4 0" id="m1a32005dea" style="stroke:#000000;stroke-linecap:butt;stroke-width:0.5;"/>
      </defs>
      <g>
       <use style="stroke:#000000;stroke-linecap:butt;stroke-width:0.5;" x="704.025" xlink:href="#m1a32005dea" y="332.1"/>
      </g>
     </g>
     <g id="text_11">
      <!-- 0 -->
      <g transform="translate(108.078125 336.4678125)scale(0.12 -0.12)">
       <use xlink:href="#DejaVuSans-30"/>
      </g>
     </g>
    </g>
    <g id="ytick_2">
     <g id="line2d_43">
      <path clip-path="url(#pe7b0e35aea)" d="
M118.125 299.3
L704.025 299.3" style="fill:none;stroke:#000000;stroke-dasharray:1.000000,3.000000;stroke-dashoffset:0.0;stroke-linecap:butt;stroke-width:0.5;"/>
     </g>
     <g id="line2d_44">
      <g>
       <use style="stroke:#000000;stroke-linecap:butt;stroke-width:0.5;" x="118.125" xlink:href="#me8a85f7bf6" y="299.3"/>
      </g>
     </g>
     <g id="line2d_45">
      <g>
       <use style="stroke:#000000;stroke-linecap:butt;stroke-width:0.5;" x="704.025" xlink:href="#m1a32005dea" y="299.3"/>
      </g>
     </g>
     <g id="text_12">
      <!-- 500000 -->
      <g transform="translate(70.038125 303.6678125)scale(0.12 -0.12)">
       <use xlink:href="#DejaVuSans-35"/>
       <use x="63.623046875" xlink:href="#DejaVuSans-30"/>
       <use x="127.24609375" xlink:href="#DejaVuSans-30"/>
       <use x="190.869140625" xlink:href="#DejaVuSans-30"/>
       <use x="254.4921875" xlink:href="#DejaVuSans-30"/>
       <use x="318.115234375" xlink:href="#DejaVuSans-30"/>
      </g>
     </g>
    </g>
    <g id="ytick_3">
     <g id="line2d_46">
      <path clip-path="url(#pe7b0e35aea)" d="
M118.125 266.5
L704.025 266.5" style="fill:none;stroke:#000000;stroke-dasharray:1.000000,3.000000;stroke-dashoffset:0.0;stroke-linecap:butt;stroke-width:0.5;"/>
     </g>
     <g id="line2d_47">
      <g>
       <use style="stroke:#000000;stroke-linecap:butt;stroke-width:0.5;" x="118.125" xlink:href="#me8a85f7bf6" y="266.5"/>
      </g>
     </g>
     <g id="line2d_48">
      <g>
       <use style="stroke:#000000;stroke-linecap:butt;stroke-width:0.5;" x="704.025" xlink:href="#m1a32005dea" y="266.5"/>
      </g>
     </g>
     <g id="text_13">
      <!-- 1000000 -->
      <g transform="translate(62.795 270.8678125)scale(0.12 -0.12)">
       <use xlink:href="#DejaVuSans-31"/>
       <use x="63.623046875" xlink:href="#DejaVuSans-30"/>
       <use x="127.24609375" xlink:href="#DejaVuSans-30"/>
       <use x="190.869140625" xlink:href="#DejaVuSans-30"/>
       <use x="254.4921875" xlink:href="#DejaVuSans-30"/>
       <use x="318.115234375" xlink:href="#DejaVuSans-30"/>
       <use x="381.73828125" xlink:href="#DejaVuSans-30"/>
      </g>
     </g>
    </g>
    <g id="ytick_4">
     <g id="line2d_49">
      <path clip-path="url(#pe7b0e35aea)" d="
M118.125 233.7
L704.025 233.7" style="fill:none;stroke:#000000;stroke-dasharray:1.000000,3.000000;stroke-dashoffset:0.0;stroke-linecap:butt;stroke-width:0.5;"/>
     </g>
     <g id="line2d_50">
      <g>
       <use style="stroke:#000000;stroke-linecap:butt;stroke-width:0.5;" x="118.125" xlink:href="#me8a85f7bf6" y="233.7"/>
      </g>
     </g>
     <g id="line2d_51">
      <g>
       <use style="stroke:#000000;stroke-linecap:butt;stroke-width:0.5;" x="704.025" xlink:href="#m1a32005dea" y="233.7"/>
      </g>
     </g>
     <g id="text_14">
      <!-- 1500000 -->
      <g transform="translate(62.795 238.0678125)scale(0.12 -0.12)">
       <use xlink:href="#DejaVuSans-31"/>
       <use x="63.623046875" xlink:href="#DejaVuSans-35"/>
       <use x="127.24609375" xlink:href="#DejaVuSans-30"/>
       <use x="190.869140625" xlink:href="#DejaVuSans-30"/>
       <use x="254.4921875" xlink:href="#DejaVuSans-30"/>
       <use x="318.115234375" xlink:href="#DejaVuSans-30"/>
       <use x="381.73828125" xlink:href="#DejaVuSans-30"/>
      </g>
     </g>
    </g>
    <g id="ytick_5">
     <g id="line2d_52">
      <path clip-path="url(#pe7b0e35aea)" d="
M118.125 200.9
L704.025 200.9" style="fill:none;stroke:#000000;stroke-dasharray:1.000000,3.000000;stroke-dashoffset:0.0;stroke-linecap:butt;stroke-width:0.5;"/>
     </g>
     <g id="line2d_53">
      <g>
       <use style="stroke:#000000;stroke-linecap:butt;stroke-width:0.5;" x="118.125" xlink:href="#me8a85f7bf6" y="200.9"/>
      </g>
     </g>
     <g id="line2d_54">
      <g>
       <use style="stroke:#000000;stroke-linecap:butt;stroke-width:0.5;" x="704.025" xlink:href="#m1a32005dea" y="200.9"/>
      </g>
     </g>
     <g id="text_15">
      <!-- 2000000 -->
      <g transform="translate(62.35625 205.2678125)scale(0.12 -0.12)">
       <use xlink:href="#DejaVuSans-32"/>
       <use x="63.623046875" xlink:href="#DejaVuSans-30"/>
       <use x="127.24609375" xlink:href="#DejaVuSans-30"/>
       <use x="190.869140625" xlink:href="#DejaVuSans-30"/>
       <use x="254.4921875" xlink:href="#DejaVuSans-30"/>
       <use x="318.115234375" xlink:href="#DejaVuSans-30"/>
       <use x="381.73828125" xlink:href="#DejaVuSans-30"/>
      </g>
     </g>
    </g>
    <g id="ytick_6">
     <g id="line2d_55">
      <path clip-path="url(#pe7b0e35aea)" d="
M118.125 168.1
L704.025 168.1" style="fill:none;stroke:#000000;stroke-dasharray:1.000000,3.000000;stroke-dashoffset:0.0;stroke-linecap:butt;stroke-width:0.5;"/>
     </g>
     <g id="line2d_56">
      <g>
       <use style="stroke:#000000;stroke-linecap:butt;stroke-width:0.5;" x="118.125" xlink:href="#me8a85f7bf6" y="168.1"/>
      </g>
     </g>
     <g id="line2d_57">
      <g>
       <use style="stroke:#000000;stroke-linecap:butt;stroke-width:0.5;" x="704.025" xlink:href="#m1a32005dea" y="168.1"/>
      </g>
     </g>
     <g id="text_16">
      <!-- 2500000 -->
      <g transform="translate(62.35625 172.4678125)scale(0.12 -0.12)">
       <use xlink:href="#DejaVuSans-32"/>
       <use x="63.623046875" xlink:href="#DejaVuSans-35"/>
       <use x="127.24609375" xlink:href="#DejaVuSans-30"/>
       <use x="190.869140625" xlink:href="#DejaVuSans-30"/>
       <use x="254.4921875" xlink:href="#DejaVuSans-30"/>
       <use x="318.115234375" xlink:href="#DejaVuSans-30"/>
       <use x="381.73828125" xlink:href="#DejaVuSans-30"/>
      </g>
     </g>
    </g>
    <g id="ytick_7">
     <g id="line2d_58">
      <path clip-path="url(#pe7b0e35aea)" d="
M118.125 135.3
L704.025 135.3" style="fill:none;stroke:#000000;stroke-dasharray:1.000000,3.000000;stroke-dashoffset:0.0;stroke-linecap:butt;stroke-width:0.5;"/>
     </g>
     <g id="line2d_59">
      <g>
       <use style="stroke:#000000;stroke-linecap:butt;stroke-width:0.5;" x="118.125" xlink:href="#me8a85f7bf6" y="135.3"/>
      </g>
     </g>
     <g id="line2d_60">
      <g>
       <use style="stroke:#000000;stroke-linecap:butt;stroke-width:0.5;" x="704.025" xlink:href="#m1a32005dea" y="135.3"/>
      </g>
     </g>
     <g id="text_17">
      <!-- 3000000 -->
      <g transform="translate(62.391875 139.6678125)scale(0.12 -0.12)">
       <use xlink:href="#DejaVuSans-33"/>
       <use x="63.623046875" xlink:href="#DejaVuSans-30"/>
       <use x="127.24609375" xlink:href="#DejaVuSans-30"/>
       <use x="190.869140625" xlink:href="#DejaVuSans-30"/>
       <use x="254.4921875" xlink:href="#DejaVuSans-30"/>
       <use x="318.115234375" xlink:href="#DejaVuSans-30"/>
       <use x="381.73828125" xlink:href="#DejaVuSans-30"/>
      </g>
     </g>
    </g>
    <g id="ytick_8">
     <g id="line2d_61">
      <path clip-path="url(#pe7b0e35aea)" d="
M118.125 102.5
L704.025 102.5" style="fill:none;stroke:#000000;stroke-dasharray:1.000000,3.000000;stroke-dashoffset:0.0;stroke-linecap:butt;stroke-width:0.5;"/>
     </g>
     <g id="line2d_62">
      <g>
       <use style="stroke:#000000;stroke-linecap:butt;stroke-width:0.5;" x="118.125" xlink:href="#me8a85f7bf6" y="102.5"/>
      </g>
     </g>
     <g id="line2d_63">
      <g>
       <use style="stroke:#000000;stroke-linecap:butt;stroke-width:0.5;" x="704.025" xlink:href="#m1a32005dea" y="102.5"/>
      </g>
     </g>
     <g id="text_18">
      <!-- 3500000 -->
      <g transform="translate(62.391875 106.8678125)scale(0.12 -0.12)">
       <use xlink:href="#DejaVuSans-33"/>
       <use x="63.623046875" xlink:href="#DejaVuSans-35"/>
       <use x="127.24609375" xlink:href="#DejaVuSans-30"/>
       <use x="190.869140625" xlink:href="#DejaVuSans-30"/>
       <use x="254.4921875" xlink:href="#DejaVuSans-30"/>
       <use x="318.115234375" xlink:href="#DejaVuSans-30"/>
       <use x="381.73828125" xlink:href="#DejaVuSans-30"/>
      </g>
     </g>
    </g>
    <g id="ytick_9">
     <g id="line2d_64">
      <path clip-path="url(#pe7b0e35aea)" d="
M118.125 69.7
L704.025 69.7" style="fill:none;stroke:#000000;stroke-dasharray:1.000000,3.000000;stroke-dashoffset:0.0;stroke-linecap:butt;stroke-width:0.5;"/>
     </g>
     <g id="line2d_65">
      <g>
       <use style="stroke:#000000;stroke-linecap:butt;stroke-width:0.5;" x="118.125" xlink:href="#me8a85f7bf6" y="69.7"/>
      </g>
     </g>
     <g id="line2d_66">
      <g>
       <use style="stroke:#000000;stroke-linecap:butt;stroke-width:0.5;" x="704.025" xlink:href="#m1a32005dea" y="69.7"/>
      </g>
     </g>
     <g id="text_19">
      <!-- 4000000 -->
      <g transform="translate(62.06375 74.0678125)scale(0.12 -0.12)">
       <use xlink:href="#DejaVuSans-34"/>
       <use x="63.623046875" xlink:href="#DejaVuSans-30"/>
       <use x="127.24609375" xlink:href="#DejaVuSans-30"/>
       <use x="190.869140625" xlink:href="#DejaVuSans-30"/>
       <use x="254.4921875" xlink:href="#DejaVuSans-30"/>
       <use x="318.115234375" xlink:href="#DejaVuSans-30"/>
       <use x="381.73828125" xlink:href="#DejaVuSans-30"/>
      </g>
     </g>
    </g>
    <g id="ytick_10">
     <g id="line2d_67">
      <path clip-path="url(#pe7b0e35aea)" d="
M118.125 36.9
L704.025 36.9" style="fill:none;stroke:#000000;stroke-dasharray:1.000000,3.000000;stroke-dashoffset:0.0;stroke-linecap:butt;stroke-width:0.5;"/>
     </g>
     <g id="line2d_68">
      <g>
       <use style="stroke:#000000;stroke-linecap:butt;stroke-width:0.5;" x="118.125" xlink:href="#me8a85f7bf6" y="36.9"/>
      </g>
     </g>
     <g id="line2d_69">
      <g>
       <use style="stroke:#000000;stroke-linecap:butt;stroke-width:0.5;" x="704.025" xlink:href="#m1a32005dea" y="36.9"/>
      </g>
     </g>
     <g id="text_20">
      <!-- 4500000 -->
      <g transform="translate(62.06375 41.2678125)scale(0.12 -0.12)">
       <use xlink:href="#DejaVuSans-34"/>
       <use x="63.623046875" xlink:href="#DejaVuSans-35"/>
       <use x="127.24609375" xlink:href="#DejaVuSans-30"/>
       <use x="190.869140625" xlink:href="#DejaVuSans-30"/>
       <use x="254.4921875" xlink:href="#DejaVuSans-30"/>
       <use x="318.115234375" xlink:href="#DejaVuSans-30"/>
       <use x="381.73828125" xlink:href="#DejaVuSans-30"/>
      </g>
     </g>
    </g>
   </g>
   <g id="patch_3">
    <path d="
M118.125 36.9
L704.025 36.9" style="fill:none;stroke:#000000;"/>
   </g>
   <g id="patch_4">
    <path d="
M704.025 332.1
L704.025 36.9" style="fill:none;stroke:#000000;"/>
   </g>
   <g id="patch_5">
    <path d="
M118.125 332.1
L704.025 332.1" style="fill:none;stroke:#000000;"/>
   </g>
   <g id="patch_6">
    <path d="
M118.125 332.1
L118.125 36.9" style="fill:none;stroke:#000000;"/>
   </g>
   <g id="legend_1">
    <g id="patch_7">
     <path d="
M709.884 174.173
L941.712 174.173
L941.712 36.9
L709.884 36.9
L709.884 174.173
z
" style="fill:#ffffff;stroke:#000000;"/>
    </g>
    <g id="line2d_70">
     <path d="
M716.881 44.9952
L730.876 44.9952" style="fill:none;stroke:#0000ff;"/>
    </g>
    <g id="line2d_71"/>
    <g id="text_21">
     <!-- CYCLE_ACTIVITY.CYCLES_LDM_PENDING -->
     <defs>
      <path d="
M9.8125 72.9062
L24.5156 72.9062
L43.1094 23.2969
L61.8125 72.9062
L76.5156 72.9062
L76.5156 0
L66.8906 0
L66.8906 64.0156
L48.0938 14.0156
L38.1875 14.0156
L19.3906 64.0156
L19.3906 0
L9.8125 0
z
" id="DejaVuSans-4d"/>
      <path d="
M9.8125 72.9062
L23.0938 72.9062
L55.4219 11.9219
L55.4219 72.9062
L64.9844 72.9062
L64.9844 0
L51.7031 0
L19.3906 60.9844
L19.3906 0
L9.8125 0
z
" id="DejaVuSans-4e"/>
      <path d="
M9.8125 72.9062
L19.6719 72.9062
L19.6719 8.29688
L55.1719 8.29688
L55.1719 0
L9.8125 0
z
" id="DejaVuSans-4c"/>
      <path d="
M10.6875 12.4062
L21 12.4062
L21 0
L10.6875 0
z
" id="DejaVuSans-2e"/>
      <path d="
M50.9844 -16.6094
L50.9844 -23.5781
L-0.984375 -23.5781
L-0.984375 -16.6094
z
" id="DejaVuSans-5f"/>
      <path d="
M28.6094 0
L0.78125 72.9062
L11.0781 72.9062
L34.1875 11.5312
L57.3281 72.9062
L67.5781 72.9062
L39.7969 0
z
" id="DejaVuSans-56"/>
      <path d="
M19.6719 64.7969
L19.6719 8.10938
L31.5938 8.10938
Q46.6875 8.10938 53.6875 14.9375
Q60.6875 21.7812 60.6875 36.5312
Q60.6875 51.1719 53.6875 57.9844
Q46.6875 64.7969 31.5938 64.7969
z

M9.8125 72.9062
L30.0781 72.9062
Q51.2656 72.9062 61.1719 64.0938
Q71.0938 55.2812 71.0938 36.5312
Q71.0938 17.6719 61.125 8.82812
Q51.1719 0 30.0781 0
L9.8125 0
z
" id="DejaVuSans-44"/>
      <path d="
M9.8125 72.9062
L55.9062 72.9062
L55.9062 64.5938
L19.6719 64.5938
L19.6719 43.0156
L54.3906 43.0156
L54.3906 34.7188
L19.6719 34.7188
L19.6719 8.29688
L56.7812 8.29688
L56.7812 0
L9.8125 0
z
" id="DejaVuSans-45"/>
      <path d="
M-0.203125 72.9062
L10.4062 72.9062
L30.6094 42.9219
L50.6875 72.9062
L61.2812 72.9062
L35.5 34.7188
L35.5 0
L25.5938 0
L25.5938 34.7188
z
" id="DejaVuSans-59"/>
      <path d="
M59.5156 10.4062
L59.5156 29.9844
L43.4062 29.9844
L43.4062 38.0938
L69.2812 38.0938
L69.2812 6.78125
Q63.5781 2.73438 56.6875 0.65625
Q49.8125 -1.42188 42 -1.42188
Q24.9062 -1.42188 15.25 8.5625
Q5.60938 18.5625 5.60938 36.375
Q5.60938 54.25 15.25 64.2344
Q24.9062 74.2188 42 74.2188
Q49.125 74.2188 55.5469 72.4531
Q61.9688 70.7031 67.3906 67.2812
L67.3906 56.7812
Q61.9219 61.4219 55.7656 63.7656
Q49.6094 66.1094 42.8281 66.1094
Q29.4375 66.1094 22.7188 58.6406
Q16.0156 51.1719 16.0156 36.375
Q16.0156 21.625 22.7188 14.1562
Q29.4375 6.6875 42.8281 6.6875
Q48.0469 6.6875 52.1406 7.59375
Q56.25 8.5 59.5156 10.4062" id="DejaVuSans-47"/>
      <path d="
M34.1875 63.1875
L20.7969 26.9062
L47.6094 26.9062
z

M28.6094 72.9062
L39.7969 72.9062
L67.5781 0
L57.3281 0
L50.6875 18.7031
L17.8281 18.7031
L11.1875 0
L0.78125 0
z
" id="DejaVuSans-41"/>
      <path d="
M64.4062 67.2812
L64.4062 56.8906
Q59.4219 61.5312 53.7812 63.8125
Q48.1406 66.1094 41.7969 66.1094
Q29.2969 66.1094 22.6562 58.4688
Q16.0156 50.8281 16.0156 36.375
Q16.0156 21.9688 22.6562 14.3281
Q29.2969 6.6875 41.7969 6.6875
Q48.1406 6.6875 53.7812 8.98438
Q59.4219 11.2812 64.4062 15.9219
L64.4062 5.60938
Q59.2344 2.09375 53.4375 0.328125
Q47.6562 -1.42188 41.2188 -1.42188
Q24.6562 -1.42188 15.125 8.70312
Q5.60938 18.8438 5.60938 36.375
Q5.60938 53.9531 15.125 64.0781
Q24.6562 74.2188 41.2188 74.2188
Q47.75 74.2188 53.5312 72.4844
Q59.3281 70.75 64.4062 67.2812" id="DejaVuSans-43"/>
      <path d="
M53.5156 70.5156
L53.5156 60.8906
Q47.9062 63.5781 42.9219 64.8906
Q37.9375 66.2188 33.2969 66.2188
Q25.25 66.2188 20.875 63.0938
Q16.5 59.9688 16.5 54.2031
Q16.5 49.3594 19.4062 46.8906
Q22.3125 44.4375 30.4219 42.9219
L36.375 41.7031
Q47.4062 39.5938 52.6562 34.2969
Q57.9062 29 57.9062 20.125
Q57.9062 9.51562 50.7969 4.04688
Q43.7031 -1.42188 29.9844 -1.42188
Q24.8125 -1.42188 18.9688 -0.25
Q13.1406 0.921875 6.89062 3.21875
L6.89062 13.375
Q12.8906 10.0156 18.6562 8.29688
Q24.4219 6.59375 29.9844 6.59375
Q38.4219 6.59375 43.0156 9.90625
Q47.6094 13.2344 47.6094 19.3906
Q47.6094 24.75 44.3125 27.7812
Q41.0156 30.8125 33.5 32.3281
L27.4844 33.5
Q16.4531 35.6875 11.5156 40.375
Q6.59375 45.0625 6.59375 53.4219
Q6.59375 63.0938 13.4062 68.6562
Q20.2188 74.2188 32.1719 74.2188
Q37.3125 74.2188 42.625 73.2812
Q47.9531 72.3594 53.5156 70.5156" id="DejaVuSans-53"/>
      <path d="
M19.6719 64.7969
L19.6719 37.4062
L32.0781 37.4062
Q38.9688 37.4062 42.7188 40.9688
Q46.4844 44.5312 46.4844 51.125
Q46.4844 57.6719 42.7188 61.2344
Q38.9688 64.7969 32.0781 64.7969
z

M9.8125 72.9062
L32.0781 72.9062
Q44.3438 72.9062 50.6094 67.3594
Q56.8906 61.8125 56.8906 51.125
Q56.8906 40.3281 50.6094 34.8125
Q44.3438 29.2969 32.0781 29.2969
L19.6719 29.2969
L19.6719 0
L9.8125 0
z
" id="DejaVuSans-50"/>
      <path d="
M9.8125 72.9062
L19.6719 72.9062
L19.6719 0
L9.8125 0
z
" id="DejaVuSans-49"/>
      <path d="
M-0.296875 72.9062
L61.375 72.9062
L61.375 64.5938
L35.5 64.5938
L35.5 0
L25.5938 0
L25.5938 64.5938
L-0.296875 64.5938
z
" id="DejaVuSans-54"/>
     </defs>
     <g transform="translate(741.8712 48.493798125)scale(0.09996 -0.09996)">
      <use xlink:href="#DejaVuSans-43"/>
      <use x="68.07421875" xlink:href="#DejaVuSans-59"/>
      <use x="123.658203125" xlink:href="#DejaVuSans-43"/>
      <use x="193.482421875" xlink:href="#DejaVuSans-4c"/>
      <use x="249.1953125" xlink:href="#DejaVuSans-45"/>
      <use x="312.37890625" xlink:href="#DejaVuSans-5f"/>
      <use x="362.37890625" xlink:href="#DejaVuSans-41"/>
      <use x="429.037109375" xlink:href="#DejaVuSans-43"/>
      <use x="498.861328125" xlink:href="#DejaVuSans-54"/>
      <use x="559.9453125" xlink:href="#DejaVuSans-49"/>
      <use x="589.4375" xlink:href="#DejaVuSans-56"/>
      <use x="657.845703125" xlink:href="#DejaVuSans-49"/>
      <use x="687.337890625" xlink:href="#DejaVuSans-54"/>
      <use x="748.421875" xlink:href="#DejaVuSans-59"/>
      <use x="789.255859375" xlink:href="#DejaVuSans-2e"/>
      <use x="821.04296875" xlink:href="#DejaVuSans-43"/>
      <use x="889.1171875" xlink:href="#DejaVuSans-59"/>
      <use x="944.701171875" xlink:href="#DejaVuSans-43"/>
      <use x="1014.52539062" xlink:href="#DejaVuSans-4c"/>
      <use x="1070.23828125" xlink:href="#DejaVuSans-45"/>
      <use x="1133.421875" xlink:href="#DejaVuSans-53"/>
      <use x="1196.8984375" xlink:href="#DejaVuSans-5f"/>
      <use x="1246.8984375" xlink:href="#DejaVuSans-4c"/>
      <use x="1302.61132812" xlink:href="#DejaVuSans-44"/>
      <use x="1379.61328125" xlink:href="#DejaVuSans-4d"/>
      <use x="1465.89257812" xlink:href="#DejaVuSans-5f"/>
      <use x="1515.89257812" xlink:href="#DejaVuSans-50"/>
      <use x="1576.1953125" xlink:href="#DejaVuSans-45"/>
      <use x="1639.37890625" xlink:href="#DejaVuSans-4e"/>
      <use x="1714.18359375" xlink:href="#DejaVuSans-44"/>
      <use x="1791.18554688" xlink:href="#DejaVuSans-49"/>
      <use x="1820.67773438" xlink:href="#DejaVuSans-4e"/>
      <use x="1895.48242188" xlink:href="#DejaVuSans-47"/>
     </g>
    </g>
    <g id="line2d_72">
     <path d="
M716.881 59.9455
L730.876 59.9455" style="fill:none;stroke:#008000;"/>
    </g>
    <g id="line2d_73"/>
    <g id="text_22">
     <!-- CYCLE_ACTIVITY.CYCLES_LDM_PENDING -->
     <g transform="translate(741.8712 63.444065625)scale(0.09996 -0.09996)">
      <use xlink:href="#DejaVuSans-43"/>
      <use x="68.07421875" xlink:href="#DejaVuSans-59"/>
      <use x="123.658203125" xlink:href="#DejaVuSans-43"/>
      <use x="193.482421875" xlink:href="#DejaVuSans-4c"/>
      <use x="249.1953125" xlink:href="#DejaVuSans-45"/>
      <use x="312.37890625" xlink:href="#DejaVuSans-5f"/>
      <use x="362.37890625" xlink:href="#DejaVuSans-41"/>
      <use x="429.037109375" xlink:href="#DejaVuSans-43"/>
      <use x="498.861328125" xlink:href="#DejaVuSans-54"/>
      <use x="559.9453125" xlink:href="#DejaVuSans-49"/>
      <use x="589.4375" xlink:href="#DejaVuSans-56"/>
      <use x="657.845703125" xlink:href="#DejaVuSans-49"/>
      <use x="687.337890625" xlink:href="#DejaVuSans-54"/>
      <use x="748.421875" xlink:href="#DejaVuSans-59"/>
      <use x="789.255859375" xlink:href="#DejaVuSans-2e"/>
      <use x="821.04296875" xlink:href="#DejaVuSans-43"/>
      <use x="889.1171875" xlink:href="#DejaVuSans-59"/>
      <use x="944.701171875" xlink:href="#DejaVuSans-43"/>
      <use x="1014.52539062" xlink:href="#DejaVuSans-4c"/>
      <use x="1070.23828125" xlink:href="#DejaVuSans-45"/>
      <use x="1133.421875" xlink:href="#DejaVuSans-53"/>
      <use x="1196.8984375" xlink:href="#DejaVuSans-5f"/>
      <use x="1246.8984375" xlink:href="#DejaVuSans-4c"/>
      <use x="1302.61132812" xlink:href="#DejaVuSans-44"/>
      <use x="1379.61328125" xlink:href="#DejaVuSans-4d"/>
      <use x="1465.89257812" xlink:href="#DejaVuSans-5f"/>
      <use x="1515.89257812" xlink:href="#DejaVuSans-50"/>
      <use x="1576.1953125" xlink:href="#DejaVuSans-45"/>
      <use x="1639.37890625" xlink:href="#DejaVuSans-4e"/>
      <use x="1714.18359375" xlink:href="#DejaVuSans-44"/>
      <use x="1791.18554688" xlink:href="#DejaVuSans-49"/>
      <use x="1820.67773438" xlink:href="#DejaVuSans-4e"/>
      <use x="1895.48242188" xlink:href="#DejaVuSans-47"/>
     </g>
    </g>
    <g id="line2d_74">
     <path d="
M716.881 74.8957
L730.876 74.8957" style="fill:none;stroke:#ff0000;"/>
    </g>
    <g id="line2d_75"/>
    <g id="text_23">
     <!-- CYCLE_ACTIVITY.CYCLES_LDM_PENDING -->
     <g transform="translate(741.8712 78.394333125)scale(0.09996 -0.09996)">
      <use xlink:href="#DejaVuSans-43"/>
      <use x="68.07421875" xlink:href="#DejaVuSans-59"/>
      <use x="123.658203125" xlink:href="#DejaVuSans-43"/>
      <use x="193.482421875" xlink:href="#DejaVuSans-4c"/>
      <use x="249.1953125" xlink:href="#DejaVuSans-45"/>
      <use x="312.37890625" xlink:href="#DejaVuSans-5f"/>
      <use x="362.37890625" xlink:href="#DejaVuSans-41"/>
      <use x="429.037109375" xlink:href="#DejaVuSans-43"/>
      <use x="498.861328125" xlink:href="#DejaVuSans-54"/>
      <use x="559.9453125" xlink:href="#DejaVuSans-49"/>
      <use x="589.4375" xlink:href="#DejaVuSans-56"/>
      <use x="657.845703125" xlink:href="#DejaVuSans-49"/>
      <use x="687.337890625" xlink:href="#DejaVuSans-54"/>
      <use x="748.421875" xlink:href="#DejaVuSans-59"/>
      <use x="789.255859375" xlink:href="#DejaVuSans-2e"/>
      <use x="821.04296875" xlink:href="#DejaVuSans-43"/>
      <use x="889.1171875" xlink:href="#DejaVuSans-59"/>
      <use x="944.701171875" xlink:href="#DejaVuSans-43"/>
      <use x="1014.52539062" xlink:href="#DejaVuSans-4c"/>
      <use x="1070.23828125" xlink:href="#DejaVuSans-45"/>
      <use x="1133.421875" xlink:href="#DejaVuSans-53"/>
      <use x="1196.8984375" xlink:href="#DejaVuSans-5f"/>
      <use x="1246.8984375" xlink:href="#DejaVuSans-4c"/>
      <use x="1302.61132812" xlink:href="#DejaVuSans-44"/>
      <use x="1379.61328125" xlink:href="#DejaVuSans-4d"/>
      <use x="1465.89257812" xlink:href="#DejaVuSans-5f"/>
      <use x="1515.89257812" xlink:href="#DejaVuSans-50"/>
      <use x="1576.1953125" xlink:href="#DejaVuSans-45"/>
      <use x="1639.37890625" xlink:href="#DejaVuSans-4e"/>
      <use x="1714.18359375" xlink:href="#DejaVuSans-44"/>
      <use x="1791.18554688" xlink:href="#DejaVuSans-49"/>
      <use x="1820.67773438" xlink:href="#DejaVuSans-4e"/>
      <use x="1895.48242188" xlink:href="#DejaVuSans-47"/>
     </g>
    </g>
    <g id="line2d_76">
     <path d="
M716.881 89.846
L730.876 89.846" style="fill:none;stroke:#00bfbf;"/>
    </g>
    <g id="line2d_77"/>
    <g id="text_24">
     <!-- CYCLE_ACTIVITY.CYCLES_LDM_PENDING -->
     <g transform="translate(741.8712 93.344600625)scale(0.09996 -0.09996)">
      <use xlink:href="#DejaVuSans-43"/>
      <use x="68.07421875" xlink:href="#DejaVuSans-59"/>
      <use x="123.658203125" xlink:href="#DejaVuSans-43"/>
      <use x="193.482421875" xlink:href="#DejaVuSans-4c"/>
      <use x="249.1953125" xlink:href="#DejaVuSans-45"/>
      <use x="312.37890625" xlink:href="#DejaVuSans-5f"/>
      <use x="362.37890625" xlink:href="#DejaVuSans-41"/>
      <use x="429.037109375" xlink:href="#DejaVuSans-43"/>
      <use x="498.861328125" xlink:href="#DejaVuSans-54"/>
      <use x="559.9453125" xlink:href="#DejaVuSans-49"/>
      <use x="589.4375" xlink:href="#DejaVuSans-56"/>
      <use x="657.845703125" xlink:href="#DejaVuSans-49"/>
      <use x="687.337890625" xlink:href="#DejaVuSans-54"/>
      <use x="748.421875" xlink:href="#DejaVuSans-59"/>
      <use x="789.255859375" xlink:href="#DejaVuSans-2e"/>
      <use x="821.04296875" xlink:href="#DejaVuSans-43"/>
      <use x="889.1171875" xlink:href="#DejaVuSans-59"/>
      <use x="944.701171875" xlink:href="#DejaVuSans-43"/>
      <use x="1014.52539062" xlink:href="#DejaVuSans-4c"/>
      <use x="1070.23828125" xlink:href="#DejaVuSans-45"/>
      <use x="1133.421875" xlink:href="#DejaVuSans-53"/>
      <use x="1196.8984375" xlink:href="#DejaVuSans-5f"/>
      <use x="1246.8984375" xlink:href="#DejaVuSans-4c"/>
      <use x="1302.61132812" xlink:href="#DejaVuSans-44"/>
      <use x="1379.61328125" xlink:href="#DejaVuSans-4d"/>
      <use x="1465.89257812" xlink:href="#DejaVuSans-5f"/>
      <use x="1515.89257812" xlink:href="#DejaVuSans-50"/>
      <use x="1576.1953125" xlink:href="#DejaVuSans-45"/>
      <use x="1639.37890625" xlink:href="#DejaVuSans-4e"/>
      <use x="1714.18359375" xlink:href="#DejaVuSans-44"/>
      <use x="1791.18554688" xlink:href="#DejaVuSans-49"/>
      <use x="1820.67773438" xlink:href="#DejaVuSans-4e"/>
      <use x="1895.48242188" xlink:href="#DejaVuSans-47"/>
     </g>
    </g>
    <g id="line2d_78">
     <path d="
M716.881 104.796
L730.876 104.796" style="fill:none;stroke:#bf00bf;"/>
    </g>
    <g id="line2d_79"/>
    <g id="text_25">
     <!-- CYCLE_ACTIVITY.CYCLES_LDM_PENDING -->
     <g transform="translate(741.8712 108.294868125)scale(0.09996 -0.09996)">
      <use xlink:href="#DejaVuSans-43"/>
      <use x="68.07421875" xlink:href="#DejaVuSans-59"/>
      <use x="123.658203125" xlink:href="#DejaVuSans-43"/>
      <use x="193.482421875" xlink:href="#DejaVuSans-4c"/>
      <use x="249.1953125" xlink:href="#DejaVuSans-45"/>
      <use x="312.37890625" xlink:href="#DejaVuSans-5f"/>
      <use x="362.37890625" xlink:href="#DejaVuSans-41"/>
      <use x="429.037109375" xlink:href="#DejaVuSans-43"/>
      <use x="498.861328125" xlink:href="#DejaVuSans-54"/>
      <use x="559.9453125" xlink:href="#DejaVuSans-49"/>
      <use x="589.4375" xlink:href="#DejaVuSans-56"/>
      <use x="657.845703125" xlink:href="#DejaVuSans-49"/>
      <use x="687.337890625" xlink:href="#DejaVuSans-54"/>
      <use x="748.421875" xlink:href="#DejaVuSans-59"/>
      <use x="789.255859375" xlink:href="#DejaVuSans-2e"/>
      <use x="821.04296875" xlink:href="#DejaVuSans-43"/>
      <use x="889.1171875" xlink:href="#DejaVuSans-59"/>
      <use x="944.701171875" xlink:href="#DejaVuSans-43"/>
      <use x="1014.52539062" xlink:href="#DejaVuSans-4c"/>
      <use x="1070.23828125" xlink:href="#DejaVuSans-45"/>
      <use x="1133.421875" xlink:href="#DejaVuSans-53"/>
      <use x="1196.8984375" xlink:href="#DejaVuSans-5f"/>
      <use x="1246.8984375" xlink:href="#DejaVuSans-4c"/>
      <use x="1302.61132812" xlink:href="#DejaVuSans-44"/>
      <use x="1379.61328125" xlink:href="#DejaVuSans-4d"/>
      <use x="1465.89257812" xlink:href="#DejaVuSans-5f"/>
      <use x="1515.89257812" xlink:href="#DejaVuSans-50"/>
      <use x="1576.1953125" xlink:href="#DejaVuSans-45"/>
      <use x="1639.37890625" xlink:href="#DejaVuSans-4e"/>
      <use x="1714.18359375" xlink:href="#DejaVuSans-44"/>
      <use x="1791.18554688" xlink:href="#DejaVuSans-49"/>
      <use x="1820.67773438" xlink:href="#DejaVuSans-4e"/>
      <use x="1895.48242188" xlink:href="#DejaVuSans-47"/>
     </g>
    </g>
    <g id="line2d_80">
     <path d="
M716.881 119.747
L730.876 119.747" style="fill:none;stroke:#bfbf00;"/>
    </g>
    <g id="line2d_81"/>
    <g id="text_26">
     <!-- CYCLE_ACTIVITY.CYCLES_LDM_PENDING -->
     <g transform="translate(741.8712 123.245135625)scale(0.09996 -0.09996)">
      <use xlink:href="#DejaVuSans-43"/>
      <use x="68.07421875" xlink:href="#DejaVuSans-59"/>
      <use x="123.658203125" xlink:href="#DejaVuSans-43"/>
      <use x="193.482421875" xlink:href="#DejaVuSans-4c"/>
      <use x="249.1953125" xlink:href="#DejaVuSans-45"/>
      <use x="312.37890625" xlink:href="#DejaVuSans-5f"/>
      <use x="362.37890625" xlink:href="#DejaVuSans-41"/>
      <use x="429.037109375" xlink:href="#DejaVuSans-43"/>
      <use x="498.861328125" xlink:href="#DejaVuSans-54"/>
      <use x="559.9453125" xlink:href="#DejaVuSans-49"/>
      <use x="589.4375" xlink:href="#DejaVuSans-56"/>
      <use x="657.845703125" xlink:href="#DejaVuSans-49"/>
      <use x="687.337890625" xlink:href="#DejaVuSans-54"/>
      <use x="748.421875" xlink:href="#DejaVuSans-59"/>
      <use x="789.255859375" xlink:href="#DejaVuSans-2e"/>
      <use x="821.04296875" xlink:href="#DejaVuSans-43"/>
      <use x="889.1171875" xlink:href="#DejaVuSans-59"/>
      <use x="944.701171875" xlink:href="#DejaVuSans-43"/>
      <use x="1014.52539062" xlink:href="#DejaVuSans-4c"/>
      <use x="1070.23828125" xlink:href="#DejaVuSans-45"/>
      <use x="1133.421875" xlink:href="#DejaVuSans-53"/>
      <use x="1196.8984375" xlink:href="#DejaVuSans-5f"/>
      <use x="1246.8984375" xlink:href="#DejaVuSans-4c"/>
      <use x="1302.61132812" xlink:href="#DejaVuSans-44"/>
      <use x="1379.61328125" xlink:href="#DejaVuSans-4d"/>
      <use x="1465.89257812" xlink:href="#DejaVuSans-5f"/>
      <use x="1515.89257812" xlink:href="#DejaVuSans-50"/>
      <use x="1576.1953125" xlink:href="#DejaVuSans-45"/>
      <use x="1639.37890625" xlink:href="#DejaVuSans-4e"/>
      <use x="1714.18359375" xlink:href="#DejaVuSans-44"/>
      <use x="1791.18554688" xlink:href="#DejaVuSans-49"/>
      <use x="1820.67773438" xlink:href="#DejaVuSans-4e"/>
      <use x="1895.48242188" xlink:href="#DejaVuSans-47"/>
     </g>
    </g>
    <g id="line2d_82">
     <path d="
M716.881 134.697
L730.876 134.697" style="fill:none;stroke:#000000;"/>
    </g>
    <g id="line2d_83"/>
    <g id="text_27">
     <!-- CYCLE_ACTIVITY.CYCLES_LDM_PENDING -->
     <g transform="translate(741.8712 138.195403125)scale(0.09996 -0.09996)">
      <use xlink:href="#DejaVuSans-43"/>
      <use x="68.07421875" xlink:href="#DejaVuSans-59"/>
      <use x="123.658203125" xlink:href="#DejaVuSans-43"/>
      <use x="193.482421875" xlink:href="#DejaVuSans-4c"/>
      <use x="249.1953125" xlink:href="#DejaVuSans-45"/>
      <use x="312.37890625" xlink:href="#DejaVuSans-5f"/>
      <use x="362.37890625" xlink:href="#DejaVuSans-41"/>
      <use x="429.037109375" xlink:href="#DejaVuSans-43"/>
      <use x="498.861328125" xlink:href="#DejaVuSans-54"/>
      <use x="559.9453125" xlink:href="#DejaVuSans-49"/>
      <use x="589.4375" xlink:href="#DejaVuSans-56"/>
      <use x="657.845703125" xlink:href="#DejaVuSans-49"/>
      <use x="687.337890625" xlink:href="#DejaVuSans-54"/>
      <use x="748.421875" xlink:href="#DejaVuSans-59"/>
      <use x="789.255859375" xlink:href="#DejaVuSans-2e"/>
      <use x="821.04296875" xlink:href="#DejaVuSans-43"/>
      <use x="889.1171875" xlink:href="#DejaVuSans-59"/>
      <use x="944.701171875" xlink:href="#DejaVuSans-43"/>
      <use x="1014.52539062" xlink:href="#DejaVuSans-4c"/>
      <use x="1070.23828125" xlink:href="#DejaVuSans-45"/>
      <use x="1133.421875" xlink:href="#DejaVuSans-53"/>
      <use x="1196.8984375" xlink:href="#DejaVuSans-5f"/>
      <use x="1246.8984375" xlink:href="#DejaVuSans-4c"/>
      <use x="1302.61132812" xlink:href="#DejaVuSans-44"/>
      <use x="1379.61328125" xlink:href="#DejaVuSans-4d"/>
      <use x="1465.89257812" xlink:href="#DejaVuSans-5f"/>
      <use x="1515.89257812" xlink:href="#DejaVuSans-50"/>
      <use x="1576.1953125" xlink:href="#DejaVuSans-45"/>
      <use x="1639.37890625" xlink:href="#DejaVuSans-4e"/>
      <use x="1714.18359375" xlink:href="#DejaVuSans-44"/>
      <use x="1791.18554688" xlink:href="#DejaVuSans-49"/>
      <use x="1820.67773438" xlink:href="#DejaVuSans-4e"/>
      <use x="1895.48242188" xlink:href="#DejaVuSans-47"/>
     </g>
    </g>
    <g id="line2d_84">
     <path d="
M716.881 149.647
L730.876 149.647" style="fill:none;stroke:#0000ff;"/>
    </g>
    <g id="line2d_85"/>
    <g id="text_28">
     <!-- CYCLE_ACTIVITY.CYCLES_LDM_PENDING -->
     <g transform="translate(741.8712 153.145670625)scale(0.09996 -0.09996)">
      <use xlink:href="#DejaVuSans-43"/>
      <use x="68.07421875" xlink:href="#DejaVuSans-59"/>
      <use x="123.658203125" xlink:href="#DejaVuSans-43"/>
      <use x="193.482421875" xlink:href="#DejaVuSans-4c"/>
      <use x="249.1953125" xlink:href="#DejaVuSans-45"/>
      <use x="312.37890625" xlink:href="#DejaVuSans-5f"/>
      <use x="362.37890625" xlink:href="#DejaVuSans-41"/>
      <use x="429.037109375" xlink:href="#DejaVuSans-43"/>
      <use x="498.861328125" xlink:href="#DejaVuSans-54"/>
      <use x="559.9453125" xlink:href="#DejaVuSans-49"/>
      <use x="589.4375" xlink:href="#DejaVuSans-56"/>
      <use x="657.845703125" xlink:href="#DejaVuSans-49"/>
      <use x="687.337890625" xlink:href="#DejaVuSans-54"/>
      <use x="748.421875" xlink:href="#DejaVuSans-59"/>
      <use x="789.255859375" xlink:href="#DejaVuSans-2e"/>
      <use x="821.04296875" xlink:href="#DejaVuSans-43"/>
      <use x="889.1171875" xlink:href="#DejaVuSans-59"/>
      <use x="944.701171875" xlink:href="#DejaVuSans-43"/>
      <use x="1014.52539062" xlink:href="#DejaVuSans-4c"/>
      <use x="1070.23828125" xlink:href="#DejaVuSans-45"/>
      <use x="1133.421875" xlink:href="#DejaVuSans-53"/>
      <use x="1196.8984375" xlink:href="#DejaVuSans-5f"/>
      <use x="1246.8984375" xlink:href="#DejaVuSans-4c"/>
      <use x="1302.61132812" xlink:href="#DejaVuSans-44"/>
      <use x="1379.61328125" xlink:href="#DejaVuSans-4d"/>
      <use x="1465.89257812" xlink:href="#DejaVuSans-5f"/>
      <use x="1515.89257812" xlink:href="#DejaVuSans-50"/>
      <use x="1576.1953125" xlink:href="#DejaVuSans-45"/>
      <use x="1639.37890625" xlink:href="#DejaVuSans-4e"/>
      <use x="1714.18359375" xlink:href="#DejaVuSans-44"/>
      <use x="1791.18554688" xlink:href="#DejaVuSans-49"/>
      <use x="1820.67773438" xlink:href="#DejaVuSans-4e"/>
      <use x="1895.48242188" xlink:href="#DejaVuSans-47"/>
     </g>
    </g>
    <g id="line2d_86">
     <path d="
M716.881 164.597
L730.876 164.597" style="fill:none;stroke:#008000;"/>
    </g>
    <g id="line2d_87"/>
    <g id="text_29">
     <!-- UnHalted Core Cycles -->
     <defs>
      <path d="
M30.6094 48.3906
Q23.3906 48.3906 19.1875 42.75
Q14.9844 37.1094 14.9844 27.2969
Q14.9844 17.4844 19.1562 11.8438
Q23.3438 6.20312 30.6094 6.20312
Q37.7969 6.20312 41.9844 11.8594
Q46.1875 17.5312 46.1875 27.2969
Q46.1875 37.0156 41.9844 42.7031
Q37.7969 48.3906 30.6094 48.3906
M30.6094 56
Q42.3281 56 49.0156 48.375
Q55.7188 40.7656 55.7188 27.2969
Q55.7188 13.875 49.0156 6.21875
Q42.3281 -1.42188 30.6094 -1.42188
Q18.8438 -1.42188 12.1719 6.21875
Q5.51562 13.875 5.51562 27.2969
Q5.51562 40.7656 12.1719 48.375
Q18.8438 56 30.6094 56" id="DejaVuSans-6f"/>
      <path d="
M54.8906 33.0156
L54.8906 0
L45.9062 0
L45.9062 32.7188
Q45.9062 40.4844 42.875 44.3281
Q39.8438 48.1875 33.7969 48.1875
Q26.5156 48.1875 22.3125 43.5469
Q18.1094 38.9219 18.1094 30.9062
L18.1094 0
L9.07812 0
L9.07812 54.6875
L18.1094 54.6875
L18.1094 46.1875
Q21.3438 51.125 25.7031 53.5625
Q30.0781 56 35.7969 56
Q45.2188 56 50.0469 50.1719
Q54.8906 44.3438 54.8906 33.0156" id="DejaVuSans-6e"/>
      <path d="
M9.42188 75.9844
L18.4062 75.9844
L18.4062 0
L9.42188 0
z
" id="DejaVuSans-6c"/>
      <path d="
M41.1094 46.2969
Q39.5938 47.1719 37.8125 47.5781
Q36.0312 48 33.8906 48
Q26.2656 48 22.1875 43.0469
Q18.1094 38.0938 18.1094 28.8125
L18.1094 0
L9.07812 0
L9.07812 54.6875
L18.1094 54.6875
L18.1094 46.1875
Q20.9531 51.1719 25.4844 53.5781
Q30.0312 56 36.5312 56
Q37.4531 56 38.5781 55.875
Q39.7031 55.7656 41.0625 55.5156
z
" id="DejaVuSans-72"/>
      <path id="DejaVuSans-20"/>
      <path d="
M32.1719 -5.07812
Q28.375 -14.8438 24.75 -17.8125
Q21.1406 -20.7969 15.0938 -20.7969
L7.90625 -20.7969
L7.90625 -13.2812
L13.1875 -13.2812
Q16.8906 -13.2812 18.9375 -11.5156
Q21 -9.76562 23.4844 -3.21875
L25.0938 0.875
L2.98438 54.6875
L12.5 54.6875
L29.5938 11.9219
L46.6875 54.6875
L56.2031 54.6875
z
" id="DejaVuSans-79"/>
      <path d="
M44.2812 53.0781
L44.2812 44.5781
Q40.4844 46.5312 36.375 47.5
Q32.2812 48.4844 27.875 48.4844
Q21.1875 48.4844 17.8438 46.4375
Q14.5 44.3906 14.5 40.2812
Q14.5 37.1562 16.8906 35.375
Q19.2812 33.5938 26.5156 31.9844
L29.5938 31.2969
Q39.1562 29.25 43.1875 25.5156
Q47.2188 21.7812 47.2188 15.0938
Q47.2188 7.46875 41.1875 3.01562
Q35.1562 -1.42188 24.6094 -1.42188
Q20.2188 -1.42188 15.4531 -0.5625
Q10.6875 0.296875 5.42188 2
L5.42188 11.2812
Q10.4062 8.6875 15.2344 7.39062
Q20.0625 6.10938 24.8125 6.10938
Q31.1562 6.10938 34.5625 8.28125
Q37.9844 10.4531 37.9844 14.4062
Q37.9844 18.0625 35.5156 20.0156
Q33.0625 21.9688 24.7031 23.7812
L21.5781 24.5156
Q13.2344 26.2656 9.51562 29.9062
Q5.8125 33.5469 5.8125 39.8906
Q5.8125 47.6094 11.2812 51.7969
Q16.75 56 26.8125 56
Q31.7812 56 36.1719 55.2656
Q40.5781 54.5469 44.2812 53.0781" id="DejaVuSans-73"/>
      <path d="
M18.3125 70.2188
L18.3125 54.6875
L36.8125 54.6875
L36.8125 47.7031
L18.3125 47.7031
L18.3125 18.0156
Q18.3125 11.3281 20.1406 9.42188
Q21.9688 7.51562 27.5938 7.51562
L36.8125 7.51562
L36.8125 0
L27.5938 0
Q17.1875 0 13.2344 3.875
Q9.28125 7.76562 9.28125 18.0156
L9.28125 47.7031
L2.6875 47.7031
L2.6875 54.6875
L9.28125 54.6875
L9.28125 70.2188
z
" id="DejaVuSans-74"/>
      <path d="
M45.4062 46.3906
L45.4062 75.9844
L54.3906 75.9844
L54.3906 0
L45.4062 0
L45.4062 8.20312
Q42.5781 3.32812 38.25 0.953125
Q33.9375 -1.42188 27.875 -1.42188
Q17.9688 -1.42188 11.7344 6.48438
Q5.51562 14.4062 5.51562 27.2969
Q5.51562 40.1875 11.7344 48.0938
Q17.9688 56 27.875 56
Q33.9375 56 38.25 53.625
Q42.5781 51.2656 45.4062 46.3906
M14.7969 27.2969
Q14.7969 17.3906 18.875 11.75
Q22.9531 6.10938 30.0781 6.10938
Q37.2031 6.10938 41.2969 11.75
Q45.4062 17.3906 45.4062 27.2969
Q45.4062 37.2031 41.2969 42.8438
Q37.2031 48.4844 30.0781 48.4844
Q22.9531 48.4844 18.875 42.8438
Q14.7969 37.2031 14.7969 27.2969" id="DejaVuSans-64"/>
      <path d="
M56.2031 29.5938
L56.2031 25.2031
L14.8906 25.2031
Q15.4844 15.9219 20.4844 11.0625
Q25.4844 6.20312 34.4219 6.20312
Q39.5938 6.20312 44.4531 7.46875
Q49.3125 8.73438 54.1094 11.2812
L54.1094 2.78125
Q49.2656 0.734375 44.1875 -0.34375
Q39.1094 -1.42188 33.8906 -1.42188
Q20.7969 -1.42188 13.1562 6.1875
Q5.51562 13.8125 5.51562 26.8125
Q5.51562 40.2344 12.7656 48.1094
Q20.0156 56 32.3281 56
Q43.3594 56 49.7812 48.8906
Q56.2031 41.7969 56.2031 29.5938
M47.2188 32.2344
Q47.125 39.5938 43.0938 43.9844
Q39.0625 48.3906 32.4219 48.3906
Q24.9062 48.3906 20.3906 44.1406
Q15.875 39.8906 15.1875 32.1719
z
" id="DejaVuSans-65"/>
      <path d="
M9.8125 72.9062
L19.6719 72.9062
L19.6719 43.0156
L55.5156 43.0156
L55.5156 72.9062
L65.375 72.9062
L65.375 0
L55.5156 0
L55.5156 34.7188
L19.6719 34.7188
L19.6719 0
L9.8125 0
z
" id="DejaVuSans-48"/>
      <path d="
M48.7812 52.5938
L48.7812 44.1875
Q44.9688 46.2969 41.1406 47.3438
Q37.3125 48.3906 33.4062 48.3906
Q24.6562 48.3906 19.8125 42.8438
Q14.9844 37.3125 14.9844 27.2969
Q14.9844 17.2812 19.8125 11.7344
Q24.6562 6.20312 33.4062 6.20312
Q37.3125 6.20312 41.1406 7.25
Q44.9688 8.29688 48.7812 10.4062
L48.7812 2.09375
Q45.0156 0.34375 40.9844 -0.53125
Q36.9688 -1.42188 32.4219 -1.42188
Q20.0625 -1.42188 12.7812 6.34375
Q5.51562 14.1094 5.51562 27.2969
Q5.51562 40.6719 12.8594 48.3281
Q20.2188 56 33.0156 56
Q37.1562 56 41.1094 55.1406
Q45.0625 54.2969 48.7812 52.5938" id="DejaVuSans-63"/>
      <path d="
M8.6875 72.9062
L18.6094 72.9062
L18.6094 28.6094
Q18.6094 16.8906 22.8438 11.7344
Q27.0938 6.59375 36.625 6.59375
Q46.0938 6.59375 50.3438 11.7344
Q54.5938 16.8906 54.5938 28.6094
L54.5938 72.9062
L64.5 72.9062
L64.5 27.3906
Q64.5 13.1406 57.4375 5.85938
Q50.3906 -1.42188 36.625 -1.42188
Q22.7969 -1.42188 15.7344 5.85938
Q8.6875 13.1406 8.6875 27.3906
z
" id="DejaVuSans-55"/>
      <path d="
M34.2812 27.4844
Q23.3906 27.4844 19.1875 25
Q14.9844 22.5156 14.9844 16.5
Q14.9844 11.7188 18.1406 8.90625
Q21.2969 6.10938 26.7031 6.10938
Q34.1875 6.10938 38.7031 11.4062
Q43.2188 16.7031 43.2188 25.4844
L43.2188 27.4844
z

M52.2031 31.2031
L52.2031 0
L43.2188 0
L43.2188 8.29688
Q40.1406 3.32812 35.5469 0.953125
Q30.9531 -1.42188 24.3125 -1.42188
Q15.9219 -1.42188 10.9531 3.29688
Q6 8.01562 6 15.9219
Q6 25.1406 12.1719 29.8281
Q18.3594 34.5156 30.6094 34.5156
L43.2188 34.5156
L43.2188 35.4062
Q43.2188 41.6094 39.1406 45
Q35.0625 48.3906 27.6875 48.3906
Q23 48.3906 18.5469 47.2656
Q14.1094 46.1406 10.0156 43.8906
L10.0156 52.2031
Q14.9375 54.1094 19.5781 55.0469
Q24.2188 56 28.6094 56
Q40.4844 56 46.3438 49.8438
Q52.2031 43.7031 52.2031 31.2031" id="DejaVuSans-61"/>
     </defs>
     <g transform="translate(741.8712 168.095938125)scale(0.09996 -0.09996)">
      <use xlink:href="#DejaVuSans-55"/>
      <use x="73.193359375" xlink:href="#DejaVuSans-6e"/>
      <use x="136.572265625" xlink:href="#DejaVuSans-48"/>
      <use x="211.767578125" xlink:href="#DejaVuSans-61"/>
      <use x="273.046875" xlink:href="#DejaVuSans-6c"/>
      <use x="300.830078125" xlink:href="#DejaVuSans-74"/>
      <use x="340.0390625" xlink:href="#DejaVuSans-65"/>
      <use x="401.5625" xlink:href="#DejaVuSans-64"/>
      <use x="465.0390625" xlink:href="#DejaVuSans-20"/>
      <use x="496.826171875" xlink:href="#DejaVuSans-43"/>
      <use x="566.650390625" xlink:href="#DejaVuSans-6f"/>
      <use x="627.83203125" xlink:href="#DejaVuSans-72"/>
      <use x="666.6953125" xlink:href="#DejaVuSans-65"/>
      <use x="728.21875" xlink:href="#DejaVuSans-20"/>
      <use x="760.005859375" xlink:href="#DejaVuSans-43"/>
      <use x="829.830078125" xlink:href="#DejaVuSans-79"/>
      <use x="889.009765625" xlink:href="#DejaVuSans-63"/>
      <use x="943.990234375" xlink:href="#DejaVuSans-6c"/>
      <use x="971.7734375" xlink:href="#DejaVuSans-65"/>
      <use x="1033.296875" xlink:href="#DejaVuSans-73"/>
     </g>
    </g>
   </g>
  </g>
 </g>
 <defs>
  <clipPath id="pe7b0e35aea">
   <rect height="295.2" width="585.9" x="118.125" y="36.9"/>
  </clipPath>
 </defs>
</svg>
