<?xml version="1.0" encoding="utf-8" standalone="no"?>
<!DOCTYPE svg PUBLIC "-//W3C//DTD SVG 1.1//EN"
  "http://www.w3.org/Graphics/SVG/1.1/DTD/svg11.dtd">
<!-- Created with matplotlib (http://matplotlib.sourceforge.net/) -->
<svg height="369pt" version="1.1" viewBox="0 0 1017 369" width="1017pt" xmlns="http://www.w3.org/2000/svg" xmlns:xlink="http://www.w3.org/1999/xlink">
 <defs>
  <style type="text/css">
*{stroke-linecap:square;stroke-linejoin:round;}
  </style>
 </defs>
 <g id="figure_1">
  <g id="patch_1">
   <path d="
M0 369
L1017 369
L1017 0
L0 0
z
" style="fill:#ffffff;"/>
  </g>
  <g id="axes_1">
   <g id="patch_2">
    <path d="
M127.125 332.1
L757.665 332.1
L757.665 36.9
L127.125 36.9
z
" style="fill:#ffffff;"/>
   </g>
   <g id="line2d_1">
    <path clip-path="url(#p72eb20d8cb)" d="
M127.125 101.64
L128.386 103.148
L129.647 103.137
L130.908 102.043
L132.169 102.769
L133.43 93.0897
L134.691 102.569
L135.953 102.24
L137.214 103.379
L138.475 98.3182
L139.736 102.622
L140.997 98.7855
L142.258 102.122
L143.519 102.383
L144.78 99.0647
L146.041 99.1414
L147.302 102.789
L148.563 101.211
L149.824 98.7145
L151.086 102.119
L152.347 101.838
L153.608 101.883
L154.869 100.831
L156.13 97.0241
L157.391 102.196
L158.652 102.241
L159.913 100.284
L161.174 101.944
L162.435 101.361
L163.696 101.374
L164.957 101.523
L166.218 101.095
L167.48 95.2042
L168.741 102.109
L170.002 101.268
L171.263 102.414
L172.524 99.0075
L173.785 102.353
L175.046 102.834
L176.307 102.063
L177.568 100.948
L178.829 101.905
L180.09 97.5057
L181.351 101.63
L182.613 95.8806
L183.874 101.952
L185.135 101.493
L186.396 99.5632
L187.657 102.526
L188.918 98.7569
L190.179 102.201
L191.44 102.236
L192.701 100.355
L195.223 101.698
L196.484 92.3729
L197.745 102.62
L199.007 100.326
L200.268 101.933
L201.529 102.498
L202.79 102.737
L204.051 102.565
L205.312 95.2819
L206.573 67.5654
L207.834 69.6377
L209.095 66.7908
L210.356 66.9929
L211.617 68.8072
L212.878 70.0513
L214.14 66.5244
L215.401 69.2748
L216.662 67.9552
L217.923 69.6534
L219.184 61.8379
L220.445 67.7322
L221.706 66.4814
L222.967 66.2043
L224.228 64.1715
L225.489 68.9947
L226.75 66.0886
L228.011 64.0154
L229.272 67.7043
L230.534 64.0641
L233.056 70.0179
L234.317 68.2419
L235.578 68.6146
L236.839 63.4412
L238.1 65.6019
L239.361 66.1362
L240.622 64.8451
L241.883 66.8676
L243.144 66.6172
L244.405 56.3738
L245.667 67.7405
L246.928 64.244
L248.189 67.6875
L249.45 68.4298
L250.711 68.1299
L251.972 64.8082
L253.233 68.0903
L254.494 62.2248
L255.755 69.7281
L257.016 68.5656
L258.277 68.8574
L259.538 66.3438
L260.799 64.4412
L262.061 67.8512
L263.322 67.7259
L264.583 69.3416
L265.844 70.5225
L267.105 57.8441
L268.366 65.7866
L269.627 69.5541
L270.888 70.4522
L272.149 68.2687
L273.41 67.5604
L274.671 70.1246
L275.932 60.2911
L277.194 67.8818
L278.455 67.8146
L279.716 67.1514
L280.977 68.8958
L282.238 59.3525
L283.499 64.3577
L284.76 69.9559
L286.021 70.0871
L287.282 60.5839
L288.543 69.1921
L289.804 62.8671
L291.065 68.6338
L292.326 68.8648
L293.588 64.251
L294.849 60.0758
L296.11 67.4877
L297.371 62.9722
L298.632 65.1093
L299.893 69.751
L301.154 68.9373
L302.415 68.9065
L303.676 69.8986
L304.937 56.7456
L306.198 69.3526
L307.459 64.8986
L308.721 68.0932
L309.982 70.1687
L311.243 62.2617
L312.504 65.2471
L313.765 67.7532
L315.026 57.3053
L316.287 68.5973
L317.548 67.2026
L318.809 69.8749
L320.07 69.6618
L321.331 62.9361
L322.592 67.9801
L323.853 66.7178
L325.115 60.1241
L326.376 68.8074
L327.637 66.8314
L328.898 65.2767
L330.159 65.8366
L331.42 69.2803
L332.681 67.5224
L333.942 56.9343
L335.203 64.8532
L336.464 69.315
L337.725 68.898
L338.986 61.1959
L340.248 69.8347
L341.509 67.4416
L342.77 67.6239
L344.031 68.9663
L345.292 67.5301
L346.553 68.684
L347.814 67.2646
L349.075 62.5693
L350.336 69.8141
L351.597 69.3364
L352.858 63.1484
L354.119 61.9221
L355.38 69.4006
L356.642 69.1482
L357.903 66.1765
L359.164 67.8176
L360.425 58.7133
L361.686 69.4117
L362.947 67.8073
L364.208 57.1203
L365.469 67.5263
L366.73 69.1024
L367.991 69.6919
L369.252 68.0216
L370.513 59.4629
L371.775 69.4401
L373.036 69.4799
L374.297 69.2517
L376.819 70.1949
L378.08 69.4144
L379.341 61.2343
L380.602 68.6652
L381.863 67.4776
L383.124 68.6705
L384.385 65.4541
L385.646 66.9665
L386.907 62.2496
L388.169 68.6587
L389.43 68.3034
L390.691 68.1606
L391.952 61.2025
L393.213 69.4203
L394.474 59.9581
L395.735 68.7405
L396.996 66.2331
L398.257 69.2731
L399.518 58.2407
L400.779 67.463
L402.04 67.7309
L403.302 68.4004
L404.563 64.4933
L405.824 69.7668
L407.085 69.1593
L408.346 66.7141
L409.607 67.1515
L410.868 67.8735
L412.129 69.8187
L413.39 68.2274
L414.651 60.7335
L415.912 68.9484
L417.173 68.6253
L418.434 68.5096
L419.696 69.5999
L420.957 66.7729
L422.218 68.6152
L423.479 68.713
L424.74 69.5539
L426.001 69.3668
L427.262 69.8172
L428.523 60.7737
L429.784 69.4386
L431.045 61.528
L432.306 68.1864
L433.567 67.6335
L434.829 61.4357
L436.09 68.5528
L437.351 68.7192
L438.612 70.3316
L439.873 67.5528
L441.134 68.7497
L442.395 68.3266
L444.917 69.558
L446.178 66.9455
L447.439 68.4823
L448.7 69.0827
L449.961 68.6971
L451.223 66.5571
L452.484 66.7964
L453.745 56.2533
L455.006 70.1796
L456.267 68.5183
L457.528 65.7564
L458.789 67.3705
L460.05 68.7897
L461.311 69.7486
L462.572 69.4652
L463.833 68.1161
L465.094 70.2406
L466.356 70.2792
L467.617 64.4453
L470.139 70.412
L471.4 67.0333
L472.661 66.0556
L473.922 67.7982
L475.183 61.3116
L476.444 68.8314
L477.705 68.2539
L478.966 65.7901
L480.227 67.5711
L481.488 66.4829
L482.75 68.2346
L484.011 69.3458
L485.272 69.9401
L486.533 68.7259
L487.794 68.0399
L489.055 69.1519
L490.316 56.2323
L491.577 66.0038
L492.838 68.413
L494.099 62.8604
L495.36 68.4334
L496.621 58.8341
L497.883 68.6421
L499.144 70.1369
L500.405 68.9215
L501.666 64.5582
L502.927 64.3851
L504.188 68.3665
L505.449 68.2709
L506.71 67.9074
L507.971 67.9401
L509.232 69.0213
L510.493 69.0751
L511.754 63.4756
L513.015 68.8041
L514.277 65.2571
L515.538 68.441
L516.799 68.3264
L518.06 59.083
L519.321 68.0458
L520.582 68.27
L523.104 68.0113
L524.365 68.3792
L525.626 67.7608
L526.887 68.7039
L528.148 67.5681
L529.41 68.8454
L530.671 68.053
L531.932 67.8185
L533.193 67.0237
L534.454 68.5676
L535.715 69.7541
L536.976 67.9484
L538.237 69.6618
L539.498 65.7064
L540.759 67.5084
L542.02 69.5082
L543.281 54.4832
L544.542 69.913
L545.804 68.8041
L547.065 68.3547
L548.326 63.3077
L549.587 69.2764
L550.848 69.4761
L552.109 69.327
L553.37 68.9061
L554.631 68.8347
L555.892 57.6987
L557.153 65.8656
L558.414 68.865
L559.675 69.9026
L560.937 64.0274
L562.198 69.532
L563.459 69.6351
L564.72 62.5132
L565.981 66.8379
L567.242 64.8335
L568.503 62.4383
L569.764 69.1366
L571.025 68.2399
L573.547 68.3382
L574.808 58.6262
L576.069 65.6281
L577.331 69.8161
L578.592 70.0563
L579.853 68.1881
L581.114 68.3325
L583.636 69.4574
L584.897 69.5148
L586.158 66.9888
L587.419 69.7041
L588.68 68.7095
L589.941 69.2076
L591.202 68.3801
L592.464 69.8738
L593.725 69.1829
L594.986 69.0611
L596.247 69.175
L597.508 65.7257
L598.769 68.8882
L600.03 68.453
L601.291 67.6857
L602.552 68.4119
L603.813 61.6084
L605.074 70.2569
L606.335 67.4432
L607.596 68.5539
L608.858 59.6191
L610.119 67.8014
L611.38 63.5473
L612.641 70.2115
L613.902 69.5266
L615.163 63.0263
L616.424 68.7327
L617.685 67.793
L618.946 64.3298
L620.207 67.8621
L621.468 52.4757
L622.729 67.7058
L623.991 62.8394
L625.252 67.6844
L626.513 58.1527
L627.774 67.2346
L629.035 63.239
L630.296 66.5405
L631.557 65.8521
L632.818 63.5049
L634.079 69.4368
L635.34 68.8041
L636.601 61.8745
L637.862 69.4978
L639.123 69.2654
L640.385 69.4019
L641.646 69.9635
L642.907 69.9495
L644.168 69.0045
L645.429 70.0825
L646.69 66.006
L647.951 69.0406
L649.212 68.724
L650.473 66.6342
L651.734 69.5373
L652.995 68.5886
L654.256 69.6545
L655.518 67.2324
L656.779 67.7573
L658.04 69.0115
L659.301 69.6272
L660.562 69.1037
L661.823 67.6711
L663.084 67.9388
L664.345 67.7333
L665.606 66.1746
L666.867 66.7338
L668.128 61.6619
L669.389 66.3818
L670.65 68.622
L671.912 68.5537
L673.173 62.978
L674.434 69.7316
L675.695 67.3538
L676.956 62.2857
L678.217 68.9185
L679.478 67.0942
L680.739 67.9445
L682 68.97
L683.261 61.566
L684.522 69.5484
L685.783 69.305
L687.045 69.7205
L688.306 68.0159
L689.567 69.7356
L690.828 67.6198
L692.089 61.6614
L693.35 68.7879
L694.611 69.4831
L695.872 67.3263
L697.133 67.7918
L698.394 70.4648
L699.655 68.7799
L700.916 55.212
L702.177 68.9285
L703.439 69.5262
L704.7 64.0709
L705.961 65.8266
L707.222 69.0032
L708.483 68.3288
L709.744 70.222
L711.005 63.2944
L712.266 68.1705
L713.527 65.8331
L714.788 66.9523
L716.049 59.9075
L717.31 68.1704
L718.572 68.9794
L719.833 67.9244
L721.094 66.0503
L722.355 68.2513
L723.616 69.4074
L724.877 59.816
L726.138 68.3567
L727.399 69.1714
L728.66 69.3823
L729.921 66.598
L731.182 65.4578
L732.443 56.7657
L733.704 67.3259
L734.966 69.0611
L736.227 62.9549
L737.488 69.5227
L738.749 67.9246
L740.01 69.4892
L741.271 68.2932
L742.532 69.2521
L743.793 66.2001
L746.315 69.0213
L747.576 69.608
L748.837 64.8719
L750.099 68.8977
L751.36 70.1914
L752.621 63.78
L753.882 68.3825
L755.143 66.8074
L756.404 61.6313
L756.404 61.6313" style="fill:none;stroke:#0000ff;"/>
   </g>
   <g id="line2d_2">
    <path clip-path="url(#p72eb20d8cb)" d="
M127.125 331.56
L149.824 331.558
L205.312 331.541
L206.573 304.306
L207.834 303.965
L209.095 303.943
L210.356 304.288
L212.878 303.954
L214.14 304.304
L215.401 303.977
L216.662 304.111
L217.923 303.936
L219.184 303.946
L221.706 304.284
L222.967 304.283
L225.489 303.949
L226.75 304.129
L228.011 304.132
L229.272 303.963
L231.795 304.28
L233.056 303.957
L234.317 304.103
L241.883 304.1
L243.144 304.262
L244.405 304.099
L246.928 304.107
L248.189 304.292
L249.45 303.935
L250.711 303.954
L251.972 304.461
L253.233 304.119
L254.494 304.105
L255.755 303.933
L259.538 303.924
L260.799 304.288
L262.061 304.12
L263.322 304.121
L264.583 303.967
L265.844 303.947
L267.105 304.098
L268.366 304.457
L269.627 303.939
L272.149 303.929
L273.41 304.112
L274.671 303.925
L275.932 304.126
L277.194 303.967
L278.455 304.093
L279.716 303.949
L282.238 303.95
L283.499 304.288
L284.76 303.905
L286.021 303.935
L287.282 304.445
L288.543 303.939
L289.804 304.448
L291.065 304.097
L292.326 303.931
L293.588 303.951
L296.11 304.263
L297.371 303.964
L298.632 304.635
L299.893 303.948
L303.676 303.942
L304.937 304.105
L306.198 303.918
L307.459 303.941
L308.721 304.114
L309.982 303.93
L311.243 303.934
L312.504 304.467
L313.765 304.112
L315.026 303.949
L320.07 303.923
L322.592 304.269
L323.853 304.305
L325.115 303.95
L327.637 304.281
L328.898 303.945
L331.42 303.949
L332.681 304.106
L333.942 303.94
L336.464 303.93
L337.725 304.116
L338.986 304.125
L340.248 303.95
L341.509 304.116
L342.77 303.942
L344.031 303.961
L345.292 304.14
L351.597 303.941
L352.858 303.948
L354.119 304.311
L355.38 303.932
L356.642 303.932
L357.903 304.296
L359.164 303.976
L360.425 304.279
L361.686 304.112
L362.947 304.273
L364.208 304.088
L365.469 304.272
L366.73 303.926
L370.513 303.947
L371.775 304.095
L373.036 303.941
L380.602 303.931
L381.863 304.123
L383.124 304.108
L384.385 303.932
L385.646 304.281
L386.907 304.119
L391.952 303.96
L393.213 304.123
L394.474 304.112
L395.735 303.936
L396.996 304.29
L398.257 303.957
L400.779 303.96
L402.04 304.264
L405.824 303.944
L408.346 303.953
L409.607 304.289
L412.129 303.921
L413.39 304.103
L414.651 303.954
L419.696 303.941
L420.957 304.117
L422.218 303.951
L423.479 304.13
L424.74 303.944
L427.262 303.952
L428.523 304.132
L429.784 303.948
L433.567 303.942
L434.829 304.273
L436.09 303.94
L437.351 304.122
L438.612 303.943
L439.873 304.304
L441.134 303.919
L442.395 304.132
L443.656 303.93
L444.917 303.951
L446.178 304.272
L449.961 303.963
L451.223 304.287
L452.484 304.269
L453.745 303.948
L455.006 303.943
L456.267 304.116
L457.528 303.954
L458.789 304.28
L461.311 303.943
L462.572 304.12
L463.833 304.106
L465.094 303.945
L466.356 303.96
L467.617 304.121
L468.878 304.098
L470.139 303.942
L471.4 303.945
L472.661 304.27
L473.922 304.117
L475.183 304.112
L476.444 303.938
L480.227 304.097
L481.488 304.288
L484.011 303.925
L485.272 303.96
L486.533 304.112
L487.794 304.092
L489.055 303.922
L491.577 303.926
L492.838 304.114
L494.099 303.977
L500.405 303.935
L501.666 304.289
L504.188 303.947
L505.449 304.122
L507.971 304.13
L509.232 303.938
L510.493 303.957
L511.754 304.107
L513.015 304.086
L514.277 304.29
L515.538 304.286
L516.799 304.126
L519.321 304.112
L520.582 303.914
L521.843 304.315
L524.365 303.952
L526.887 303.965
L528.148 304.129
L529.41 303.959
L531.932 304.271
L534.454 303.963
L535.715 303.959
L536.976 304.129
L538.237 303.976
L539.498 304.105
L540.759 303.93
L542.02 303.922
L543.281 304.288
L544.542 303.946
L555.892 303.933
L557.153 304.292
L558.414 303.953
L562.198 303.948
L563.459 303.954
L565.981 304.289
L567.242 303.933
L568.503 304.094
L571.025 303.938
L572.286 304.127
L573.547 304.11
L574.808 303.932
L576.069 304.268
L577.331 303.959
L579.853 303.955
L581.114 304.131
L582.375 303.961
L584.897 303.935
L586.158 304.102
L587.419 303.941
L589.941 303.967
L591.202 304.119
L592.464 303.931
L596.247 303.952
L597.508 304.132
L598.769 303.939
L600.03 304.119
L601.291 304.117
L602.552 303.953
L603.813 304.13
L605.074 303.942
L606.335 304.311
L607.596 303.952
L608.858 304.284
L611.38 303.938
L613.902 303.957
L615.163 304.122
L616.424 303.944
L617.685 304.107
L618.946 303.963
L622.729 304.11
L623.991 303.934
L626.513 304.297
L627.774 303.95
L629.035 303.938
L630.296 304.275
L631.557 304.309
L632.818 303.943
L635.34 303.929
L636.601 304.098
L637.862 303.933
L639.123 303.939
L640.385 304.113
L641.646 303.946
L642.907 303.967
L644.168 304.106
L645.429 303.915
L646.69 304.459
L647.951 303.97
L649.212 304.101
L651.734 303.96
L652.995 304.146
L654.256 303.939
L655.518 304.299
L656.779 303.944
L658.04 304.104
L659.301 303.933
L660.562 303.931
L661.823 304.123
L663.084 304.119
L664.345 304.276
L666.867 304.286
L668.128 304.439
L670.65 303.988
L671.912 304.09
L673.173 303.926
L674.434 303.903
L676.956 304.267
L680.739 303.959
L682 303.949
L683.261 304.114
L684.522 303.924
L687.045 303.987
L688.306 304.137
L689.567 303.935
L690.828 304.29
L693.35 303.942
L694.611 303.918
L695.872 304.114
L697.133 304.111
L698.394 303.961
L699.655 303.967
L700.916 304.121
L702.177 303.945
L703.439 303.957
L704.7 304.45
L705.961 303.934
L709.744 303.955
L711.005 303.936
L712.266 304.117
L713.527 303.968
L714.788 304.135
L716.049 304.441
L717.31 303.959
L718.572 303.93
L719.833 304.121
L722.355 304.111
L723.616 303.952
L724.877 304.135
L726.138 304.11
L727.399 303.951
L729.921 303.956
L731.182 304.446
L734.966 303.969
L736.227 304.122
L737.488 303.94
L738.749 304.114
L740.01 303.958
L741.271 304.129
L742.532 303.932
L743.793 303.933
L745.054 304.258
L746.315 303.929
L747.576 303.95
L748.837 304.118
L750.099 304.102
L751.36 303.948
L752.621 303.95
L753.882 304.104
L755.143 304.108
L756.404 304.28
L756.404 304.28" style="fill:none;stroke:#008000;"/>
   </g>
   <g id="line2d_3">
    <path clip-path="url(#p72eb20d8cb)" d="
M127.125 251.457
L128.386 252.022
L130.908 251.976
L132.169 251.574
L133.43 246.952
L134.691 251.949
L135.953 251.724
L137.214 251.976
L138.475 249.867
L139.736 251.705
L140.997 250.728
L142.258 251.835
L143.519 252.03
L144.78 250.363
L146.041 250.835
L147.302 251.581
L148.563 250.989
L149.824 250.583
L151.086 251.397
L152.347 251.624
L153.608 251.542
L154.869 251.189
L156.13 249.518
L157.391 251.763
L158.652 251.672
L159.913 251.102
L162.435 251.629
L163.696 251.338
L164.957 251.62
L166.218 251.54
L167.48 248.401
L168.741 251.735
L170.002 251.427
L171.263 251.41
L172.524 249.549
L173.785 251.443
L175.046 251.82
L176.307 251.773
L177.568 251.153
L178.829 251.851
L180.09 249.734
L181.351 251.44
L182.613 248.279
L183.874 251.68
L185.135 251.277
L186.396 250.404
L187.657 251.598
L188.918 249.821
L190.179 251.484
L191.44 251.523
L192.701 250.282
L193.962 251.54
L195.223 251.207
L196.484 246.429
L197.745 251.814
L199.007 251.351
L200.268 251.384
L201.529 251.827
L204.051 251.61
L205.312 247.998
L206.573 216.012
L207.834 218.53
L209.095 217.789
L210.356 215.816
L211.617 217.526
L212.878 218.643
L214.14 215.833
L215.401 218.488
L216.662 217.142
L217.923 218.552
L219.184 215.514
L220.445 217.599
L221.706 216.147
L222.967 216.411
L224.228 215.826
L225.489 218.682
L226.75 217.08
L228.011 215.719
L229.272 218.628
L230.534 215.842
L231.795 216.564
L233.056 218.478
L234.317 217.398
L235.578 217.827
L236.839 215.735
L238.1 216.611
L239.361 216.956
L240.622 216.038
L241.883 217.355
L243.144 216.137
L244.405 211.006
L245.667 217.084
L246.928 214.851
L249.45 217.764
L250.711 217.609
L251.972 215.078
L253.233 217.288
L254.494 214.955
L255.755 218.781
L257.016 218.451
L258.277 218.609
L259.538 216.931
L260.799 215.482
L262.061 217.387
L263.322 217.492
L264.583 218.523
L265.844 218.475
L267.105 212.054
L269.627 218.336
L270.888 218.669
L272.149 218.377
L273.41 217.128
L274.671 218.55
L275.932 214.06
L277.194 218.359
L278.455 217.356
L279.716 217.686
L280.977 218.253
L282.238 213.581
L283.499 215.479
L284.76 218.621
L286.021 218.435
L287.282 212.909
L288.543 218.422
L289.804 213.802
L291.065 217.58
L292.326 218.459
L293.588 216.245
L294.849 213.486
L296.11 216.403
L297.371 216.327
L298.632 214.133
L299.893 218.637
L301.154 218.304
L302.415 218.402
L303.676 218.352
L304.937 212.623
L306.198 218.746
L307.459 216.485
L308.721 217.359
L309.982 218.464
L311.243 215.762
L312.504 214.966
L313.765 217.511
L315.026 213.712
L316.287 218.019
L318.809 218.332
L320.07 218.39
L321.331 214.305
L322.592 216.358
L323.853 215.964
L325.115 214.353
L326.376 217.594
L327.637 216.291
L328.898 216.684
L330.159 216.788
L331.42 218.691
L332.681 216.879
L333.942 213.548
L335.203 216.061
L336.464 218.22
L337.725 217.297
L338.986 213.59
L340.248 218.657
L341.509 216.864
L342.77 218.047
L344.031 218.582
L345.292 217.022
L346.553 217.722
L347.814 217.607
L349.075 215.368
L350.336 218.69
L351.597 218.273
L352.858 215.496
L354.119 213.809
L355.38 218.627
L356.642 218.748
L357.903 215.87
L359.164 218.297
L360.425 213.109
L361.686 217.551
L362.947 216.559
L364.208 212.029
L365.469 216.19
L366.73 218.179
L367.991 218.749
L369.252 218.241
L370.513 214.583
L371.775 217.532
L373.036 218.446
L374.297 217.982
L375.558 218.263
L376.819 218.321
L378.08 218.18
L379.341 214.291
L380.602 218.609
L381.863 217.003
L383.124 217.632
L384.385 217.046
L385.646 216.255
L386.907 215.123
L388.169 217.625
L389.43 217.222
L390.691 217.321
L391.952 214.567
L393.213 217.289
L394.474 213.906
L395.735 218.552
L396.996 216.335
L398.257 218.506
L399.518 212.748
L400.779 217.968
L402.04 216.257
L403.302 216.953
L404.563 215.999
L405.824 218.467
L407.085 218.523
L408.346 217.038
L409.607 216.412
L410.868 217.099
L412.129 218.336
L413.39 216.75
L414.651 214.429
L415.912 218.439
L417.173 218.763
L418.434 218.338
L419.696 218.281
L420.957 217.204
L422.218 218.364
L423.479 217.207
L424.74 218.758
L426.001 217.822
L427.262 218.578
L428.523 213.887
L429.784 218.737
L431.045 214.55
L432.306 218.463
L433.567 218.338
L434.829 214.017
L436.09 218.028
L437.351 217.598
L438.612 218.516
L439.873 216.246
L441.134 218.53
L442.395 217.325
L443.656 218.592
L444.917 218.33
L446.178 216.282
L447.439 217.506
L448.7 217.488
L449.961 218.438
L451.223 216.478
L452.484 216.314
L453.745 212.067
L455.006 218.65
L456.267 217.13
L457.528 217.334
L458.789 216.138
L460.05 217.138
L461.311 218.556
L462.572 217.416
L463.833 216.929
L465.094 218.501
L466.356 218.561
L467.617 215.732
L468.878 217.432
L470.139 218.781
L471.4 217.083
L472.661 215.818
L473.922 217.5
L475.183 213.601
L476.444 218.724
L477.705 218.26
L478.966 217.054
L480.227 217.095
L481.488 216.126
L482.75 217.809
L484.011 218.217
L485.272 218.456
L486.533 217.573
L487.794 217.596
L489.055 218.211
L490.316 212.886
L491.577 217.163
L492.838 217.482
L494.099 215.945
L495.36 218.722
L496.621 213.309
L497.883 218.309
L499.144 218.675
L500.405 218.6
L501.666 215.401
L502.927 216.317
L504.188 218.487
L505.449 217.356
L506.71 217.475
L507.971 217.248
L509.232 218.483
L510.493 218.401
L511.754 215.094
L513.015 217.486
L514.277 215.901
L515.538 216.189
L516.799 217.286
L518.06 212.968
L519.321 217.387
L520.582 218.28
L521.843 216.088
L524.365 218.305
L525.626 218.043
L526.887 218.608
L528.148 217.395
L529.41 218.561
L530.671 217.217
L531.932 216.413
L533.193 217.095
L534.454 218.457
L535.715 218.251
L536.976 217.264
L538.237 218.541
L539.498 216.536
L540.759 218.277
L542.02 218.679
L543.281 210.298
L544.542 218.666
L545.804 218.585
L547.065 218.253
L548.326 216.139
L549.587 217.901
L552.109 218.782
L554.631 218.13
L555.892 212.84
L557.153 216.123
L558.414 218.242
L559.675 218.412
L560.937 216.585
L562.198 218.505
L563.459 218.363
L564.72 215.565
L565.981 216.372
L567.242 216.509
L568.503 214.319
L569.764 218.513
L571.025 218.463
L572.286 217.254
L573.547 217.295
L574.808 213.624
L576.069 216.412
L577.331 218.403
L578.592 218.712
L579.853 218.063
L581.114 216.999
L582.375 218.039
L584.897 218.53
L586.158 216.133
L587.419 218.722
L588.68 218.065
L589.941 218.229
L591.202 217.563
L592.464 218.293
L593.725 218.413
L594.986 218.29
L596.247 218.519
L597.508 216.194
L598.769 217.487
L600.03 217.496
L601.291 217.149
L602.552 218.482
L603.813 213.833
L605.074 218.571
L606.335 215.921
L607.596 217.746
L608.858 213.279
L610.119 217.232
L611.38 216.39
L612.641 218.637
L613.902 218.492
L615.163 215.066
L616.424 218.117
L618.946 216.247
L620.207 218.14
L621.468 210.864
L622.729 217.433
L623.991 215.84
L625.252 217.48
L626.513 211.907
L627.774 218.243
L629.035 215.962
L630.296 216.526
L631.557 216.078
L632.818 216.725
L634.079 218.716
L635.34 218.118
L636.601 214.656
L637.862 218.291
L639.123 218.219
L640.385 217.347
L641.646 218.451
L642.907 218.414
L644.168 217.466
L645.429 218.861
L646.69 215.026
L647.951 217.933
L649.212 217.052
L650.473 217.601
L651.734 218.576
L652.995 217.052
L654.256 218.552
L655.518 216.502
L656.779 217.693
L658.04 217.599
L659.301 218.299
L660.562 218.581
L661.823 217.447
L663.084 217.428
L664.345 216.286
L665.606 215.763
L666.867 216.282
L668.128 213.194
L669.389 216.292
L670.65 218.191
L671.912 217.581
L673.173 215.364
L674.434 218.326
L675.695 216.651
L676.956 214.027
L678.217 217.556
L680.739 217.831
L682 218.205
L683.261 214.641
L684.522 218.348
L685.783 218.567
L687.045 218.318
L688.306 216.986
L689.567 218.558
L690.828 216.293
L692.089 214.694
L693.35 218.259
L694.611 218.688
L695.872 217.37
L697.133 217.186
L698.394 218.323
L699.655 218.452
L700.916 211.985
L702.177 218.642
L703.439 218.186
L704.7 214.358
L705.961 216.837
L707.222 218.33
L709.744 218.487
L711.005 216.392
L712.266 216.911
L713.527 217.107
L714.788 217.537
L716.049 212.643
L717.31 218.235
L718.572 218.419
L719.833 217.594
L721.094 216.189
L722.355 217.458
L723.616 218.421
L724.877 213.435
L726.138 217.296
L727.399 218.629
L728.66 218.563
L729.921 217.192
L731.182 215.173
L732.443 211.635
L733.704 216.915
L734.966 218.238
L736.227 215.122
L737.488 218.477
L738.749 217.317
L740.01 218.545
L741.271 217.441
L742.532 218.449
L743.793 216.508
L745.054 216.459
L746.315 218.333
L747.576 218.493
L748.837 215.839
L750.099 217.645
L751.36 218.398
L752.621 215.789
L753.882 217.738
L755.143 217.42
L756.404 213.881
L756.404 213.881" style="fill:none;stroke:#ff0000;"/>
   </g>
   <g id="line2d_4">
    <path clip-path="url(#p72eb20d8cb)" d="
M127.125 331.685
L293.588 331.673
L297.371 331.671
L303.676 331.686
L304.937 331.626
L307.459 331.675
L313.765 331.686
L315.026 331.626
L317.548 331.681
L413.39 331.682
L415.912 331.681
L429.784 331.692
L434.829 331.665
L441.134 331.687
L486.533 331.68
L492.838 331.686
L496.621 331.648
L500.405 331.677
L516.799 331.685
L519.321 331.693
L540.759 331.68
L552.109 331.689
L564.72 331.669
L571.025 331.685
L676.956 331.677
L687.045 331.689
L694.611 331.684
L756.404 331.666
L756.404 331.666" style="fill:none;stroke:#00bfbf;"/>
   </g>
   <g id="line2d_5">
    <path clip-path="url(#p72eb20d8cb)" d="
M127.125 332.099
L196.484 332.051
L200.268 332.099
L355.38 332.094
L369.252 332.086
L370.513 331.992
L373.036 332.098
L398.257 332.098
L399.518 331.995
L402.04 332.097
L452.484 332.098
L453.745 332.013
L456.267 332.098
L458.789 332.099
L489.055 332.097
L490.316 331.981
L492.838 332.098
L496.621 332.045
L500.405 332.098
L509.232 332.099
L529.41 332.097
L573.547 332.096
L574.808 332.006
L577.331 332.099
L640.385 332.098
L699.655 332.094
L700.916 331.998
L703.439 332.098
L708.483 332.098
L723.616 332.098
L724.877 331.99
L727.399 332.097
L731.182 332.098
L732.443 331.987
L734.966 332.098
L737.488 332.099
L756.404 332.068
L756.404 332.068" style="fill:none;stroke:#bf00bf;"/>
   </g>
   <g id="matplotlib.axis_1">
    <g id="xtick_1">
     <g id="line2d_6">
      <path clip-path="url(#p72eb20d8cb)" d="
M127.125 332.1
L127.125 36.9" style="fill:none;stroke:#000000;stroke-dasharray:1.000000,3.000000;stroke-dashoffset:0.0;stroke-linecap:butt;stroke-width:0.5;"/>
     </g>
     <g id="line2d_7">
      <defs>
       <path d="
M0 0
L0 -4" id="m0012dd4eef" style="stroke:#000000;stroke-linecap:butt;stroke-width:0.5;"/>
      </defs>
      <g>
       <use style="stroke:#000000;stroke-linecap:butt;stroke-width:0.5;" x="127.125" xlink:href="#m0012dd4eef" y="332.1"/>
      </g>
     </g>
     <g id="line2d_8">
      <defs>
       <path d="
M0 0
L0 4" id="m476344969c" style="stroke:#000000;stroke-linecap:butt;stroke-width:0.5;"/>
      </defs>
      <g>
       <use style="stroke:#000000;stroke-linecap:butt;stroke-width:0.5;" x="127.125" xlink:href="#m476344969c" y="36.9"/>
      </g>
     </g>
     <g id="text_1">
      <!-- 0 -->
      <defs>
       <path d="
M31.7812 66.4062
Q24.1719 66.4062 20.3281 58.9062
Q16.5 51.4219 16.5 36.375
Q16.5 21.3906 20.3281 13.8906
Q24.1719 6.39062 31.7812 6.39062
Q39.4531 6.39062 43.2812 13.8906
Q47.125 21.3906 47.125 36.375
Q47.125 51.4219 43.2812 58.9062
Q39.4531 66.4062 31.7812 66.4062
M31.7812 74.2188
Q44.0469 74.2188 50.5156 64.5156
Q56.9844 54.8281 56.9844 36.375
Q56.9844 17.9688 50.5156 8.26562
Q44.0469 -1.42188 31.7812 -1.42188
Q19.5312 -1.42188 13.0625 8.26562
Q6.59375 17.9688 6.59375 36.375
Q6.59375 54.8281 13.0625 64.5156
Q19.5312 74.2188 31.7812 74.2188" id="DejaVuSans-30"/>
      </defs>
      <g transform="translate(124.1015625 345.00625)scale(0.12 -0.12)">
       <use xlink:href="#DejaVuSans-30"/>
      </g>
     </g>
    </g>
    <g id="xtick_2">
     <g id="line2d_9">
      <path clip-path="url(#p72eb20d8cb)" d="
M253.233 332.1
L253.233 36.9" style="fill:none;stroke:#000000;stroke-dasharray:1.000000,3.000000;stroke-dashoffset:0.0;stroke-linecap:butt;stroke-width:0.5;"/>
     </g>
     <g id="line2d_10">
      <g>
       <use style="stroke:#000000;stroke-linecap:butt;stroke-width:0.5;" x="253.233" xlink:href="#m0012dd4eef" y="332.1"/>
      </g>
     </g>
     <g id="line2d_11">
      <g>
       <use style="stroke:#000000;stroke-linecap:butt;stroke-width:0.5;" x="253.233" xlink:href="#m476344969c" y="36.9"/>
      </g>
     </g>
     <g id="text_2">
      <!-- 100 -->
      <defs>
       <path d="
M12.4062 8.29688
L28.5156 8.29688
L28.5156 63.9219
L10.9844 60.4062
L10.9844 69.3906
L28.4219 72.9062
L38.2812 72.9062
L38.2812 8.29688
L54.3906 8.29688
L54.3906 0
L12.4062 0
z
" id="DejaVuSans-31"/>
      </defs>
      <g transform="translate(242.838 345.00625)scale(0.12 -0.12)">
       <use xlink:href="#DejaVuSans-31"/>
       <use x="63.623046875" xlink:href="#DejaVuSans-30"/>
       <use x="127.24609375" xlink:href="#DejaVuSans-30"/>
      </g>
     </g>
    </g>
    <g id="xtick_3">
     <g id="line2d_12">
      <path clip-path="url(#p72eb20d8cb)" d="
M379.341 332.1
L379.341 36.9" style="fill:none;stroke:#000000;stroke-dasharray:1.000000,3.000000;stroke-dashoffset:0.0;stroke-linecap:butt;stroke-width:0.5;"/>
     </g>
     <g id="line2d_13">
      <g>
       <use style="stroke:#000000;stroke-linecap:butt;stroke-width:0.5;" x="379.341" xlink:href="#m0012dd4eef" y="332.1"/>
      </g>
     </g>
     <g id="line2d_14">
      <g>
       <use style="stroke:#000000;stroke-linecap:butt;stroke-width:0.5;" x="379.341" xlink:href="#m476344969c" y="36.9"/>
      </g>
     </g>
     <g id="text_3">
      <!-- 200 -->
      <defs>
       <path d="
M19.1875 8.29688
L53.6094 8.29688
L53.6094 0
L7.32812 0
L7.32812 8.29688
Q12.9375 14.1094 22.625 23.8906
Q32.3281 33.6875 34.8125 36.5312
Q39.5469 41.8438 41.4219 45.5312
Q43.3125 49.2188 43.3125 52.7812
Q43.3125 58.5938 39.2344 62.25
Q35.1562 65.9219 28.6094 65.9219
Q23.9688 65.9219 18.8125 64.3125
Q13.6719 62.7031 7.8125 59.4219
L7.8125 69.3906
Q13.7656 71.7812 18.9375 73
Q24.125 74.2188 28.4219 74.2188
Q39.75 74.2188 46.4844 68.5469
Q53.2188 62.8906 53.2188 53.4219
Q53.2188 48.9219 51.5312 44.8906
Q49.8594 40.875 45.4062 35.4062
Q44.1875 33.9844 37.6406 27.2188
Q31.1094 20.4531 19.1875 8.29688" id="DejaVuSans-32"/>
      </defs>
      <g transform="translate(368.726625 345.00625)scale(0.12 -0.12)">
       <use xlink:href="#DejaVuSans-32"/>
       <use x="63.623046875" xlink:href="#DejaVuSans-30"/>
       <use x="127.24609375" xlink:href="#DejaVuSans-30"/>
      </g>
     </g>
    </g>
    <g id="xtick_4">
     <g id="line2d_15">
      <path clip-path="url(#p72eb20d8cb)" d="
M505.449 332.1
L505.449 36.9" style="fill:none;stroke:#000000;stroke-dasharray:1.000000,3.000000;stroke-dashoffset:0.0;stroke-linecap:butt;stroke-width:0.5;"/>
     </g>
     <g id="line2d_16">
      <g>
       <use style="stroke:#000000;stroke-linecap:butt;stroke-width:0.5;" x="505.449" xlink:href="#m0012dd4eef" y="332.1"/>
      </g>
     </g>
     <g id="line2d_17">
      <g>
       <use style="stroke:#000000;stroke-linecap:butt;stroke-width:0.5;" x="505.449" xlink:href="#m476344969c" y="36.9"/>
      </g>
     </g>
     <g id="text_4">
      <!-- 300 -->
      <defs>
       <path d="
M40.5781 39.3125
Q47.6562 37.7969 51.625 33
Q55.6094 28.2188 55.6094 21.1875
Q55.6094 10.4062 48.1875 4.48438
Q40.7656 -1.42188 27.0938 -1.42188
Q22.5156 -1.42188 17.6562 -0.515625
Q12.7969 0.390625 7.625 2.20312
L7.625 11.7188
Q11.7188 9.32812 16.5938 8.10938
Q21.4844 6.89062 26.8125 6.89062
Q36.0781 6.89062 40.9375 10.5469
Q45.7969 14.2031 45.7969 21.1875
Q45.7969 27.6406 41.2812 31.2656
Q36.7656 34.9062 28.7188 34.9062
L20.2188 34.9062
L20.2188 43.0156
L29.1094 43.0156
Q36.375 43.0156 40.2344 45.9219
Q44.0938 48.8281 44.0938 54.2969
Q44.0938 59.9062 40.1094 62.9062
Q36.1406 65.9219 28.7188 65.9219
Q24.6562 65.9219 20.0156 65.0312
Q15.375 64.1562 9.8125 62.3125
L9.8125 71.0938
Q15.4375 72.6562 20.3438 73.4375
Q25.25 74.2188 29.5938 74.2188
Q40.8281 74.2188 47.3594 69.1094
Q53.9062 64.0156 53.9062 55.3281
Q53.9062 49.2656 50.4375 45.0938
Q46.9688 40.9219 40.5781 39.3125" id="DejaVuSans-33"/>
      </defs>
      <g transform="translate(494.8524375 345.00625)scale(0.12 -0.12)">
       <use xlink:href="#DejaVuSans-33"/>
       <use x="63.623046875" xlink:href="#DejaVuSans-30"/>
       <use x="127.24609375" xlink:href="#DejaVuSans-30"/>
      </g>
     </g>
    </g>
    <g id="xtick_5">
     <g id="line2d_18">
      <path clip-path="url(#p72eb20d8cb)" d="
M631.557 332.1
L631.557 36.9" style="fill:none;stroke:#000000;stroke-dasharray:1.000000,3.000000;stroke-dashoffset:0.0;stroke-linecap:butt;stroke-width:0.5;"/>
     </g>
     <g id="line2d_19">
      <g>
       <use style="stroke:#000000;stroke-linecap:butt;stroke-width:0.5;" x="631.557" xlink:href="#m0012dd4eef" y="332.1"/>
      </g>
     </g>
     <g id="line2d_20">
      <g>
       <use style="stroke:#000000;stroke-linecap:butt;stroke-width:0.5;" x="631.557" xlink:href="#m476344969c" y="36.9"/>
      </g>
     </g>
     <g id="text_5">
      <!-- 400 -->
      <defs>
       <path d="
M37.7969 64.3125
L12.8906 25.3906
L37.7969 25.3906
z

M35.2031 72.9062
L47.6094 72.9062
L47.6094 25.3906
L58.0156 25.3906
L58.0156 17.1875
L47.6094 17.1875
L47.6094 0
L37.7969 0
L37.7969 17.1875
L4.89062 17.1875
L4.89062 26.7031
z
" id="DejaVuSans-34"/>
      </defs>
      <g transform="translate(620.796375 345.00625)scale(0.12 -0.12)">
       <use xlink:href="#DejaVuSans-34"/>
       <use x="63.623046875" xlink:href="#DejaVuSans-30"/>
       <use x="127.24609375" xlink:href="#DejaVuSans-30"/>
      </g>
     </g>
    </g>
    <g id="xtick_6">
     <g id="line2d_21">
      <path clip-path="url(#p72eb20d8cb)" d="
M757.665 332.1
L757.665 36.9" style="fill:none;stroke:#000000;stroke-dasharray:1.000000,3.000000;stroke-dashoffset:0.0;stroke-linecap:butt;stroke-width:0.5;"/>
     </g>
     <g id="line2d_22">
      <g>
       <use style="stroke:#000000;stroke-linecap:butt;stroke-width:0.5;" x="757.665" xlink:href="#m0012dd4eef" y="332.1"/>
      </g>
     </g>
     <g id="line2d_23">
      <g>
       <use style="stroke:#000000;stroke-linecap:butt;stroke-width:0.5;" x="757.665" xlink:href="#m476344969c" y="36.9"/>
      </g>
     </g>
     <g id="text_6">
      <!-- 500 -->
      <defs>
       <path d="
M10.7969 72.9062
L49.5156 72.9062
L49.5156 64.5938
L19.8281 64.5938
L19.8281 46.7344
Q21.9688 47.4688 24.1094 47.8281
Q26.2656 48.1875 28.4219 48.1875
Q40.625 48.1875 47.75 41.5
Q54.8906 34.8125 54.8906 23.3906
Q54.8906 11.625 47.5625 5.09375
Q40.2344 -1.42188 26.9062 -1.42188
Q22.3125 -1.42188 17.5469 -0.640625
Q12.7969 0.140625 7.71875 1.70312
L7.71875 11.625
Q12.1094 9.23438 16.7969 8.0625
Q21.4844 6.89062 26.7031 6.89062
Q35.1562 6.89062 40.0781 11.3281
Q45.0156 15.7656 45.0156 23.3906
Q45.0156 31 40.0781 35.4375
Q35.1562 39.8906 26.7031 39.8906
Q22.75 39.8906 18.8125 39.0156
Q14.8906 38.1406 10.7969 36.2812
z
" id="DejaVuSans-35"/>
      </defs>
      <g transform="translate(747.0740625 345.00625)scale(0.12 -0.12)">
       <use xlink:href="#DejaVuSans-35"/>
       <use x="63.623046875" xlink:href="#DejaVuSans-30"/>
       <use x="127.24609375" xlink:href="#DejaVuSans-30"/>
      </g>
     </g>
    </g>
   </g>
   <g id="matplotlib.axis_2">
    <g id="ytick_1">
     <g id="line2d_24">
      <path clip-path="url(#p72eb20d8cb)" d="
M127.125 332.1
L757.665 332.1" style="fill:none;stroke:#000000;stroke-dasharray:1.000000,3.000000;stroke-dashoffset:0.0;stroke-linecap:butt;stroke-width:0.5;"/>
     </g>
     <g id="line2d_25">
      <defs>
       <path d="
M0 0
L4 0" id="me8a85f7bf6" style="stroke:#000000;stroke-linecap:butt;stroke-width:0.5;"/>
      </defs>
      <g>
       <use style="stroke:#000000;stroke-linecap:butt;stroke-width:0.5;" x="127.125" xlink:href="#me8a85f7bf6" y="332.1"/>
      </g>
     </g>
     <g id="line2d_26">
      <defs>
       <path d="
M0 0
L-4 0" id="m1a32005dea" style="stroke:#000000;stroke-linecap:butt;stroke-width:0.5;"/>
      </defs>
      <g>
       <use style="stroke:#000000;stroke-linecap:butt;stroke-width:0.5;" x="757.665" xlink:href="#m1a32005dea" y="332.1"/>
      </g>
     </g>
     <g id="text_7">
      <!-- 0 -->
      <g transform="translate(117.078125 336.4678125)scale(0.12 -0.12)">
       <use xlink:href="#DejaVuSans-30"/>
      </g>
     </g>
    </g>
    <g id="ytick_2">
     <g id="line2d_27">
      <path clip-path="url(#p72eb20d8cb)" d="
M127.125 295.2
L757.665 295.2" style="fill:none;stroke:#000000;stroke-dasharray:1.000000,3.000000;stroke-dashoffset:0.0;stroke-linecap:butt;stroke-width:0.5;"/>
     </g>
     <g id="line2d_28">
      <g>
       <use style="stroke:#000000;stroke-linecap:butt;stroke-width:0.5;" x="127.125" xlink:href="#me8a85f7bf6" y="295.2"/>
      </g>
     </g>
     <g id="line2d_29">
      <g>
       <use style="stroke:#000000;stroke-linecap:butt;stroke-width:0.5;" x="757.665" xlink:href="#m1a32005dea" y="295.2"/>
      </g>
     </g>
     <g id="text_8">
      <!-- 200000 -->
      <g transform="translate(78.99125 299.5678125)scale(0.12 -0.12)">
       <use xlink:href="#DejaVuSans-32"/>
       <use x="63.623046875" xlink:href="#DejaVuSans-30"/>
       <use x="127.24609375" xlink:href="#DejaVuSans-30"/>
       <use x="190.869140625" xlink:href="#DejaVuSans-30"/>
       <use x="254.4921875" xlink:href="#DejaVuSans-30"/>
       <use x="318.115234375" xlink:href="#DejaVuSans-30"/>
      </g>
     </g>
    </g>
    <g id="ytick_3">
     <g id="line2d_30">
      <path clip-path="url(#p72eb20d8cb)" d="
M127.125 258.3
L757.665 258.3" style="fill:none;stroke:#000000;stroke-dasharray:1.000000,3.000000;stroke-dashoffset:0.0;stroke-linecap:butt;stroke-width:0.5;"/>
     </g>
     <g id="line2d_31">
      <g>
       <use style="stroke:#000000;stroke-linecap:butt;stroke-width:0.5;" x="127.125" xlink:href="#me8a85f7bf6" y="258.3"/>
      </g>
     </g>
     <g id="line2d_32">
      <g>
       <use style="stroke:#000000;stroke-linecap:butt;stroke-width:0.5;" x="757.665" xlink:href="#m1a32005dea" y="258.3"/>
      </g>
     </g>
     <g id="text_9">
      <!-- 400000 -->
      <g transform="translate(78.69875 262.6678125)scale(0.12 -0.12)">
       <use xlink:href="#DejaVuSans-34"/>
       <use x="63.623046875" xlink:href="#DejaVuSans-30"/>
       <use x="127.24609375" xlink:href="#DejaVuSans-30"/>
       <use x="190.869140625" xlink:href="#DejaVuSans-30"/>
       <use x="254.4921875" xlink:href="#DejaVuSans-30"/>
       <use x="318.115234375" xlink:href="#DejaVuSans-30"/>
      </g>
     </g>
    </g>
    <g id="ytick_4">
     <g id="line2d_33">
      <path clip-path="url(#p72eb20d8cb)" d="
M127.125 221.4
L757.665 221.4" style="fill:none;stroke:#000000;stroke-dasharray:1.000000,3.000000;stroke-dashoffset:0.0;stroke-linecap:butt;stroke-width:0.5;"/>
     </g>
     <g id="line2d_34">
      <g>
       <use style="stroke:#000000;stroke-linecap:butt;stroke-width:0.5;" x="127.125" xlink:href="#me8a85f7bf6" y="221.4"/>
      </g>
     </g>
     <g id="line2d_35">
      <g>
       <use style="stroke:#000000;stroke-linecap:butt;stroke-width:0.5;" x="757.665" xlink:href="#m1a32005dea" y="221.4"/>
      </g>
     </g>
     <g id="text_10">
      <!-- 600000 -->
      <defs>
       <path d="
M33.0156 40.375
Q26.375 40.375 22.4844 35.8281
Q18.6094 31.2969 18.6094 23.3906
Q18.6094 15.5312 22.4844 10.9531
Q26.375 6.39062 33.0156 6.39062
Q39.6562 6.39062 43.5312 10.9531
Q47.4062 15.5312 47.4062 23.3906
Q47.4062 31.2969 43.5312 35.8281
Q39.6562 40.375 33.0156 40.375
M52.5938 71.2969
L52.5938 62.3125
Q48.875 64.0625 45.0938 64.9844
Q41.3125 65.9219 37.5938 65.9219
Q27.8281 65.9219 22.6719 59.3281
Q17.5312 52.7344 16.7969 39.4062
Q19.6719 43.6562 24.0156 45.9219
Q28.375 48.1875 33.5938 48.1875
Q44.5781 48.1875 50.9531 41.5156
Q57.3281 34.8594 57.3281 23.3906
Q57.3281 12.1562 50.6875 5.35938
Q44.0469 -1.42188 33.0156 -1.42188
Q20.3594 -1.42188 13.6719 8.26562
Q6.98438 17.9688 6.98438 36.375
Q6.98438 53.6562 15.1875 63.9375
Q23.3906 74.2188 37.2031 74.2188
Q40.9219 74.2188 44.7031 73.4844
Q48.4844 72.75 52.5938 71.2969" id="DejaVuSans-36"/>
      </defs>
      <g transform="translate(78.95 225.7678125)scale(0.12 -0.12)">
       <use xlink:href="#DejaVuSans-36"/>
       <use x="63.623046875" xlink:href="#DejaVuSans-30"/>
       <use x="127.24609375" xlink:href="#DejaVuSans-30"/>
       <use x="190.869140625" xlink:href="#DejaVuSans-30"/>
       <use x="254.4921875" xlink:href="#DejaVuSans-30"/>
       <use x="318.115234375" xlink:href="#DejaVuSans-30"/>
      </g>
     </g>
    </g>
    <g id="ytick_5">
     <g id="line2d_36">
      <path clip-path="url(#p72eb20d8cb)" d="
M127.125 184.5
L757.665 184.5" style="fill:none;stroke:#000000;stroke-dasharray:1.000000,3.000000;stroke-dashoffset:0.0;stroke-linecap:butt;stroke-width:0.5;"/>
     </g>
     <g id="line2d_37">
      <g>
       <use style="stroke:#000000;stroke-linecap:butt;stroke-width:0.5;" x="127.125" xlink:href="#me8a85f7bf6" y="184.5"/>
      </g>
     </g>
     <g id="line2d_38">
      <g>
       <use style="stroke:#000000;stroke-linecap:butt;stroke-width:0.5;" x="757.665" xlink:href="#m1a32005dea" y="184.5"/>
      </g>
     </g>
     <g id="text_11">
      <!-- 800000 -->
      <defs>
       <path d="
M31.7812 34.625
Q24.75 34.625 20.7188 30.8594
Q16.7031 27.0938 16.7031 20.5156
Q16.7031 13.9219 20.7188 10.1562
Q24.75 6.39062 31.7812 6.39062
Q38.8125 6.39062 42.8594 10.1719
Q46.9219 13.9688 46.9219 20.5156
Q46.9219 27.0938 42.8906 30.8594
Q38.875 34.625 31.7812 34.625
M21.9219 38.8125
Q15.5781 40.375 12.0312 44.7188
Q8.5 49.0781 8.5 55.3281
Q8.5 64.0625 14.7188 69.1406
Q20.9531 74.2188 31.7812 74.2188
Q42.6719 74.2188 48.875 69.1406
Q55.0781 64.0625 55.0781 55.3281
Q55.0781 49.0781 51.5312 44.7188
Q48 40.375 41.7031 38.8125
Q48.8281 37.1562 52.7969 32.3125
Q56.7812 27.4844 56.7812 20.5156
Q56.7812 9.90625 50.3125 4.23438
Q43.8438 -1.42188 31.7812 -1.42188
Q19.7344 -1.42188 13.25 4.23438
Q6.78125 9.90625 6.78125 20.5156
Q6.78125 27.4844 10.7812 32.3125
Q14.7969 37.1562 21.9219 38.8125
M18.3125 54.3906
Q18.3125 48.7344 21.8438 45.5625
Q25.3906 42.3906 31.7812 42.3906
Q38.1406 42.3906 41.7188 45.5625
Q45.3125 48.7344 45.3125 54.3906
Q45.3125 60.0625 41.7188 63.2344
Q38.1406 66.4062 31.7812 66.4062
Q25.3906 66.4062 21.8438 63.2344
Q18.3125 60.0625 18.3125 54.3906" id="DejaVuSans-38"/>
      </defs>
      <g transform="translate(78.925625 188.8678125)scale(0.12 -0.12)">
       <use xlink:href="#DejaVuSans-38"/>
       <use x="63.623046875" xlink:href="#DejaVuSans-30"/>
       <use x="127.24609375" xlink:href="#DejaVuSans-30"/>
       <use x="190.869140625" xlink:href="#DejaVuSans-30"/>
       <use x="254.4921875" xlink:href="#DejaVuSans-30"/>
       <use x="318.115234375" xlink:href="#DejaVuSans-30"/>
      </g>
     </g>
    </g>
    <g id="ytick_6">
     <g id="line2d_39">
      <path clip-path="url(#p72eb20d8cb)" d="
M127.125 147.6
L757.665 147.6" style="fill:none;stroke:#000000;stroke-dasharray:1.000000,3.000000;stroke-dashoffset:0.0;stroke-linecap:butt;stroke-width:0.5;"/>
     </g>
     <g id="line2d_40">
      <g>
       <use style="stroke:#000000;stroke-linecap:butt;stroke-width:0.5;" x="127.125" xlink:href="#me8a85f7bf6" y="147.6"/>
      </g>
     </g>
     <g id="line2d_41">
      <g>
       <use style="stroke:#000000;stroke-linecap:butt;stroke-width:0.5;" x="757.665" xlink:href="#m1a32005dea" y="147.6"/>
      </g>
     </g>
     <g id="text_12">
      <!-- 1000000 -->
      <g transform="translate(71.795 151.9678125)scale(0.12 -0.12)">
       <use xlink:href="#DejaVuSans-31"/>
       <use x="63.623046875" xlink:href="#DejaVuSans-30"/>
       <use x="127.24609375" xlink:href="#DejaVuSans-30"/>
       <use x="190.869140625" xlink:href="#DejaVuSans-30"/>
       <use x="254.4921875" xlink:href="#DejaVuSans-30"/>
       <use x="318.115234375" xlink:href="#DejaVuSans-30"/>
       <use x="381.73828125" xlink:href="#DejaVuSans-30"/>
      </g>
     </g>
    </g>
    <g id="ytick_7">
     <g id="line2d_42">
      <path clip-path="url(#p72eb20d8cb)" d="
M127.125 110.7
L757.665 110.7" style="fill:none;stroke:#000000;stroke-dasharray:1.000000,3.000000;stroke-dashoffset:0.0;stroke-linecap:butt;stroke-width:0.5;"/>
     </g>
     <g id="line2d_43">
      <g>
       <use style="stroke:#000000;stroke-linecap:butt;stroke-width:0.5;" x="127.125" xlink:href="#me8a85f7bf6" y="110.7"/>
      </g>
     </g>
     <g id="line2d_44">
      <g>
       <use style="stroke:#000000;stroke-linecap:butt;stroke-width:0.5;" x="757.665" xlink:href="#m1a32005dea" y="110.7"/>
      </g>
     </g>
     <g id="text_13">
      <!-- 1200000 -->
      <g transform="translate(71.795 115.0678125)scale(0.12 -0.12)">
       <use xlink:href="#DejaVuSans-31"/>
       <use x="63.623046875" xlink:href="#DejaVuSans-32"/>
       <use x="127.24609375" xlink:href="#DejaVuSans-30"/>
       <use x="190.869140625" xlink:href="#DejaVuSans-30"/>
       <use x="254.4921875" xlink:href="#DejaVuSans-30"/>
       <use x="318.115234375" xlink:href="#DejaVuSans-30"/>
       <use x="381.73828125" xlink:href="#DejaVuSans-30"/>
      </g>
     </g>
    </g>
    <g id="ytick_8">
     <g id="line2d_45">
      <path clip-path="url(#p72eb20d8cb)" d="
M127.125 73.8
L757.665 73.8" style="fill:none;stroke:#000000;stroke-dasharray:1.000000,3.000000;stroke-dashoffset:0.0;stroke-linecap:butt;stroke-width:0.5;"/>
     </g>
     <g id="line2d_46">
      <g>
       <use style="stroke:#000000;stroke-linecap:butt;stroke-width:0.5;" x="127.125" xlink:href="#me8a85f7bf6" y="73.8"/>
      </g>
     </g>
     <g id="line2d_47">
      <g>
       <use style="stroke:#000000;stroke-linecap:butt;stroke-width:0.5;" x="757.665" xlink:href="#m1a32005dea" y="73.8"/>
      </g>
     </g>
     <g id="text_14">
      <!-- 1400000 -->
      <g transform="translate(71.795 78.1678125)scale(0.12 -0.12)">
       <use xlink:href="#DejaVuSans-31"/>
       <use x="63.623046875" xlink:href="#DejaVuSans-34"/>
       <use x="127.24609375" xlink:href="#DejaVuSans-30"/>
       <use x="190.869140625" xlink:href="#DejaVuSans-30"/>
       <use x="254.4921875" xlink:href="#DejaVuSans-30"/>
       <use x="318.115234375" xlink:href="#DejaVuSans-30"/>
       <use x="381.73828125" xlink:href="#DejaVuSans-30"/>
      </g>
     </g>
    </g>
    <g id="ytick_9">
     <g id="line2d_48">
      <path clip-path="url(#p72eb20d8cb)" d="
M127.125 36.9
L757.665 36.9" style="fill:none;stroke:#000000;stroke-dasharray:1.000000,3.000000;stroke-dashoffset:0.0;stroke-linecap:butt;stroke-width:0.5;"/>
     </g>
     <g id="line2d_49">
      <g>
       <use style="stroke:#000000;stroke-linecap:butt;stroke-width:0.5;" x="127.125" xlink:href="#me8a85f7bf6" y="36.9"/>
      </g>
     </g>
     <g id="line2d_50">
      <g>
       <use style="stroke:#000000;stroke-linecap:butt;stroke-width:0.5;" x="757.665" xlink:href="#m1a32005dea" y="36.9"/>
      </g>
     </g>
     <g id="text_15">
      <!-- 1600000 -->
      <g transform="translate(71.795 41.2678125)scale(0.12 -0.12)">
       <use xlink:href="#DejaVuSans-31"/>
       <use x="63.623046875" xlink:href="#DejaVuSans-36"/>
       <use x="127.24609375" xlink:href="#DejaVuSans-30"/>
       <use x="190.869140625" xlink:href="#DejaVuSans-30"/>
       <use x="254.4921875" xlink:href="#DejaVuSans-30"/>
       <use x="318.115234375" xlink:href="#DejaVuSans-30"/>
       <use x="381.73828125" xlink:href="#DejaVuSans-30"/>
      </g>
     </g>
    </g>
   </g>
   <g id="patch_3">
    <path d="
M127.125 36.9
L757.665 36.9" style="fill:none;stroke:#000000;"/>
   </g>
   <g id="patch_4">
    <path d="
M757.665 332.1
L757.665 36.9" style="fill:none;stroke:#000000;"/>
   </g>
   <g id="patch_5">
    <path d="
M127.125 332.1
L757.665 332.1" style="fill:none;stroke:#000000;"/>
   </g>
   <g id="patch_6">
    <path d="
M127.125 332.1
L127.125 36.9" style="fill:none;stroke:#000000;"/>
   </g>
   <g id="legend_1">
    <g id="patch_7">
     <path d="
M763.97 111.879
L986.306 111.879
L986.306 36.9
L763.97 36.9
L763.97 111.879
z
" style="fill:#ffffff;stroke:#000000;"/>
    </g>
    <g id="line2d_51">
     <path d="
M770.968 44.9952
L784.962 44.9952" style="fill:none;stroke:#0000ff;"/>
    </g>
    <g id="line2d_52"/>
    <g id="text_16">
     <!-- UnHalted Core Cycles -->
     <defs>
      <path d="
M30.6094 48.3906
Q23.3906 48.3906 19.1875 42.75
Q14.9844 37.1094 14.9844 27.2969
Q14.9844 17.4844 19.1562 11.8438
Q23.3438 6.20312 30.6094 6.20312
Q37.7969 6.20312 41.9844 11.8594
Q46.1875 17.5312 46.1875 27.2969
Q46.1875 37.0156 41.9844 42.7031
Q37.7969 48.3906 30.6094 48.3906
M30.6094 56
Q42.3281 56 49.0156 48.375
Q55.7188 40.7656 55.7188 27.2969
Q55.7188 13.875 49.0156 6.21875
Q42.3281 -1.42188 30.6094 -1.42188
Q18.8438 -1.42188 12.1719 6.21875
Q5.51562 13.875 5.51562 27.2969
Q5.51562 40.7656 12.1719 48.375
Q18.8438 56 30.6094 56" id="DejaVuSans-6f"/>
      <path d="
M54.8906 33.0156
L54.8906 0
L45.9062 0
L45.9062 32.7188
Q45.9062 40.4844 42.875 44.3281
Q39.8438 48.1875 33.7969 48.1875
Q26.5156 48.1875 22.3125 43.5469
Q18.1094 38.9219 18.1094 30.9062
L18.1094 0
L9.07812 0
L9.07812 54.6875
L18.1094 54.6875
L18.1094 46.1875
Q21.3438 51.125 25.7031 53.5625
Q30.0781 56 35.7969 56
Q45.2188 56 50.0469 50.1719
Q54.8906 44.3438 54.8906 33.0156" id="DejaVuSans-6e"/>
      <path d="
M9.42188 75.9844
L18.4062 75.9844
L18.4062 0
L9.42188 0
z
" id="DejaVuSans-6c"/>
      <path d="
M41.1094 46.2969
Q39.5938 47.1719 37.8125 47.5781
Q36.0312 48 33.8906 48
Q26.2656 48 22.1875 43.0469
Q18.1094 38.0938 18.1094 28.8125
L18.1094 0
L9.07812 0
L9.07812 54.6875
L18.1094 54.6875
L18.1094 46.1875
Q20.9531 51.1719 25.4844 53.5781
Q30.0312 56 36.5312 56
Q37.4531 56 38.5781 55.875
Q39.7031 55.7656 41.0625 55.5156
z
" id="DejaVuSans-72"/>
      <path id="DejaVuSans-20"/>
      <path d="
M32.1719 -5.07812
Q28.375 -14.8438 24.75 -17.8125
Q21.1406 -20.7969 15.0938 -20.7969
L7.90625 -20.7969
L7.90625 -13.2812
L13.1875 -13.2812
Q16.8906 -13.2812 18.9375 -11.5156
Q21 -9.76562 23.4844 -3.21875
L25.0938 0.875
L2.98438 54.6875
L12.5 54.6875
L29.5938 11.9219
L46.6875 54.6875
L56.2031 54.6875
z
" id="DejaVuSans-79"/>
      <path d="
M44.2812 53.0781
L44.2812 44.5781
Q40.4844 46.5312 36.375 47.5
Q32.2812 48.4844 27.875 48.4844
Q21.1875 48.4844 17.8438 46.4375
Q14.5 44.3906 14.5 40.2812
Q14.5 37.1562 16.8906 35.375
Q19.2812 33.5938 26.5156 31.9844
L29.5938 31.2969
Q39.1562 29.25 43.1875 25.5156
Q47.2188 21.7812 47.2188 15.0938
Q47.2188 7.46875 41.1875 3.01562
Q35.1562 -1.42188 24.6094 -1.42188
Q20.2188 -1.42188 15.4531 -0.5625
Q10.6875 0.296875 5.42188 2
L5.42188 11.2812
Q10.4062 8.6875 15.2344 7.39062
Q20.0625 6.10938 24.8125 6.10938
Q31.1562 6.10938 34.5625 8.28125
Q37.9844 10.4531 37.9844 14.4062
Q37.9844 18.0625 35.5156 20.0156
Q33.0625 21.9688 24.7031 23.7812
L21.5781 24.5156
Q13.2344 26.2656 9.51562 29.9062
Q5.8125 33.5469 5.8125 39.8906
Q5.8125 47.6094 11.2812 51.7969
Q16.75 56 26.8125 56
Q31.7812 56 36.1719 55.2656
Q40.5781 54.5469 44.2812 53.0781" id="DejaVuSans-73"/>
      <path d="
M64.4062 67.2812
L64.4062 56.8906
Q59.4219 61.5312 53.7812 63.8125
Q48.1406 66.1094 41.7969 66.1094
Q29.2969 66.1094 22.6562 58.4688
Q16.0156 50.8281 16.0156 36.375
Q16.0156 21.9688 22.6562 14.3281
Q29.2969 6.6875 41.7969 6.6875
Q48.1406 6.6875 53.7812 8.98438
Q59.4219 11.2812 64.4062 15.9219
L64.4062 5.60938
Q59.2344 2.09375 53.4375 0.328125
Q47.6562 -1.42188 41.2188 -1.42188
Q24.6562 -1.42188 15.125 8.70312
Q5.60938 18.8438 5.60938 36.375
Q5.60938 53.9531 15.125 64.0781
Q24.6562 74.2188 41.2188 74.2188
Q47.75 74.2188 53.5312 72.4844
Q59.3281 70.75 64.4062 67.2812" id="DejaVuSans-43"/>
      <path d="
M18.3125 70.2188
L18.3125 54.6875
L36.8125 54.6875
L36.8125 47.7031
L18.3125 47.7031
L18.3125 18.0156
Q18.3125 11.3281 20.1406 9.42188
Q21.9688 7.51562 27.5938 7.51562
L36.8125 7.51562
L36.8125 0
L27.5938 0
Q17.1875 0 13.2344 3.875
Q9.28125 7.76562 9.28125 18.0156
L9.28125 47.7031
L2.6875 47.7031
L2.6875 54.6875
L9.28125 54.6875
L9.28125 70.2188
z
" id="DejaVuSans-74"/>
      <path d="
M45.4062 46.3906
L45.4062 75.9844
L54.3906 75.9844
L54.3906 0
L45.4062 0
L45.4062 8.20312
Q42.5781 3.32812 38.25 0.953125
Q33.9375 -1.42188 27.875 -1.42188
Q17.9688 -1.42188 11.7344 6.48438
Q5.51562 14.4062 5.51562 27.2969
Q5.51562 40.1875 11.7344 48.0938
Q17.9688 56 27.875 56
Q33.9375 56 38.25 53.625
Q42.5781 51.2656 45.4062 46.3906
M14.7969 27.2969
Q14.7969 17.3906 18.875 11.75
Q22.9531 6.10938 30.0781 6.10938
Q37.2031 6.10938 41.2969 11.75
Q45.4062 17.3906 45.4062 27.2969
Q45.4062 37.2031 41.2969 42.8438
Q37.2031 48.4844 30.0781 48.4844
Q22.9531 48.4844 18.875 42.8438
Q14.7969 37.2031 14.7969 27.2969" id="DejaVuSans-64"/>
      <path d="
M56.2031 29.5938
L56.2031 25.2031
L14.8906 25.2031
Q15.4844 15.9219 20.4844 11.0625
Q25.4844 6.20312 34.4219 6.20312
Q39.5938 6.20312 44.4531 7.46875
Q49.3125 8.73438 54.1094 11.2812
L54.1094 2.78125
Q49.2656 0.734375 44.1875 -0.34375
Q39.1094 -1.42188 33.8906 -1.42188
Q20.7969 -1.42188 13.1562 6.1875
Q5.51562 13.8125 5.51562 26.8125
Q5.51562 40.2344 12.7656 48.1094
Q20.0156 56 32.3281 56
Q43.3594 56 49.7812 48.8906
Q56.2031 41.7969 56.2031 29.5938
M47.2188 32.2344
Q47.125 39.5938 43.0938 43.9844
Q39.0625 48.3906 32.4219 48.3906
Q24.9062 48.3906 20.3906 44.1406
Q15.875 39.8906 15.1875 32.1719
z
" id="DejaVuSans-65"/>
      <path d="
M9.8125 72.9062
L19.6719 72.9062
L19.6719 43.0156
L55.5156 43.0156
L55.5156 72.9062
L65.375 72.9062
L65.375 0
L55.5156 0
L55.5156 34.7188
L19.6719 34.7188
L19.6719 0
L9.8125 0
z
" id="DejaVuSans-48"/>
      <path d="
M48.7812 52.5938
L48.7812 44.1875
Q44.9688 46.2969 41.1406 47.3438
Q37.3125 48.3906 33.4062 48.3906
Q24.6562 48.3906 19.8125 42.8438
Q14.9844 37.3125 14.9844 27.2969
Q14.9844 17.2812 19.8125 11.7344
Q24.6562 6.20312 33.4062 6.20312
Q37.3125 6.20312 41.1406 7.25
Q44.9688 8.29688 48.7812 10.4062
L48.7812 2.09375
Q45.0156 0.34375 40.9844 -0.53125
Q36.9688 -1.42188 32.4219 -1.42188
Q20.0625 -1.42188 12.7812 6.34375
Q5.51562 14.1094 5.51562 27.2969
Q5.51562 40.6719 12.8594 48.3281
Q20.2188 56 33.0156 56
Q37.1562 56 41.1094 55.1406
Q45.0625 54.2969 48.7812 52.5938" id="DejaVuSans-63"/>
      <path d="
M8.6875 72.9062
L18.6094 72.9062
L18.6094 28.6094
Q18.6094 16.8906 22.8438 11.7344
Q27.0938 6.59375 36.625 6.59375
Q46.0938 6.59375 50.3438 11.7344
Q54.5938 16.8906 54.5938 28.6094
L54.5938 72.9062
L64.5 72.9062
L64.5 27.3906
Q64.5 13.1406 57.4375 5.85938
Q50.3906 -1.42188 36.625 -1.42188
Q22.7969 -1.42188 15.7344 5.85938
Q8.6875 13.1406 8.6875 27.3906
z
" id="DejaVuSans-55"/>
      <path d="
M34.2812 27.4844
Q23.3906 27.4844 19.1875 25
Q14.9844 22.5156 14.9844 16.5
Q14.9844 11.7188 18.1406 8.90625
Q21.2969 6.10938 26.7031 6.10938
Q34.1875 6.10938 38.7031 11.4062
Q43.2188 16.7031 43.2188 25.4844
L43.2188 27.4844
z

M52.2031 31.2031
L52.2031 0
L43.2188 0
L43.2188 8.29688
Q40.1406 3.32812 35.5469 0.953125
Q30.9531 -1.42188 24.3125 -1.42188
Q15.9219 -1.42188 10.9531 3.29688
Q6 8.01562 6 15.9219
Q6 25.1406 12.1719 29.8281
Q18.3594 34.5156 30.6094 34.5156
L43.2188 34.5156
L43.2188 35.4062
Q43.2188 41.6094 39.1406 45
Q35.0625 48.3906 27.6875 48.3906
Q23 48.3906 18.5469 47.2656
Q14.1094 46.1406 10.0156 43.8906
L10.0156 52.2031
Q14.9375 54.1094 19.5781 55.0469
Q24.2188 56 28.6094 56
Q40.4844 56 46.3438 49.8438
Q52.2031 43.7031 52.2031 31.2031" id="DejaVuSans-61"/>
     </defs>
     <g transform="translate(795.9576 48.493798125)scale(0.09996 -0.09996)">
      <use xlink:href="#DejaVuSans-55"/>
      <use x="73.193359375" xlink:href="#DejaVuSans-6e"/>
      <use x="136.572265625" xlink:href="#DejaVuSans-48"/>
      <use x="211.767578125" xlink:href="#DejaVuSans-61"/>
      <use x="273.046875" xlink:href="#DejaVuSans-6c"/>
      <use x="300.830078125" xlink:href="#DejaVuSans-74"/>
      <use x="340.0390625" xlink:href="#DejaVuSans-65"/>
      <use x="401.5625" xlink:href="#DejaVuSans-64"/>
      <use x="465.0390625" xlink:href="#DejaVuSans-20"/>
      <use x="496.826171875" xlink:href="#DejaVuSans-43"/>
      <use x="566.650390625" xlink:href="#DejaVuSans-6f"/>
      <use x="627.83203125" xlink:href="#DejaVuSans-72"/>
      <use x="666.6953125" xlink:href="#DejaVuSans-65"/>
      <use x="728.21875" xlink:href="#DejaVuSans-20"/>
      <use x="760.005859375" xlink:href="#DejaVuSans-43"/>
      <use x="829.830078125" xlink:href="#DejaVuSans-79"/>
      <use x="889.009765625" xlink:href="#DejaVuSans-63"/>
      <use x="943.990234375" xlink:href="#DejaVuSans-6c"/>
      <use x="971.7734375" xlink:href="#DejaVuSans-65"/>
      <use x="1033.296875" xlink:href="#DejaVuSans-73"/>
     </g>
    </g>
    <g id="line2d_53">
     <path d="
M770.968 59.6675
L784.962 59.6675" style="fill:none;stroke:#008000;"/>
    </g>
    <g id="line2d_54"/>
    <g id="text_17">
     <!-- LD_BLOCKS_PARTIAL.ADDRESS_ALIAS -->
     <defs>
      <path d="
M39.4062 66.2188
Q28.6562 66.2188 22.3281 58.2031
Q16.0156 50.2031 16.0156 36.375
Q16.0156 22.6094 22.3281 14.5938
Q28.6562 6.59375 39.4062 6.59375
Q50.1406 6.59375 56.4219 14.5938
Q62.7031 22.6094 62.7031 36.375
Q62.7031 50.2031 56.4219 58.2031
Q50.1406 66.2188 39.4062 66.2188
M39.4062 74.2188
Q54.7344 74.2188 63.9062 63.9375
Q73.0938 53.6562 73.0938 36.375
Q73.0938 19.1406 63.9062 8.85938
Q54.7344 -1.42188 39.4062 -1.42188
Q24.0312 -1.42188 14.8125 8.82812
Q5.60938 19.0938 5.60938 36.375
Q5.60938 53.6562 14.8125 63.9375
Q24.0312 74.2188 39.4062 74.2188" id="DejaVuSans-4f"/>
      <path d="
M9.8125 72.9062
L19.6719 72.9062
L19.6719 42.0938
L52.3906 72.9062
L65.0938 72.9062
L28.9062 38.9219
L67.6719 0
L54.6875 0
L19.6719 35.1094
L19.6719 0
L9.8125 0
z
" id="DejaVuSans-4b"/>
      <path d="
M9.8125 72.9062
L19.6719 72.9062
L19.6719 8.29688
L55.1719 8.29688
L55.1719 0
L9.8125 0
z
" id="DejaVuSans-4c"/>
      <path d="
M10.6875 12.4062
L21 12.4062
L21 0
L10.6875 0
z
" id="DejaVuSans-2e"/>
      <path d="
M50.9844 -16.6094
L50.9844 -23.5781
L-0.984375 -23.5781
L-0.984375 -16.6094
z
" id="DejaVuSans-5f"/>
      <path d="
M19.6719 64.7969
L19.6719 8.10938
L31.5938 8.10938
Q46.6875 8.10938 53.6875 14.9375
Q60.6875 21.7812 60.6875 36.5312
Q60.6875 51.1719 53.6875 57.9844
Q46.6875 64.7969 31.5938 64.7969
z

M9.8125 72.9062
L30.0781 72.9062
Q51.2656 72.9062 61.1719 64.0938
Q71.0938 55.2812 71.0938 36.5312
Q71.0938 17.6719 61.125 8.82812
Q51.1719 0 30.0781 0
L9.8125 0
z
" id="DejaVuSans-44"/>
      <path d="
M9.8125 72.9062
L55.9062 72.9062
L55.9062 64.5938
L19.6719 64.5938
L19.6719 43.0156
L54.3906 43.0156
L54.3906 34.7188
L19.6719 34.7188
L19.6719 8.29688
L56.7812 8.29688
L56.7812 0
L9.8125 0
z
" id="DejaVuSans-45"/>
      <path d="
M34.1875 63.1875
L20.7969 26.9062
L47.6094 26.9062
z

M28.6094 72.9062
L39.7969 72.9062
L67.5781 0
L57.3281 0
L50.6875 18.7031
L17.8281 18.7031
L11.1875 0
L0.78125 0
z
" id="DejaVuSans-41"/>
      <path d="
M19.6719 34.8125
L19.6719 8.10938
L35.5 8.10938
Q43.4531 8.10938 47.2812 11.4062
Q51.125 14.7031 51.125 21.4844
Q51.125 28.3281 47.2812 31.5625
Q43.4531 34.8125 35.5 34.8125
z

M19.6719 64.7969
L19.6719 42.8281
L34.2812 42.8281
Q41.5 42.8281 45.0312 45.5312
Q48.5781 48.25 48.5781 53.8125
Q48.5781 59.3281 45.0312 62.0625
Q41.5 64.7969 34.2812 64.7969
z

M9.8125 72.9062
L35.0156 72.9062
Q46.2969 72.9062 52.3906 68.2188
Q58.5 63.5312 58.5 54.8906
Q58.5 48.1875 55.375 44.2344
Q52.25 40.2812 46.1875 39.3125
Q53.4688 37.75 57.5 32.7812
Q61.5312 27.8281 61.5312 20.4062
Q61.5312 10.6406 54.8906 5.3125
Q48.25 0 35.9844 0
L9.8125 0
z
" id="DejaVuSans-42"/>
      <path d="
M53.5156 70.5156
L53.5156 60.8906
Q47.9062 63.5781 42.9219 64.8906
Q37.9375 66.2188 33.2969 66.2188
Q25.25 66.2188 20.875 63.0938
Q16.5 59.9688 16.5 54.2031
Q16.5 49.3594 19.4062 46.8906
Q22.3125 44.4375 30.4219 42.9219
L36.375 41.7031
Q47.4062 39.5938 52.6562 34.2969
Q57.9062 29 57.9062 20.125
Q57.9062 9.51562 50.7969 4.04688
Q43.7031 -1.42188 29.9844 -1.42188
Q24.8125 -1.42188 18.9688 -0.25
Q13.1406 0.921875 6.89062 3.21875
L6.89062 13.375
Q12.8906 10.0156 18.6562 8.29688
Q24.4219 6.59375 29.9844 6.59375
Q38.4219 6.59375 43.0156 9.90625
Q47.6094 13.2344 47.6094 19.3906
Q47.6094 24.75 44.3125 27.7812
Q41.0156 30.8125 33.5 32.3281
L27.4844 33.5
Q16.4531 35.6875 11.5156 40.375
Q6.59375 45.0625 6.59375 53.4219
Q6.59375 63.0938 13.4062 68.6562
Q20.2188 74.2188 32.1719 74.2188
Q37.3125 74.2188 42.625 73.2812
Q47.9531 72.3594 53.5156 70.5156" id="DejaVuSans-53"/>
      <path d="
M44.3906 34.1875
Q47.5625 33.1094 50.5625 29.5938
Q53.5625 26.0781 56.5938 19.9219
L66.6094 0
L56 0
L46.6875 18.7031
Q43.0625 26.0312 39.6719 28.4219
Q36.2812 30.8125 30.4219 30.8125
L19.6719 30.8125
L19.6719 0
L9.8125 0
L9.8125 72.9062
L32.0781 72.9062
Q44.5781 72.9062 50.7344 67.6719
Q56.8906 62.4531 56.8906 51.9062
Q56.8906 45.0156 53.6875 40.4688
Q50.4844 35.9375 44.3906 34.1875
M19.6719 64.7969
L19.6719 38.9219
L32.0781 38.9219
Q39.2031 38.9219 42.8438 42.2188
Q46.4844 45.5156 46.4844 51.9062
Q46.4844 58.2969 42.8438 61.5469
Q39.2031 64.7969 32.0781 64.7969
z
" id="DejaVuSans-52"/>
      <path d="
M19.6719 64.7969
L19.6719 37.4062
L32.0781 37.4062
Q38.9688 37.4062 42.7188 40.9688
Q46.4844 44.5312 46.4844 51.125
Q46.4844 57.6719 42.7188 61.2344
Q38.9688 64.7969 32.0781 64.7969
z

M9.8125 72.9062
L32.0781 72.9062
Q44.3438 72.9062 50.6094 67.3594
Q56.8906 61.8125 56.8906 51.125
Q56.8906 40.3281 50.6094 34.8125
Q44.3438 29.2969 32.0781 29.2969
L19.6719 29.2969
L19.6719 0
L9.8125 0
z
" id="DejaVuSans-50"/>
      <path d="
M9.8125 72.9062
L19.6719 72.9062
L19.6719 0
L9.8125 0
z
" id="DejaVuSans-49"/>
      <path d="
M-0.296875 72.9062
L61.375 72.9062
L61.375 64.5938
L35.5 64.5938
L35.5 0
L25.5938 0
L25.5938 64.5938
L-0.296875 64.5938
z
" id="DejaVuSans-54"/>
     </defs>
     <g transform="translate(795.9576 63.166051875)scale(0.09996 -0.09996)">
      <use xlink:href="#DejaVuSans-4c"/>
      <use x="55.712890625" xlink:href="#DejaVuSans-44"/>
      <use x="132.71484375" xlink:href="#DejaVuSans-5f"/>
      <use x="182.71484375" xlink:href="#DejaVuSans-42"/>
      <use x="251.318359375" xlink:href="#DejaVuSans-4c"/>
      <use x="303.40625" xlink:href="#DejaVuSans-4f"/>
      <use x="382.1171875" xlink:href="#DejaVuSans-43"/>
      <use x="451.94140625" xlink:href="#DejaVuSans-4b"/>
      <use x="517.517578125" xlink:href="#DejaVuSans-53"/>
      <use x="580.994140625" xlink:href="#DejaVuSans-5f"/>
      <use x="630.994140625" xlink:href="#DejaVuSans-50"/>
      <use x="684.921875" xlink:href="#DejaVuSans-41"/>
      <use x="753.330078125" xlink:href="#DejaVuSans-52"/>
      <use x="815.5625" xlink:href="#DejaVuSans-54"/>
      <use x="876.646484375" xlink:href="#DejaVuSans-49"/>
      <use x="906.138671875" xlink:href="#DejaVuSans-41"/>
      <use x="974.546875" xlink:href="#DejaVuSans-4c"/>
      <use x="1030.25976562" xlink:href="#DejaVuSans-2e"/>
      <use x="1062.046875" xlink:href="#DejaVuSans-41"/>
      <use x="1130.45507812" xlink:href="#DejaVuSans-44"/>
      <use x="1207.45703125" xlink:href="#DejaVuSans-44"/>
      <use x="1284.45898438" xlink:href="#DejaVuSans-52"/>
      <use x="1353.94140625" xlink:href="#DejaVuSans-45"/>
      <use x="1417.125" xlink:href="#DejaVuSans-53"/>
      <use x="1480.6015625" xlink:href="#DejaVuSans-53"/>
      <use x="1544.078125" xlink:href="#DejaVuSans-5f"/>
      <use x="1594.078125" xlink:href="#DejaVuSans-41"/>
      <use x="1662.48632812" xlink:href="#DejaVuSans-4c"/>
      <use x="1718.19921875" xlink:href="#DejaVuSans-49"/>
      <use x="1747.69140625" xlink:href="#DejaVuSans-41"/>
      <use x="1816.09960938" xlink:href="#DejaVuSans-53"/>
     </g>
    </g>
    <g id="line2d_55">
     <path d="
M770.968 74.6177
L784.962 74.6177" style="fill:none;stroke:#ff0000;"/>
    </g>
    <g id="line2d_56"/>
    <g id="text_18">
     <!-- RESOURCE_STALLS.ANY -->
     <defs>
      <path d="
M9.8125 72.9062
L23.0938 72.9062
L55.4219 11.9219
L55.4219 72.9062
L64.9844 72.9062
L64.9844 0
L51.7031 0
L19.3906 60.9844
L19.3906 0
L9.8125 0
z
" id="DejaVuSans-4e"/>
      <path d="
M-0.203125 72.9062
L10.4062 72.9062
L30.6094 42.9219
L50.6875 72.9062
L61.2812 72.9062
L35.5 34.7188
L35.5 0
L25.5938 0
L25.5938 34.7188
z
" id="DejaVuSans-59"/>
     </defs>
     <g transform="translate(795.9576 78.116319375)scale(0.09996 -0.09996)">
      <use xlink:href="#DejaVuSans-52"/>
      <use x="69.482421875" xlink:href="#DejaVuSans-45"/>
      <use x="132.666015625" xlink:href="#DejaVuSans-53"/>
      <use x="196.142578125" xlink:href="#DejaVuSans-4f"/>
      <use x="274.853515625" xlink:href="#DejaVuSans-55"/>
      <use x="348.046875" xlink:href="#DejaVuSans-52"/>
      <use x="412.529296875" xlink:href="#DejaVuSans-43"/>
      <use x="482.353515625" xlink:href="#DejaVuSans-45"/>
      <use x="545.537109375" xlink:href="#DejaVuSans-5f"/>
      <use x="595.537109375" xlink:href="#DejaVuSans-53"/>
      <use x="659.013671875" xlink:href="#DejaVuSans-54"/>
      <use x="712.34765625" xlink:href="#DejaVuSans-41"/>
      <use x="780.755859375" xlink:href="#DejaVuSans-4c"/>
      <use x="836.46875" xlink:href="#DejaVuSans-4c"/>
      <use x="892.181640625" xlink:href="#DejaVuSans-53"/>
      <use x="955.658203125" xlink:href="#DejaVuSans-2e"/>
      <use x="987.4453125" xlink:href="#DejaVuSans-41"/>
      <use x="1055.85351562" xlink:href="#DejaVuSans-4e"/>
      <use x="1130.65820312" xlink:href="#DejaVuSans-59"/>
     </g>
    </g>
    <g id="line2d_57">
     <path d="
M770.968 89.568
L784.962 89.568" style="fill:none;stroke:#00bfbf;"/>
    </g>
    <g id="line2d_58"/>
    <g id="text_19">
     <!-- LLC Reference -->
     <defs>
      <path d="
M37.1094 75.9844
L37.1094 68.5
L28.5156 68.5
Q23.6875 68.5 21.7969 66.5469
Q19.9219 64.5938 19.9219 59.5156
L19.9219 54.6875
L34.7188 54.6875
L34.7188 47.7031
L19.9219 47.7031
L19.9219 0
L10.8906 0
L10.8906 47.7031
L2.29688 47.7031
L2.29688 54.6875
L10.8906 54.6875
L10.8906 58.5
Q10.8906 67.625 15.1406 71.7969
Q19.3906 75.9844 28.6094 75.9844
z
" id="DejaVuSans-66"/>
     </defs>
     <g transform="translate(795.9576 93.066586875)scale(0.09996 -0.09996)">
      <use xlink:href="#DejaVuSans-4c"/>
      <use x="55.712890625" xlink:href="#DejaVuSans-4c"/>
      <use x="111.42578125" xlink:href="#DejaVuSans-43"/>
      <use x="181.25" xlink:href="#DejaVuSans-20"/>
      <use x="213.037109375" xlink:href="#DejaVuSans-52"/>
      <use x="278.01953125" xlink:href="#DejaVuSans-65"/>
      <use x="339.54296875" xlink:href="#DejaVuSans-66"/>
      <use x="374.748046875" xlink:href="#DejaVuSans-65"/>
      <use x="436.271484375" xlink:href="#DejaVuSans-72"/>
      <use x="475.134765625" xlink:href="#DejaVuSans-65"/>
      <use x="536.658203125" xlink:href="#DejaVuSans-6e"/>
      <use x="600.037109375" xlink:href="#DejaVuSans-63"/>
      <use x="655.017578125" xlink:href="#DejaVuSans-65"/>
     </g>
    </g>
    <g id="line2d_59">
     <path d="
M770.968 104.24
L784.962 104.24" style="fill:none;stroke:#bf00bf;"/>
    </g>
    <g id="line2d_60"/>
    <g id="text_20">
     <!-- LLC Misses -->
     <defs>
      <path d="
M9.8125 72.9062
L24.5156 72.9062
L43.1094 23.2969
L61.8125 72.9062
L76.5156 72.9062
L76.5156 0
L66.8906 0
L66.8906 64.0156
L48.0938 14.0156
L38.1875 14.0156
L19.3906 64.0156
L19.3906 0
L9.8125 0
z
" id="DejaVuSans-4d"/>
      <path d="
M9.42188 54.6875
L18.4062 54.6875
L18.4062 0
L9.42188 0
z

M9.42188 75.9844
L18.4062 75.9844
L18.4062 64.5938
L9.42188 64.5938
z
" id="DejaVuSans-69"/>
     </defs>
     <g transform="translate(795.9576 107.738840625)scale(0.09996 -0.09996)">
      <use xlink:href="#DejaVuSans-4c"/>
      <use x="55.712890625" xlink:href="#DejaVuSans-4c"/>
      <use x="111.42578125" xlink:href="#DejaVuSans-43"/>
      <use x="181.25" xlink:href="#DejaVuSans-20"/>
      <use x="213.037109375" xlink:href="#DejaVuSans-4d"/>
      <use x="299.31640625" xlink:href="#DejaVuSans-69"/>
      <use x="327.099609375" xlink:href="#DejaVuSans-73"/>
      <use x="379.19921875" xlink:href="#DejaVuSans-73"/>
      <use x="431.298828125" xlink:href="#DejaVuSans-65"/>
      <use x="492.822265625" xlink:href="#DejaVuSans-73"/>
     </g>
    </g>
   </g>
  </g>
 </g>
 <defs>
  <clipPath id="p72eb20d8cb">
   <rect height="295.2" width="630.54" x="127.125" y="36.9"/>
  </clipPath>
 </defs>
</svg>
