<?xml version="1.0" encoding="utf-8" standalone="no"?>
<!DOCTYPE svg PUBLIC "-//W3C//DTD SVG 1.1//EN"
  "http://www.w3.org/Graphics/SVG/1.1/DTD/svg11.dtd">
<!-- Created with matplotlib (http://matplotlib.sourceforge.net/) -->
<svg height="668pt" version="1.1" viewBox="0 0 1640 668" width="1640pt" xmlns="http://www.w3.org/2000/svg" xmlns:xlink="http://www.w3.org/1999/xlink">
 <defs>
  <style type="text/css">
*{stroke-linecap:square;stroke-linejoin:round;}
  </style>
 </defs>
 <g id="figure_1">
  <g id="patch_1">
   <path d="
M0 668.7
L1640.7 668.7
L1640.7 0
L0 0
z
" style="fill:#ffffff;"/>
  </g>
  <g id="axes_1">
   <g id="patch_2">
    <path d="
M205.088 601.83
L1476.63 601.83
L1476.63 66.87
L205.088 66.87
z
" style="fill:#ffffff;"/>
   </g>
   <g id="line2d_1">
    <path clip-path="url(#p888dfa254e)" d="
M205.088 111.181
L210.174 117.253
L215.26 123.606
L220.346 119.813
L225.432 121.74
L230.518 121.356
L235.605 122.008
L240.691 119.139
L245.777 122.766
L250.863 122.934
L261.035 121.765
L266.122 120.522
L271.208 124.039
L276.294 122.484
L281.38 120.23
L286.466 120.304
L291.552 120.616
L296.639 122.39
L301.725 123.113
L306.811 122.715
L311.897 120.369
L316.983 120.583
L322.069 122.795
L327.156 122.915
L332.242 120.649
L337.328 123.379
L342.414 121.502
L347.5 123.888
L352.586 123.223
L357.673 123.424
L362.759 121.48
L367.845 120.513
L372.931 121.005
L378.017 124.274
L383.103 122.46
L388.19 123.533
L393.276 123.003
L403.448 122.96
L408.534 120.695
L413.62 121.569
L418.707 122.938
L423.793 122.987
L428.879 121.161
L433.965 120.876
L439.051 122.97
L444.137 120.583
L449.224 123.491
L454.31 123.003
L459.396 122.279
L464.482 123.508
L469.568 122.64
L474.655 123.369
L479.741 122.587
L484.827 120.567
L489.913 122.997
L494.999 122.243
L500.085 119.483
L505.172 117.003
L510.258 118.688
L515.344 121.163
L520.43 120.659
L525.516 121.435
L530.602 122.679
L535.689 120.476
L540.775 123.481
L545.861 125.361
L550.947 122.85
L556.033 122.355
L561.119 123.273
L566.206 123.018
L571.292 124.326
L576.378 121.866
L581.464 121.515
L586.55 122.26
L591.636 121.473
L596.723 123.149
L601.809 122.401
L606.895 123.26
L611.981 121.944
L617.067 119.74
L622.153 121.895
L627.24 119.956
L632.326 123.447
L637.412 122.41
L642.498 107.308
L647.584 121.741
L652.67 121.913
L657.757 123.026
L667.929 122.934
L673.015 122.287
L678.101 120.81
L683.187 124.045
L688.274 117.72
L693.36 122.396
L698.446 123.217
L708.618 121.468
L713.705 120.961
L718.791 122.144
L723.877 122.826
L728.963 123.38
L734.049 120.513
L739.135 124.835
L744.222 121.746
L749.308 123.188
L754.394 122.456
L759.48 125.872
L764.566 120.692
L769.652 116.17
L774.739 117.914
L779.825 119.35
L784.911 118.633
L789.997 123.269
L795.083 122.591
L800.169 120.906
L805.256 122.4
L810.342 120.935
L815.428 122.798
L820.514 119.521
L825.6 121.995
L830.686 121.217
L835.773 121.718
L840.859 122.793
L845.945 122.671
L851.031 123.027
L856.117 122.236
L861.203 122.788
L866.29 122.616
L871.376 123.612
L876.462 121.275
L881.548 118.307
L886.634 121.24
L891.72 122.446
L896.807 118.51
L901.893 117.396
L906.979 121.246
L912.065 122.822
L917.151 120.841
L922.237 120.666
L927.324 122.455
L932.41 120.105
L937.496 122.419
L942.582 120.638
L947.668 120.795
L957.841 117.602
L962.927 120.227
L968.013 120.166
L973.099 118.458
L978.185 120.724
L983.272 121.574
L988.358 121.748
L993.444 117.337
L998.53 119.081
L1003.62 120.309
L1008.7 121.372
L1013.79 118.471
L1018.87 118.945
L1023.96 118.17
L1029.05 113.277
L1034.13 118.875
L1039.22 118.746
L1044.31 120.452
L1049.39 119.885
L1054.48 120.309
L1059.56 119.741
L1064.65 121.126
L1069.74 118.863
L1074.82 118.259
L1079.91 119.674
L1084.99 120.537
L1090.08 120.165
L1095.17 121.794
L1100.25 120.723
L1105.34 118.804
L1110.43 120.445
L1115.51 119.964
L1120.6 118.697
L1125.68 119.049
L1130.77 121.019
L1135.86 121.649
L1146.03 117.943
L1151.12 119.92
L1156.2 120.77
L1161.29 119.622
L1166.37 120.51
L1171.46 119.496
L1176.55 120.462
L1181.63 121.061
L1186.72 118.577
L1191.8 120.454
L1196.89 121.339
L1201.98 121.935
L1207.06 121.872
L1212.15 119.869
L1217.24 118.821
L1222.32 119.115
L1227.41 121.8
L1232.49 120
L1237.58 118.909
L1242.67 119.142
L1247.75 120.141
L1252.84 120.872
L1257.92 119.315
L1263.01 120.252
L1268.1 121.68
L1273.18 122.889
L1278.27 118.501
L1283.36 119.898
L1288.44 119.812
L1293.53 120.008
L1298.61 119.669
L1303.7 122.136
L1308.79 122.442
L1313.87 123.215
L1318.96 122.646
L1324.04 121.075
L1329.13 121.946
L1334.22 124.725
L1339.3 121.317
L1344.39 122.973
L1349.48 123.213
L1359.65 122.417
L1364.73 121.537
L1369.82 119.755
L1374.91 119.993
L1379.99 122.43
L1385.08 122.67
L1390.17 120.345
L1395.25 121.073
L1400.34 120.972
L1405.42 122.899
L1410.51 120.522
L1415.6 122.163
L1420.68 122.443
L1425.77 122.515
L1430.85 122.378
L1435.94 121.636
L1441.03 121.755
L1446.11 123.379
L1451.2 122.721
L1456.29 121.232
L1461.37 121.612
L1466.46 120.552
L1471.54 120.965
L1471.54 120.965" style="fill:none;stroke:#0000ff;"/>
   </g>
   <g id="line2d_2">
    <path clip-path="url(#p888dfa254e)" d="
M205.088 599.395
L210.174 599.742
L215.26 599.935
L220.346 599.829
L230.518 599.864
L240.691 599.769
L245.777 599.916
L276.294 599.875
L296.639 599.889
L306.811 599.897
L311.897 599.774
L322.069 599.896
L357.673 599.898
L372.931 599.858
L388.19 599.924
L418.707 599.908
L464.482 599.926
L469.568 599.867
L479.741 599.878
L505.172 599.696
L510.258 599.852
L530.602 599.891
L540.775 599.887
L545.861 599.958
L556.033 599.893
L586.55 599.931
L596.723 599.882
L647.584 599.912
L673.015 599.887
L708.618 599.892
L759.48 600.014
L769.652 599.642
L795.083 599.912
L830.686 599.892
L851.031 599.926
L906.979 599.829
L912.065 599.918
L957.841 599.688
L962.927 599.854
L1008.7 599.869
L1018.87 599.851
L1023.96 599.791
L1029.05 599.6
L1034.13 599.817
L1059.56 599.956
L1074.82 599.875
L1105.34 599.913
L1130.77 599.906
L1140.94 599.865
L1146.03 599.78
L1156.2 599.906
L1222.32 599.897
L1273.18 599.926
L1288.44 599.798
L1293.53 599.83
L1298.61 599.749
L1308.79 599.897
L1334.22 599.926
L1339.3 599.858
L1354.56 599.908
L1425.77 599.897
L1456.29 599.909
L1471.54 599.874
L1471.54 599.874" style="fill:none;stroke:#008000;"/>
   </g>
   <g id="line2d_3">
    <path clip-path="url(#p888dfa254e)" d="
M205.088 601.754
L261.035 601.588
L266.122 601.725
L291.552 601.526
L296.639 601.661
L301.725 601.593
L306.811 601.73
L332.242 601.679
L342.414 601.714
L383.103 601.679
L413.62 601.598
L418.707 601.706
L433.965 601.662
L449.224 601.725
L545.861 601.733
L550.947 601.585
L561.119 601.658
L566.206 601.563
L601.809 601.737
L606.895 601.663
L622.153 601.718
L637.412 601.708
L642.498 555.845
L647.584 584.814
L652.67 585.521
L657.757 600.597
L662.843 601.688
L698.446 601.721
L708.618 601.725
L713.705 601.593
L723.877 601.654
L734.049 601.495
L739.135 601.63
L764.566 601.653
L769.652 601.527
L795.083 601.578
L800.169 601.705
L845.945 601.723
L851.031 601.669
L861.203 601.748
L891.72 601.729
L1064.65 601.621
L1090.08 601.646
L1095.17 601.371
L1100.25 601.375
L1105.34 601.234
L1115.51 601.457
L1120.6 601.295
L1125.68 601.621
L1156.2 601.505
L1161.29 601.637
L1471.54 601.735
L1471.54 601.735" style="fill:none;stroke:#ff0000;"/>
   </g>
   <g id="line2d_4">
    <path clip-path="url(#p888dfa254e)" d="
M205.088 380.145
L210.174 377.405
L215.26 378.198
L220.346 377.989
L230.518 378.623
L235.605 379.754
L240.691 378.671
L245.777 378.7
L250.863 378.414
L255.949 378.649
L261.035 378.619
L266.122 377.04
L271.208 379.996
L276.294 379.198
L281.38 377.054
L286.466 377.27
L291.552 377.089
L296.639 378.785
L301.725 378.542
L306.811 378.474
L311.897 379.01
L316.983 377.238
L322.069 378.405
L327.156 378.608
L332.242 377.204
L337.328 378.868
L342.414 377.038
L347.5 379.386
L352.586 378.597
L357.673 378.68
L362.759 378.223
L367.845 377.237
L372.931 377.806
L378.017 378.883
L383.103 377.264
L393.276 378.721
L398.362 378.907
L403.448 378.495
L408.534 377.192
L413.62 378.114
L418.707 378.506
L423.793 378.545
L428.879 377.494
L433.965 377.267
L439.051 378.536
L444.137 376.956
L449.224 378.765
L454.31 378.934
L459.396 377.714
L464.482 378.75
L474.655 378.414
L479.741 378.592
L484.827 377.488
L489.913 378.871
L494.999 379.564
L500.085 379.34
L505.172 377.683
L510.258 376.214
L520.43 377.673
L525.516 376.82
L530.602 378.499
L535.689 377.316
L540.775 378.796
L545.861 378.36
L550.947 378.901
L556.033 378.258
L561.119 378.428
L566.206 378.798
L571.292 380.047
L576.378 377.229
L581.464 377.021
L586.55 377.188
L591.636 377.791
L596.723 378.919
L601.809 379.06
L606.895 378.837
L611.981 378.429
L617.067 378.906
L622.153 378.857
L627.24 377.585
L632.326 380.027
L637.412 378.565
L642.498 363.142
L647.584 377.782
L652.67 377.104
L657.757 378.409
L662.843 378.708
L673.015 378.83
L678.101 377.661
L683.187 379.858
L688.274 377.35
L693.36 378.463
L698.446 378.668
L703.532 378.729
L708.618 377.303
L713.705 377.324
L718.791 378.374
L723.877 378.562
L728.963 378.427
L734.049 376.881
L739.135 379.62
L744.222 377.538
L749.308 379.926
L754.394 378.058
L759.48 378.127
L764.566 379.686
L769.652 378.937
L784.911 378.405
L795.083 378.66
L800.169 377.43
L805.256 378.658
L810.342 377.235
L815.428 379.978
L820.514 376.227
L825.6 378.572
L830.686 377.663
L835.773 377.541
L840.859 379.021
L845.945 378.746
L851.031 378.684
L856.117 378.058
L861.203 378.539
L866.29 378.573
L871.376 378.718
L876.462 377.379
L881.548 377.297
L886.634 379.885
L891.72 379.81
L896.807 377.483
L901.893 378.233
L906.979 378.787
L912.065 378.793
L917.151 377.361
L922.237 377.343
L927.324 378.71
L932.41 377.211
L937.496 378.655
L942.582 377.355
L947.668 379.277
L952.754 379.529
L957.841 379.25
L962.927 377.217
L968.013 377.018
L973.099 375.559
L978.185 376.759
L983.272 376.663
L988.358 377.854
L993.444 374.616
L1008.7 378.016
L1013.79 376.614
L1018.87 375.799
L1023.96 377.293
L1029.05 377.109
L1034.13 376.725
L1039.22 376.462
L1044.31 376.942
L1049.39 376.861
L1054.48 376.902
L1059.56 375.135
L1064.65 376.998
L1069.74 375.381
L1074.82 375.365
L1079.91 376.404
L1090.08 377.115
L1095.17 377.65
L1100.25 376.24
L1105.34 375.072
L1110.43 376.617
L1115.51 376.558
L1120.6 375.397
L1125.68 376.361
L1130.77 377.165
L1135.86 376.681
L1140.94 376.763
L1146.03 377.165
L1151.12 376.736
L1156.2 376.848
L1161.29 375.877
L1166.37 376.892
L1171.46 375.496
L1176.55 376.89
L1181.63 376.925
L1186.72 375.465
L1191.8 376.712
L1196.89 376.893
L1201.98 376.93
L1207.06 378.084
L1212.15 376.881
L1217.24 375.49
L1222.32 375.594
L1227.41 377.983
L1232.49 376.435
L1237.58 375.79
L1242.67 375.577
L1247.75 376.329
L1252.84 376.866
L1257.92 375.22
L1263.01 376.921
L1268.1 376.425
L1273.18 377.605
L1278.27 375.545
L1283.36 377.333
L1288.44 378.558
L1293.53 378.039
L1298.61 380.218
L1303.7 378.814
L1308.79 378.732
L1318.96 378.924
L1324.04 377.203
L1329.13 377.632
L1334.22 379.63
L1339.3 378.591
L1349.48 378.81
L1354.56 378.936
L1359.65 378.814
L1364.73 377.599
L1369.82 376.118
L1374.91 376.813
L1379.99 378.617
L1385.08 378.545
L1390.17 376.778
L1395.25 377.101
L1400.34 377.674
L1405.42 379.942
L1410.51 378.12
L1415.6 378.739
L1420.68 378.761
L1430.85 378.543
L1435.94 377.584
L1441.03 378.607
L1446.11 380.057
L1451.2 378.926
L1456.29 377.411
L1461.37 377.609
L1466.46 377.093
L1471.54 377.501
L1471.54 377.501" style="fill:none;stroke:#00bfbf;"/>
   </g>
   <g id="matplotlib.axis_1">
    <g id="xtick_1">
     <g id="line2d_5">
      <path clip-path="url(#p888dfa254e)" d="
M205.088 601.83
L205.088 66.87" style="fill:none;stroke:#000000;stroke-dasharray:1.000000,3.000000;stroke-dashoffset:0.0;stroke-linecap:butt;stroke-width:0.5;"/>
     </g>
     <g id="line2d_6">
      <defs>
       <path d="
M0 0
L0 -4" id="m0012dd4eef" style="stroke:#000000;stroke-linecap:butt;stroke-width:0.5;"/>
      </defs>
      <g>
       <use style="stroke:#000000;stroke-linecap:butt;stroke-width:0.5;" x="205.0875" xlink:href="#m0012dd4eef" y="601.83"/>
      </g>
     </g>
     <g id="line2d_7">
      <defs>
       <path d="
M0 0
L0 4" id="m476344969c" style="stroke:#000000;stroke-linecap:butt;stroke-width:0.5;"/>
      </defs>
      <g>
       <use style="stroke:#000000;stroke-linecap:butt;stroke-width:0.5;" x="205.0875" xlink:href="#m476344969c" y="66.87"/>
      </g>
     </g>
     <g id="text_1">
      <!-- 0 -->
      <defs>
       <path d="
M31.7812 66.4062
Q24.1719 66.4062 20.3281 58.9062
Q16.5 51.4219 16.5 36.375
Q16.5 21.3906 20.3281 13.8906
Q24.1719 6.39062 31.7812 6.39062
Q39.4531 6.39062 43.2812 13.8906
Q47.125 21.3906 47.125 36.375
Q47.125 51.4219 43.2812 58.9062
Q39.4531 66.4062 31.7812 66.4062
M31.7812 74.2188
Q44.0469 74.2188 50.5156 64.5156
Q56.9844 54.8281 56.9844 36.375
Q56.9844 17.9688 50.5156 8.26562
Q44.0469 -1.42188 31.7812 -1.42188
Q19.5312 -1.42188 13.0625 8.26562
Q6.59375 17.9688 6.59375 36.375
Q6.59375 54.8281 13.0625 64.5156
Q19.5312 74.2188 31.7812 74.2188" id="DejaVuSans-30"/>
      </defs>
      <g transform="translate(202.0640625 614.73625)scale(0.12 -0.12)">
       <use xlink:href="#DejaVuSans-30"/>
      </g>
     </g>
    </g>
    <g id="xtick_2">
     <g id="line2d_8">
      <path clip-path="url(#p888dfa254e)" d="
M459.396 601.83
L459.396 66.87" style="fill:none;stroke:#000000;stroke-dasharray:1.000000,3.000000;stroke-dashoffset:0.0;stroke-linecap:butt;stroke-width:0.5;"/>
     </g>
     <g id="line2d_9">
      <g>
       <use style="stroke:#000000;stroke-linecap:butt;stroke-width:0.5;" x="459.396" xlink:href="#m0012dd4eef" y="601.83"/>
      </g>
     </g>
     <g id="line2d_10">
      <g>
       <use style="stroke:#000000;stroke-linecap:butt;stroke-width:0.5;" x="459.396" xlink:href="#m476344969c" y="66.87"/>
      </g>
     </g>
     <g id="text_2">
      <!-- 50 -->
      <defs>
       <path d="
M10.7969 72.9062
L49.5156 72.9062
L49.5156 64.5938
L19.8281 64.5938
L19.8281 46.7344
Q21.9688 47.4688 24.1094 47.8281
Q26.2656 48.1875 28.4219 48.1875
Q40.625 48.1875 47.75 41.5
Q54.8906 34.8125 54.8906 23.3906
Q54.8906 11.625 47.5625 5.09375
Q40.2344 -1.42188 26.9062 -1.42188
Q22.3125 -1.42188 17.5469 -0.640625
Q12.7969 0.140625 7.71875 1.70312
L7.71875 11.625
Q12.1094 9.23438 16.7969 8.0625
Q21.4844 6.89062 26.7031 6.89062
Q35.1562 6.89062 40.0781 11.3281
Q45.0156 15.7656 45.0156 23.3906
Q45.0156 31 40.0781 35.4375
Q35.1562 39.8906 26.7031 39.8906
Q22.75 39.8906 18.8125 39.0156
Q14.8906 38.1406 10.7969 36.2812
z
" id="DejaVuSans-35"/>
      </defs>
      <g transform="translate(452.6225625 614.73625)scale(0.12 -0.12)">
       <use xlink:href="#DejaVuSans-35"/>
       <use x="63.623046875" xlink:href="#DejaVuSans-30"/>
      </g>
     </g>
    </g>
    <g id="xtick_3">
     <g id="line2d_11">
      <path clip-path="url(#p888dfa254e)" d="
M713.705 601.83
L713.705 66.87" style="fill:none;stroke:#000000;stroke-dasharray:1.000000,3.000000;stroke-dashoffset:0.0;stroke-linecap:butt;stroke-width:0.5;"/>
     </g>
     <g id="line2d_12">
      <g>
       <use style="stroke:#000000;stroke-linecap:butt;stroke-width:0.5;" x="713.7045" xlink:href="#m0012dd4eef" y="601.83"/>
      </g>
     </g>
     <g id="line2d_13">
      <g>
       <use style="stroke:#000000;stroke-linecap:butt;stroke-width:0.5;" x="713.7045" xlink:href="#m476344969c" y="66.87"/>
      </g>
     </g>
     <g id="text_3">
      <!-- 100 -->
      <defs>
       <path d="
M12.4062 8.29688
L28.5156 8.29688
L28.5156 63.9219
L10.9844 60.4062
L10.9844 69.3906
L28.4219 72.9062
L38.2812 72.9062
L38.2812 8.29688
L54.3906 8.29688
L54.3906 0
L12.4062 0
z
" id="DejaVuSans-31"/>
      </defs>
      <g transform="translate(703.3095 614.73625)scale(0.12 -0.12)">
       <use xlink:href="#DejaVuSans-31"/>
       <use x="63.623046875" xlink:href="#DejaVuSans-30"/>
       <use x="127.24609375" xlink:href="#DejaVuSans-30"/>
      </g>
     </g>
    </g>
    <g id="xtick_4">
     <g id="line2d_14">
      <path clip-path="url(#p888dfa254e)" d="
M968.013 601.83
L968.013 66.87" style="fill:none;stroke:#000000;stroke-dasharray:1.000000,3.000000;stroke-dashoffset:0.0;stroke-linecap:butt;stroke-width:0.5;"/>
     </g>
     <g id="line2d_15">
      <g>
       <use style="stroke:#000000;stroke-linecap:butt;stroke-width:0.5;" x="968.013" xlink:href="#m0012dd4eef" y="601.83"/>
      </g>
     </g>
     <g id="line2d_16">
      <g>
       <use style="stroke:#000000;stroke-linecap:butt;stroke-width:0.5;" x="968.013" xlink:href="#m476344969c" y="66.87"/>
      </g>
     </g>
     <g id="text_4">
      <!-- 150 -->
      <g transform="translate(957.618 614.73625)scale(0.12 -0.12)">
       <use xlink:href="#DejaVuSans-31"/>
       <use x="63.623046875" xlink:href="#DejaVuSans-35"/>
       <use x="127.24609375" xlink:href="#DejaVuSans-30"/>
      </g>
     </g>
    </g>
    <g id="xtick_5">
     <g id="line2d_17">
      <path clip-path="url(#p888dfa254e)" d="
M1222.32 601.83
L1222.32 66.87" style="fill:none;stroke:#000000;stroke-dasharray:1.000000,3.000000;stroke-dashoffset:0.0;stroke-linecap:butt;stroke-width:0.5;"/>
     </g>
     <g id="line2d_18">
      <g>
       <use style="stroke:#000000;stroke-linecap:butt;stroke-width:0.5;" x="1222.3215" xlink:href="#m0012dd4eef" y="601.83"/>
      </g>
     </g>
     <g id="line2d_19">
      <g>
       <use style="stroke:#000000;stroke-linecap:butt;stroke-width:0.5;" x="1222.3215" xlink:href="#m476344969c" y="66.87"/>
      </g>
     </g>
     <g id="text_5">
      <!-- 200 -->
      <defs>
       <path d="
M19.1875 8.29688
L53.6094 8.29688
L53.6094 0
L7.32812 0
L7.32812 8.29688
Q12.9375 14.1094 22.625 23.8906
Q32.3281 33.6875 34.8125 36.5312
Q39.5469 41.8438 41.4219 45.5312
Q43.3125 49.2188 43.3125 52.7812
Q43.3125 58.5938 39.2344 62.25
Q35.1562 65.9219 28.6094 65.9219
Q23.9688 65.9219 18.8125 64.3125
Q13.6719 62.7031 7.8125 59.4219
L7.8125 69.3906
Q13.7656 71.7812 18.9375 73
Q24.125 74.2188 28.4219 74.2188
Q39.75 74.2188 46.4844 68.5469
Q53.2188 62.8906 53.2188 53.4219
Q53.2188 48.9219 51.5312 44.8906
Q49.8594 40.875 45.4062 35.4062
Q44.1875 33.9844 37.6406 27.2188
Q31.1094 20.4531 19.1875 8.29688" id="DejaVuSans-32"/>
      </defs>
      <g transform="translate(1211.707125 614.73625)scale(0.12 -0.12)">
       <use xlink:href="#DejaVuSans-32"/>
       <use x="63.623046875" xlink:href="#DejaVuSans-30"/>
       <use x="127.24609375" xlink:href="#DejaVuSans-30"/>
      </g>
     </g>
    </g>
    <g id="xtick_6">
     <g id="line2d_20">
      <path clip-path="url(#p888dfa254e)" d="
M1476.63 601.83
L1476.63 66.87" style="fill:none;stroke:#000000;stroke-dasharray:1.000000,3.000000;stroke-dashoffset:0.0;stroke-linecap:butt;stroke-width:0.5;"/>
     </g>
     <g id="line2d_21">
      <g>
       <use style="stroke:#000000;stroke-linecap:butt;stroke-width:0.5;" x="1476.63" xlink:href="#m0012dd4eef" y="601.83"/>
      </g>
     </g>
     <g id="line2d_22">
      <g>
       <use style="stroke:#000000;stroke-linecap:butt;stroke-width:0.5;" x="1476.63" xlink:href="#m476344969c" y="66.87"/>
      </g>
     </g>
     <g id="text_6">
      <!-- 250 -->
      <g transform="translate(1466.015625 614.73625)scale(0.12 -0.12)">
       <use xlink:href="#DejaVuSans-32"/>
       <use x="63.623046875" xlink:href="#DejaVuSans-35"/>
       <use x="127.24609375" xlink:href="#DejaVuSans-30"/>
      </g>
     </g>
    </g>
   </g>
   <g id="matplotlib.axis_2">
    <g id="ytick_1">
     <g id="line2d_23">
      <path clip-path="url(#p888dfa254e)" d="
M205.088 601.83
L1476.63 601.83" style="fill:none;stroke:#000000;stroke-dasharray:1.000000,3.000000;stroke-dashoffset:0.0;stroke-linecap:butt;stroke-width:0.5;"/>
     </g>
     <g id="line2d_24">
      <defs>
       <path d="
M0 0
L4 0" id="me8a85f7bf6" style="stroke:#000000;stroke-linecap:butt;stroke-width:0.5;"/>
      </defs>
      <g>
       <use style="stroke:#000000;stroke-linecap:butt;stroke-width:0.5;" x="205.0875" xlink:href="#me8a85f7bf6" y="601.83"/>
      </g>
     </g>
     <g id="line2d_25">
      <defs>
       <path d="
M0 0
L-4 0" id="m1a32005dea" style="stroke:#000000;stroke-linecap:butt;stroke-width:0.5;"/>
      </defs>
      <g>
       <use style="stroke:#000000;stroke-linecap:butt;stroke-width:0.5;" x="1476.63" xlink:href="#m1a32005dea" y="601.83"/>
      </g>
     </g>
     <g id="text_7">
      <!-- 0 -->
      <g transform="translate(195.040625 606.1978125)scale(0.12 -0.12)">
       <use xlink:href="#DejaVuSans-30"/>
      </g>
     </g>
    </g>
    <g id="ytick_2">
     <g id="line2d_26">
      <path clip-path="url(#p888dfa254e)" d="
M205.088 525.407
L1476.63 525.407" style="fill:none;stroke:#000000;stroke-dasharray:1.000000,3.000000;stroke-dashoffset:0.0;stroke-linecap:butt;stroke-width:0.5;"/>
     </g>
     <g id="line2d_27">
      <g>
       <use style="stroke:#000000;stroke-linecap:butt;stroke-width:0.5;" x="205.0875" xlink:href="#me8a85f7bf6" y="525.407142857"/>
      </g>
     </g>
     <g id="line2d_28">
      <g>
       <use style="stroke:#000000;stroke-linecap:butt;stroke-width:0.5;" x="1476.63" xlink:href="#m1a32005dea" y="525.407142857"/>
      </g>
     </g>
     <g id="text_8">
      <!-- 100000 -->
      <g transform="translate(157.3925 529.774955357)scale(0.12 -0.12)">
       <use xlink:href="#DejaVuSans-31"/>
       <use x="63.623046875" xlink:href="#DejaVuSans-30"/>
       <use x="127.24609375" xlink:href="#DejaVuSans-30"/>
       <use x="190.869140625" xlink:href="#DejaVuSans-30"/>
       <use x="254.4921875" xlink:href="#DejaVuSans-30"/>
       <use x="318.115234375" xlink:href="#DejaVuSans-30"/>
      </g>
     </g>
    </g>
    <g id="ytick_3">
     <g id="line2d_29">
      <path clip-path="url(#p888dfa254e)" d="
M205.088 448.984
L1476.63 448.984" style="fill:none;stroke:#000000;stroke-dasharray:1.000000,3.000000;stroke-dashoffset:0.0;stroke-linecap:butt;stroke-width:0.5;"/>
     </g>
     <g id="line2d_30">
      <g>
       <use style="stroke:#000000;stroke-linecap:butt;stroke-width:0.5;" x="205.0875" xlink:href="#me8a85f7bf6" y="448.984285714"/>
      </g>
     </g>
     <g id="line2d_31">
      <g>
       <use style="stroke:#000000;stroke-linecap:butt;stroke-width:0.5;" x="1476.63" xlink:href="#m1a32005dea" y="448.984285714"/>
      </g>
     </g>
     <g id="text_9">
      <!-- 200000 -->
      <g transform="translate(156.95375 453.352098214)scale(0.12 -0.12)">
       <use xlink:href="#DejaVuSans-32"/>
       <use x="63.623046875" xlink:href="#DejaVuSans-30"/>
       <use x="127.24609375" xlink:href="#DejaVuSans-30"/>
       <use x="190.869140625" xlink:href="#DejaVuSans-30"/>
       <use x="254.4921875" xlink:href="#DejaVuSans-30"/>
       <use x="318.115234375" xlink:href="#DejaVuSans-30"/>
      </g>
     </g>
    </g>
    <g id="ytick_4">
     <g id="line2d_32">
      <path clip-path="url(#p888dfa254e)" d="
M205.088 372.561
L1476.63 372.561" style="fill:none;stroke:#000000;stroke-dasharray:1.000000,3.000000;stroke-dashoffset:0.0;stroke-linecap:butt;stroke-width:0.5;"/>
     </g>
     <g id="line2d_33">
      <g>
       <use style="stroke:#000000;stroke-linecap:butt;stroke-width:0.5;" x="205.0875" xlink:href="#me8a85f7bf6" y="372.561428571"/>
      </g>
     </g>
     <g id="line2d_34">
      <g>
       <use style="stroke:#000000;stroke-linecap:butt;stroke-width:0.5;" x="1476.63" xlink:href="#m1a32005dea" y="372.561428571"/>
      </g>
     </g>
     <g id="text_10">
      <!-- 300000 -->
      <defs>
       <path d="
M40.5781 39.3125
Q47.6562 37.7969 51.625 33
Q55.6094 28.2188 55.6094 21.1875
Q55.6094 10.4062 48.1875 4.48438
Q40.7656 -1.42188 27.0938 -1.42188
Q22.5156 -1.42188 17.6562 -0.515625
Q12.7969 0.390625 7.625 2.20312
L7.625 11.7188
Q11.7188 9.32812 16.5938 8.10938
Q21.4844 6.89062 26.8125 6.89062
Q36.0781 6.89062 40.9375 10.5469
Q45.7969 14.2031 45.7969 21.1875
Q45.7969 27.6406 41.2812 31.2656
Q36.7656 34.9062 28.7188 34.9062
L20.2188 34.9062
L20.2188 43.0156
L29.1094 43.0156
Q36.375 43.0156 40.2344 45.9219
Q44.0938 48.8281 44.0938 54.2969
Q44.0938 59.9062 40.1094 62.9062
Q36.1406 65.9219 28.7188 65.9219
Q24.6562 65.9219 20.0156 65.0312
Q15.375 64.1562 9.8125 62.3125
L9.8125 71.0938
Q15.4375 72.6562 20.3438 73.4375
Q25.25 74.2188 29.5938 74.2188
Q40.8281 74.2188 47.3594 69.1094
Q53.9062 64.0156 53.9062 55.3281
Q53.9062 49.2656 50.4375 45.0938
Q46.9688 40.9219 40.5781 39.3125" id="DejaVuSans-33"/>
      </defs>
      <g transform="translate(156.989375 376.929241071)scale(0.12 -0.12)">
       <use xlink:href="#DejaVuSans-33"/>
       <use x="63.623046875" xlink:href="#DejaVuSans-30"/>
       <use x="127.24609375" xlink:href="#DejaVuSans-30"/>
       <use x="190.869140625" xlink:href="#DejaVuSans-30"/>
       <use x="254.4921875" xlink:href="#DejaVuSans-30"/>
       <use x="318.115234375" xlink:href="#DejaVuSans-30"/>
      </g>
     </g>
    </g>
    <g id="ytick_5">
     <g id="line2d_35">
      <path clip-path="url(#p888dfa254e)" d="
M205.088 296.139
L1476.63 296.139" style="fill:none;stroke:#000000;stroke-dasharray:1.000000,3.000000;stroke-dashoffset:0.0;stroke-linecap:butt;stroke-width:0.5;"/>
     </g>
     <g id="line2d_36">
      <g>
       <use style="stroke:#000000;stroke-linecap:butt;stroke-width:0.5;" x="205.0875" xlink:href="#me8a85f7bf6" y="296.138571429"/>
      </g>
     </g>
     <g id="line2d_37">
      <g>
       <use style="stroke:#000000;stroke-linecap:butt;stroke-width:0.5;" x="1476.63" xlink:href="#m1a32005dea" y="296.138571429"/>
      </g>
     </g>
     <g id="text_11">
      <!-- 400000 -->
      <defs>
       <path d="
M37.7969 64.3125
L12.8906 25.3906
L37.7969 25.3906
z

M35.2031 72.9062
L47.6094 72.9062
L47.6094 25.3906
L58.0156 25.3906
L58.0156 17.1875
L47.6094 17.1875
L47.6094 0
L37.7969 0
L37.7969 17.1875
L4.89062 17.1875
L4.89062 26.7031
z
" id="DejaVuSans-34"/>
      </defs>
      <g transform="translate(156.66125 300.506383929)scale(0.12 -0.12)">
       <use xlink:href="#DejaVuSans-34"/>
       <use x="63.623046875" xlink:href="#DejaVuSans-30"/>
       <use x="127.24609375" xlink:href="#DejaVuSans-30"/>
       <use x="190.869140625" xlink:href="#DejaVuSans-30"/>
       <use x="254.4921875" xlink:href="#DejaVuSans-30"/>
       <use x="318.115234375" xlink:href="#DejaVuSans-30"/>
      </g>
     </g>
    </g>
    <g id="ytick_6">
     <g id="line2d_38">
      <path clip-path="url(#p888dfa254e)" d="
M205.088 219.716
L1476.63 219.716" style="fill:none;stroke:#000000;stroke-dasharray:1.000000,3.000000;stroke-dashoffset:0.0;stroke-linecap:butt;stroke-width:0.5;"/>
     </g>
     <g id="line2d_39">
      <g>
       <use style="stroke:#000000;stroke-linecap:butt;stroke-width:0.5;" x="205.0875" xlink:href="#me8a85f7bf6" y="219.715714286"/>
      </g>
     </g>
     <g id="line2d_40">
      <g>
       <use style="stroke:#000000;stroke-linecap:butt;stroke-width:0.5;" x="1476.63" xlink:href="#m1a32005dea" y="219.715714286"/>
      </g>
     </g>
     <g id="text_12">
      <!-- 500000 -->
      <g transform="translate(157.000625 224.083526786)scale(0.12 -0.12)">
       <use xlink:href="#DejaVuSans-35"/>
       <use x="63.623046875" xlink:href="#DejaVuSans-30"/>
       <use x="127.24609375" xlink:href="#DejaVuSans-30"/>
       <use x="190.869140625" xlink:href="#DejaVuSans-30"/>
       <use x="254.4921875" xlink:href="#DejaVuSans-30"/>
       <use x="318.115234375" xlink:href="#DejaVuSans-30"/>
      </g>
     </g>
    </g>
    <g id="ytick_7">
     <g id="line2d_41">
      <path clip-path="url(#p888dfa254e)" d="
M205.088 143.293
L1476.63 143.293" style="fill:none;stroke:#000000;stroke-dasharray:1.000000,3.000000;stroke-dashoffset:0.0;stroke-linecap:butt;stroke-width:0.5;"/>
     </g>
     <g id="line2d_42">
      <g>
       <use style="stroke:#000000;stroke-linecap:butt;stroke-width:0.5;" x="205.0875" xlink:href="#me8a85f7bf6" y="143.292857143"/>
      </g>
     </g>
     <g id="line2d_43">
      <g>
       <use style="stroke:#000000;stroke-linecap:butt;stroke-width:0.5;" x="1476.63" xlink:href="#m1a32005dea" y="143.292857143"/>
      </g>
     </g>
     <g id="text_13">
      <!-- 600000 -->
      <defs>
       <path d="
M33.0156 40.375
Q26.375 40.375 22.4844 35.8281
Q18.6094 31.2969 18.6094 23.3906
Q18.6094 15.5312 22.4844 10.9531
Q26.375 6.39062 33.0156 6.39062
Q39.6562 6.39062 43.5312 10.9531
Q47.4062 15.5312 47.4062 23.3906
Q47.4062 31.2969 43.5312 35.8281
Q39.6562 40.375 33.0156 40.375
M52.5938 71.2969
L52.5938 62.3125
Q48.875 64.0625 45.0938 64.9844
Q41.3125 65.9219 37.5938 65.9219
Q27.8281 65.9219 22.6719 59.3281
Q17.5312 52.7344 16.7969 39.4062
Q19.6719 43.6562 24.0156 45.9219
Q28.375 48.1875 33.5938 48.1875
Q44.5781 48.1875 50.9531 41.5156
Q57.3281 34.8594 57.3281 23.3906
Q57.3281 12.1562 50.6875 5.35938
Q44.0469 -1.42188 33.0156 -1.42188
Q20.3594 -1.42188 13.6719 8.26562
Q6.98438 17.9688 6.98438 36.375
Q6.98438 53.6562 15.1875 63.9375
Q23.3906 74.2188 37.2031 74.2188
Q40.9219 74.2188 44.7031 73.4844
Q48.4844 72.75 52.5938 71.2969" id="DejaVuSans-36"/>
      </defs>
      <g transform="translate(156.9125 147.660669643)scale(0.12 -0.12)">
       <use xlink:href="#DejaVuSans-36"/>
       <use x="63.623046875" xlink:href="#DejaVuSans-30"/>
       <use x="127.24609375" xlink:href="#DejaVuSans-30"/>
       <use x="190.869140625" xlink:href="#DejaVuSans-30"/>
       <use x="254.4921875" xlink:href="#DejaVuSans-30"/>
       <use x="318.115234375" xlink:href="#DejaVuSans-30"/>
      </g>
     </g>
    </g>
    <g id="ytick_8">
     <g id="line2d_44">
      <path clip-path="url(#p888dfa254e)" d="
M205.088 66.87
L1476.63 66.87" style="fill:none;stroke:#000000;stroke-dasharray:1.000000,3.000000;stroke-dashoffset:0.0;stroke-linecap:butt;stroke-width:0.5;"/>
     </g>
     <g id="line2d_45">
      <g>
       <use style="stroke:#000000;stroke-linecap:butt;stroke-width:0.5;" x="205.0875" xlink:href="#me8a85f7bf6" y="66.87"/>
      </g>
     </g>
     <g id="line2d_46">
      <g>
       <use style="stroke:#000000;stroke-linecap:butt;stroke-width:0.5;" x="1476.63" xlink:href="#m1a32005dea" y="66.87"/>
      </g>
     </g>
     <g id="text_14">
      <!-- 700000 -->
      <defs>
       <path d="
M8.20312 72.9062
L55.0781 72.9062
L55.0781 68.7031
L28.6094 0
L18.3125 0
L43.2188 64.5938
L8.20312 64.5938
z
" id="DejaVuSans-37"/>
      </defs>
      <g transform="translate(157.05875 71.2378125)scale(0.12 -0.12)">
       <use xlink:href="#DejaVuSans-37"/>
       <use x="63.623046875" xlink:href="#DejaVuSans-30"/>
       <use x="127.24609375" xlink:href="#DejaVuSans-30"/>
       <use x="190.869140625" xlink:href="#DejaVuSans-30"/>
       <use x="254.4921875" xlink:href="#DejaVuSans-30"/>
       <use x="318.115234375" xlink:href="#DejaVuSans-30"/>
      </g>
     </g>
    </g>
   </g>
   <g id="patch_3">
    <path d="
M205.088 66.87
L1476.63 66.87" style="fill:none;stroke:#000000;"/>
   </g>
   <g id="patch_4">
    <path d="
M1476.63 601.83
L1476.63 66.87" style="fill:none;stroke:#000000;"/>
   </g>
   <g id="patch_5">
    <path d="
M205.088 601.83
L1476.63 601.83" style="fill:none;stroke:#000000;"/>
   </g>
   <g id="patch_6">
    <path d="
M205.088 601.83
L205.088 66.87" style="fill:none;stroke:#000000;"/>
   </g>
   <g id="legend_1">
    <g id="patch_7">
     <path d="
M1149.14 163.737
L1469.43 163.737
L1469.43 74.07
L1149.14 74.07
L1149.14 163.737
z
" style="fill:#ffffff;stroke:#000000;"/>
    </g>
    <g id="line2d_47">
     <path d="
M1159.22 85.7318
L1179.38 85.7318" style="fill:none;stroke:#0000ff;"/>
    </g>
    <g id="line2d_48"/>
    <g id="text_15">
     <!-- UnHalted Core Cycles -->
     <defs>
      <path d="
M30.6094 48.3906
Q23.3906 48.3906 19.1875 42.75
Q14.9844 37.1094 14.9844 27.2969
Q14.9844 17.4844 19.1562 11.8438
Q23.3438 6.20312 30.6094 6.20312
Q37.7969 6.20312 41.9844 11.8594
Q46.1875 17.5312 46.1875 27.2969
Q46.1875 37.0156 41.9844 42.7031
Q37.7969 48.3906 30.6094 48.3906
M30.6094 56
Q42.3281 56 49.0156 48.375
Q55.7188 40.7656 55.7188 27.2969
Q55.7188 13.875 49.0156 6.21875
Q42.3281 -1.42188 30.6094 -1.42188
Q18.8438 -1.42188 12.1719 6.21875
Q5.51562 13.875 5.51562 27.2969
Q5.51562 40.7656 12.1719 48.375
Q18.8438 56 30.6094 56" id="DejaVuSans-6f"/>
      <path d="
M54.8906 33.0156
L54.8906 0
L45.9062 0
L45.9062 32.7188
Q45.9062 40.4844 42.875 44.3281
Q39.8438 48.1875 33.7969 48.1875
Q26.5156 48.1875 22.3125 43.5469
Q18.1094 38.9219 18.1094 30.9062
L18.1094 0
L9.07812 0
L9.07812 54.6875
L18.1094 54.6875
L18.1094 46.1875
Q21.3438 51.125 25.7031 53.5625
Q30.0781 56 35.7969 56
Q45.2188 56 50.0469 50.1719
Q54.8906 44.3438 54.8906 33.0156" id="DejaVuSans-6e"/>
      <path d="
M9.42188 75.9844
L18.4062 75.9844
L18.4062 0
L9.42188 0
z
" id="DejaVuSans-6c"/>
      <path d="
M41.1094 46.2969
Q39.5938 47.1719 37.8125 47.5781
Q36.0312 48 33.8906 48
Q26.2656 48 22.1875 43.0469
Q18.1094 38.0938 18.1094 28.8125
L18.1094 0
L9.07812 0
L9.07812 54.6875
L18.1094 54.6875
L18.1094 46.1875
Q20.9531 51.1719 25.4844 53.5781
Q30.0312 56 36.5312 56
Q37.4531 56 38.5781 55.875
Q39.7031 55.7656 41.0625 55.5156
z
" id="DejaVuSans-72"/>
      <path id="DejaVuSans-20"/>
      <path d="
M32.1719 -5.07812
Q28.375 -14.8438 24.75 -17.8125
Q21.1406 -20.7969 15.0938 -20.7969
L7.90625 -20.7969
L7.90625 -13.2812
L13.1875 -13.2812
Q16.8906 -13.2812 18.9375 -11.5156
Q21 -9.76562 23.4844 -3.21875
L25.0938 0.875
L2.98438 54.6875
L12.5 54.6875
L29.5938 11.9219
L46.6875 54.6875
L56.2031 54.6875
z
" id="DejaVuSans-79"/>
      <path d="
M44.2812 53.0781
L44.2812 44.5781
Q40.4844 46.5312 36.375 47.5
Q32.2812 48.4844 27.875 48.4844
Q21.1875 48.4844 17.8438 46.4375
Q14.5 44.3906 14.5 40.2812
Q14.5 37.1562 16.8906 35.375
Q19.2812 33.5938 26.5156 31.9844
L29.5938 31.2969
Q39.1562 29.25 43.1875 25.5156
Q47.2188 21.7812 47.2188 15.0938
Q47.2188 7.46875 41.1875 3.01562
Q35.1562 -1.42188 24.6094 -1.42188
Q20.2188 -1.42188 15.4531 -0.5625
Q10.6875 0.296875 5.42188 2
L5.42188 11.2812
Q10.4062 8.6875 15.2344 7.39062
Q20.0625 6.10938 24.8125 6.10938
Q31.1562 6.10938 34.5625 8.28125
Q37.9844 10.4531 37.9844 14.4062
Q37.9844 18.0625 35.5156 20.0156
Q33.0625 21.9688 24.7031 23.7812
L21.5781 24.5156
Q13.2344 26.2656 9.51562 29.9062
Q5.8125 33.5469 5.8125 39.8906
Q5.8125 47.6094 11.2812 51.7969
Q16.75 56 26.8125 56
Q31.7812 56 36.1719 55.2656
Q40.5781 54.5469 44.2812 53.0781" id="DejaVuSans-73"/>
      <path d="
M64.4062 67.2812
L64.4062 56.8906
Q59.4219 61.5312 53.7812 63.8125
Q48.1406 66.1094 41.7969 66.1094
Q29.2969 66.1094 22.6562 58.4688
Q16.0156 50.8281 16.0156 36.375
Q16.0156 21.9688 22.6562 14.3281
Q29.2969 6.6875 41.7969 6.6875
Q48.1406 6.6875 53.7812 8.98438
Q59.4219 11.2812 64.4062 15.9219
L64.4062 5.60938
Q59.2344 2.09375 53.4375 0.328125
Q47.6562 -1.42188 41.2188 -1.42188
Q24.6562 -1.42188 15.125 8.70312
Q5.60938 18.8438 5.60938 36.375
Q5.60938 53.9531 15.125 64.0781
Q24.6562 74.2188 41.2188 74.2188
Q47.75 74.2188 53.5312 72.4844
Q59.3281 70.75 64.4062 67.2812" id="DejaVuSans-43"/>
      <path d="
M18.3125 70.2188
L18.3125 54.6875
L36.8125 54.6875
L36.8125 47.7031
L18.3125 47.7031
L18.3125 18.0156
Q18.3125 11.3281 20.1406 9.42188
Q21.9688 7.51562 27.5938 7.51562
L36.8125 7.51562
L36.8125 0
L27.5938 0
Q17.1875 0 13.2344 3.875
Q9.28125 7.76562 9.28125 18.0156
L9.28125 47.7031
L2.6875 47.7031
L2.6875 54.6875
L9.28125 54.6875
L9.28125 70.2188
z
" id="DejaVuSans-74"/>
      <path d="
M45.4062 46.3906
L45.4062 75.9844
L54.3906 75.9844
L54.3906 0
L45.4062 0
L45.4062 8.20312
Q42.5781 3.32812 38.25 0.953125
Q33.9375 -1.42188 27.875 -1.42188
Q17.9688 -1.42188 11.7344 6.48438
Q5.51562 14.4062 5.51562 27.2969
Q5.51562 40.1875 11.7344 48.0938
Q17.9688 56 27.875 56
Q33.9375 56 38.25 53.625
Q42.5781 51.2656 45.4062 46.3906
M14.7969 27.2969
Q14.7969 17.3906 18.875 11.75
Q22.9531 6.10938 30.0781 6.10938
Q37.2031 6.10938 41.2969 11.75
Q45.4062 17.3906 45.4062 27.2969
Q45.4062 37.2031 41.2969 42.8438
Q37.2031 48.4844 30.0781 48.4844
Q22.9531 48.4844 18.875 42.8438
Q14.7969 37.2031 14.7969 27.2969" id="DejaVuSans-64"/>
      <path d="
M56.2031 29.5938
L56.2031 25.2031
L14.8906 25.2031
Q15.4844 15.9219 20.4844 11.0625
Q25.4844 6.20312 34.4219 6.20312
Q39.5938 6.20312 44.4531 7.46875
Q49.3125 8.73438 54.1094 11.2812
L54.1094 2.78125
Q49.2656 0.734375 44.1875 -0.34375
Q39.1094 -1.42188 33.8906 -1.42188
Q20.7969 -1.42188 13.1562 6.1875
Q5.51562 13.8125 5.51562 26.8125
Q5.51562 40.2344 12.7656 48.1094
Q20.0156 56 32.3281 56
Q43.3594 56 49.7812 48.8906
Q56.2031 41.7969 56.2031 29.5938
M47.2188 32.2344
Q47.125 39.5938 43.0938 43.9844
Q39.0625 48.3906 32.4219 48.3906
Q24.9062 48.3906 20.3906 44.1406
Q15.875 39.8906 15.1875 32.1719
z
" id="DejaVuSans-65"/>
      <path d="
M9.8125 72.9062
L19.6719 72.9062
L19.6719 43.0156
L55.5156 43.0156
L55.5156 72.9062
L65.375 72.9062
L65.375 0
L55.5156 0
L55.5156 34.7188
L19.6719 34.7188
L19.6719 0
L9.8125 0
z
" id="DejaVuSans-48"/>
      <path d="
M48.7812 52.5938
L48.7812 44.1875
Q44.9688 46.2969 41.1406 47.3438
Q37.3125 48.3906 33.4062 48.3906
Q24.6562 48.3906 19.8125 42.8438
Q14.9844 37.3125 14.9844 27.2969
Q14.9844 17.2812 19.8125 11.7344
Q24.6562 6.20312 33.4062 6.20312
Q37.3125 6.20312 41.1406 7.25
Q44.9688 8.29688 48.7812 10.4062
L48.7812 2.09375
Q45.0156 0.34375 40.9844 -0.53125
Q36.9688 -1.42188 32.4219 -1.42188
Q20.0625 -1.42188 12.7812 6.34375
Q5.51562 14.1094 5.51562 27.2969
Q5.51562 40.6719 12.8594 48.3281
Q20.2188 56 33.0156 56
Q37.1562 56 41.1094 55.1406
Q45.0625 54.2969 48.7812 52.5938" id="DejaVuSans-63"/>
      <path d="
M8.6875 72.9062
L18.6094 72.9062
L18.6094 28.6094
Q18.6094 16.8906 22.8438 11.7344
Q27.0938 6.59375 36.625 6.59375
Q46.0938 6.59375 50.3438 11.7344
Q54.5938 16.8906 54.5938 28.6094
L54.5938 72.9062
L64.5 72.9062
L64.5 27.3906
Q64.5 13.1406 57.4375 5.85938
Q50.3906 -1.42188 36.625 -1.42188
Q22.7969 -1.42188 15.7344 5.85938
Q8.6875 13.1406 8.6875 27.3906
z
" id="DejaVuSans-55"/>
      <path d="
M34.2812 27.4844
Q23.3906 27.4844 19.1875 25
Q14.9844 22.5156 14.9844 16.5
Q14.9844 11.7188 18.1406 8.90625
Q21.2969 6.10938 26.7031 6.10938
Q34.1875 6.10938 38.7031 11.4062
Q43.2188 16.7031 43.2188 25.4844
L43.2188 27.4844
z

M52.2031 31.2031
L52.2031 0
L43.2188 0
L43.2188 8.29688
Q40.1406 3.32812 35.5469 0.953125
Q30.9531 -1.42188 24.3125 -1.42188
Q15.9219 -1.42188 10.9531 3.29688
Q6 8.01562 6 15.9219
Q6 25.1406 12.1719 29.8281
Q18.3594 34.5156 30.6094 34.5156
L43.2188 34.5156
L43.2188 35.4062
Q43.2188 41.6094 39.1406 45
Q35.0625 48.3906 27.6875 48.3906
Q23 48.3906 18.5469 47.2656
Q14.1094 46.1406 10.0156 43.8906
L10.0156 52.2031
Q14.9375 54.1094 19.5781 55.0469
Q24.2188 56 28.6094 56
Q40.4844 56 46.3438 49.8438
Q52.2031 43.7031 52.2031 31.2031" id="DejaVuSans-61"/>
     </defs>
     <g transform="translate(1195.218 90.77175)scale(0.144 -0.144)">
      <use xlink:href="#DejaVuSans-55"/>
      <use x="73.193359375" xlink:href="#DejaVuSans-6e"/>
      <use x="136.572265625" xlink:href="#DejaVuSans-48"/>
      <use x="211.767578125" xlink:href="#DejaVuSans-61"/>
      <use x="273.046875" xlink:href="#DejaVuSans-6c"/>
      <use x="300.830078125" xlink:href="#DejaVuSans-74"/>
      <use x="340.0390625" xlink:href="#DejaVuSans-65"/>
      <use x="401.5625" xlink:href="#DejaVuSans-64"/>
      <use x="465.0390625" xlink:href="#DejaVuSans-20"/>
      <use x="496.826171875" xlink:href="#DejaVuSans-43"/>
      <use x="566.650390625" xlink:href="#DejaVuSans-6f"/>
      <use x="627.83203125" xlink:href="#DejaVuSans-72"/>
      <use x="666.6953125" xlink:href="#DejaVuSans-65"/>
      <use x="728.21875" xlink:href="#DejaVuSans-20"/>
      <use x="760.005859375" xlink:href="#DejaVuSans-43"/>
      <use x="829.830078125" xlink:href="#DejaVuSans-79"/>
      <use x="889.009765625" xlink:href="#DejaVuSans-63"/>
      <use x="943.990234375" xlink:href="#DejaVuSans-6c"/>
      <use x="971.7734375" xlink:href="#DejaVuSans-65"/>
      <use x="1033.296875" xlink:href="#DejaVuSans-73"/>
     </g>
    </g>
    <g id="line2d_49">
     <path d="
M1159.22 106.868
L1179.38 106.868" style="fill:none;stroke:#008000;"/>
    </g>
    <g id="line2d_50"/>
    <g id="text_16">
     <!-- Branch Misses Retired -->
     <defs>
      <path d="
M9.8125 72.9062
L24.5156 72.9062
L43.1094 23.2969
L61.8125 72.9062
L76.5156 72.9062
L76.5156 0
L66.8906 0
L66.8906 64.0156
L48.0938 14.0156
L38.1875 14.0156
L19.3906 64.0156
L19.3906 0
L9.8125 0
z
" id="DejaVuSans-4d"/>
      <path d="
M44.3906 34.1875
Q47.5625 33.1094 50.5625 29.5938
Q53.5625 26.0781 56.5938 19.9219
L66.6094 0
L56 0
L46.6875 18.7031
Q43.0625 26.0312 39.6719 28.4219
Q36.2812 30.8125 30.4219 30.8125
L19.6719 30.8125
L19.6719 0
L9.8125 0
L9.8125 72.9062
L32.0781 72.9062
Q44.5781 72.9062 50.7344 67.6719
Q56.8906 62.4531 56.8906 51.9062
Q56.8906 45.0156 53.6875 40.4688
Q50.4844 35.9375 44.3906 34.1875
M19.6719 64.7969
L19.6719 38.9219
L32.0781 38.9219
Q39.2031 38.9219 42.8438 42.2188
Q46.4844 45.5156 46.4844 51.9062
Q46.4844 58.2969 42.8438 61.5469
Q39.2031 64.7969 32.0781 64.7969
z
" id="DejaVuSans-52"/>
      <path d="
M54.8906 33.0156
L54.8906 0
L45.9062 0
L45.9062 32.7188
Q45.9062 40.4844 42.875 44.3281
Q39.8438 48.1875 33.7969 48.1875
Q26.5156 48.1875 22.3125 43.5469
Q18.1094 38.9219 18.1094 30.9062
L18.1094 0
L9.07812 0
L9.07812 75.9844
L18.1094 75.9844
L18.1094 46.1875
Q21.3438 51.125 25.7031 53.5625
Q30.0781 56 35.7969 56
Q45.2188 56 50.0469 50.1719
Q54.8906 44.3438 54.8906 33.0156" id="DejaVuSans-68"/>
      <path d="
M19.6719 34.8125
L19.6719 8.10938
L35.5 8.10938
Q43.4531 8.10938 47.2812 11.4062
Q51.125 14.7031 51.125 21.4844
Q51.125 28.3281 47.2812 31.5625
Q43.4531 34.8125 35.5 34.8125
z

M19.6719 64.7969
L19.6719 42.8281
L34.2812 42.8281
Q41.5 42.8281 45.0312 45.5312
Q48.5781 48.25 48.5781 53.8125
Q48.5781 59.3281 45.0312 62.0625
Q41.5 64.7969 34.2812 64.7969
z

M9.8125 72.9062
L35.0156 72.9062
Q46.2969 72.9062 52.3906 68.2188
Q58.5 63.5312 58.5 54.8906
Q58.5 48.1875 55.375 44.2344
Q52.25 40.2812 46.1875 39.3125
Q53.4688 37.75 57.5 32.7812
Q61.5312 27.8281 61.5312 20.4062
Q61.5312 10.6406 54.8906 5.3125
Q48.25 0 35.9844 0
L9.8125 0
z
" id="DejaVuSans-42"/>
      <path d="
M9.42188 54.6875
L18.4062 54.6875
L18.4062 0
L9.42188 0
z

M9.42188 75.9844
L18.4062 75.9844
L18.4062 64.5938
L9.42188 64.5938
z
" id="DejaVuSans-69"/>
     </defs>
     <g transform="translate(1195.218 111.90825)scale(0.144 -0.144)">
      <use xlink:href="#DejaVuSans-42"/>
      <use x="68.603515625" xlink:href="#DejaVuSans-72"/>
      <use x="109.716796875" xlink:href="#DejaVuSans-61"/>
      <use x="170.99609375" xlink:href="#DejaVuSans-6e"/>
      <use x="234.375" xlink:href="#DejaVuSans-63"/>
      <use x="289.35546875" xlink:href="#DejaVuSans-68"/>
      <use x="352.734375" xlink:href="#DejaVuSans-20"/>
      <use x="384.521484375" xlink:href="#DejaVuSans-4d"/>
      <use x="470.80078125" xlink:href="#DejaVuSans-69"/>
      <use x="498.583984375" xlink:href="#DejaVuSans-73"/>
      <use x="550.68359375" xlink:href="#DejaVuSans-73"/>
      <use x="602.783203125" xlink:href="#DejaVuSans-65"/>
      <use x="664.306640625" xlink:href="#DejaVuSans-73"/>
      <use x="716.40625" xlink:href="#DejaVuSans-20"/>
      <use x="748.193359375" xlink:href="#DejaVuSans-52"/>
      <use x="813.17578125" xlink:href="#DejaVuSans-65"/>
      <use x="874.69921875" xlink:href="#DejaVuSans-74"/>
      <use x="913.908203125" xlink:href="#DejaVuSans-69"/>
      <use x="941.69140625" xlink:href="#DejaVuSans-72"/>
      <use x="980.5546875" xlink:href="#DejaVuSans-65"/>
      <use x="1042.078125" xlink:href="#DejaVuSans-64"/>
     </g>
    </g>
    <g id="line2d_51">
     <path d="
M1159.22 128.005
L1179.38 128.005" style="fill:none;stroke:#ff0000;"/>
    </g>
    <g id="line2d_52"/>
    <g id="text_17">
     <!-- LD_BLOCKS_PARTIAL.ADDRESS_ALIAS -->
     <defs>
      <path d="
M39.4062 66.2188
Q28.6562 66.2188 22.3281 58.2031
Q16.0156 50.2031 16.0156 36.375
Q16.0156 22.6094 22.3281 14.5938
Q28.6562 6.59375 39.4062 6.59375
Q50.1406 6.59375 56.4219 14.5938
Q62.7031 22.6094 62.7031 36.375
Q62.7031 50.2031 56.4219 58.2031
Q50.1406 66.2188 39.4062 66.2188
M39.4062 74.2188
Q54.7344 74.2188 63.9062 63.9375
Q73.0938 53.6562 73.0938 36.375
Q73.0938 19.1406 63.9062 8.85938
Q54.7344 -1.42188 39.4062 -1.42188
Q24.0312 -1.42188 14.8125 8.82812
Q5.60938 19.0938 5.60938 36.375
Q5.60938 53.6562 14.8125 63.9375
Q24.0312 74.2188 39.4062 74.2188" id="DejaVuSans-4f"/>
      <path d="
M9.8125 72.9062
L19.6719 72.9062
L19.6719 42.0938
L52.3906 72.9062
L65.0938 72.9062
L28.9062 38.9219
L67.6719 0
L54.6875 0
L19.6719 35.1094
L19.6719 0
L9.8125 0
z
" id="DejaVuSans-4b"/>
      <path d="
M9.8125 72.9062
L19.6719 72.9062
L19.6719 8.29688
L55.1719 8.29688
L55.1719 0
L9.8125 0
z
" id="DejaVuSans-4c"/>
      <path d="
M10.6875 12.4062
L21 12.4062
L21 0
L10.6875 0
z
" id="DejaVuSans-2e"/>
      <path d="
M50.9844 -16.6094
L50.9844 -23.5781
L-0.984375 -23.5781
L-0.984375 -16.6094
z
" id="DejaVuSans-5f"/>
      <path d="
M19.6719 64.7969
L19.6719 8.10938
L31.5938 8.10938
Q46.6875 8.10938 53.6875 14.9375
Q60.6875 21.7812 60.6875 36.5312
Q60.6875 51.1719 53.6875 57.9844
Q46.6875 64.7969 31.5938 64.7969
z

M9.8125 72.9062
L30.0781 72.9062
Q51.2656 72.9062 61.1719 64.0938
Q71.0938 55.2812 71.0938 36.5312
Q71.0938 17.6719 61.125 8.82812
Q51.1719 0 30.0781 0
L9.8125 0
z
" id="DejaVuSans-44"/>
      <path d="
M9.8125 72.9062
L55.9062 72.9062
L55.9062 64.5938
L19.6719 64.5938
L19.6719 43.0156
L54.3906 43.0156
L54.3906 34.7188
L19.6719 34.7188
L19.6719 8.29688
L56.7812 8.29688
L56.7812 0
L9.8125 0
z
" id="DejaVuSans-45"/>
      <path d="
M34.1875 63.1875
L20.7969 26.9062
L47.6094 26.9062
z

M28.6094 72.9062
L39.7969 72.9062
L67.5781 0
L57.3281 0
L50.6875 18.7031
L17.8281 18.7031
L11.1875 0
L0.78125 0
z
" id="DejaVuSans-41"/>
      <path d="
M53.5156 70.5156
L53.5156 60.8906
Q47.9062 63.5781 42.9219 64.8906
Q37.9375 66.2188 33.2969 66.2188
Q25.25 66.2188 20.875 63.0938
Q16.5 59.9688 16.5 54.2031
Q16.5 49.3594 19.4062 46.8906
Q22.3125 44.4375 30.4219 42.9219
L36.375 41.7031
Q47.4062 39.5938 52.6562 34.2969
Q57.9062 29 57.9062 20.125
Q57.9062 9.51562 50.7969 4.04688
Q43.7031 -1.42188 29.9844 -1.42188
Q24.8125 -1.42188 18.9688 -0.25
Q13.1406 0.921875 6.89062 3.21875
L6.89062 13.375
Q12.8906 10.0156 18.6562 8.29688
Q24.4219 6.59375 29.9844 6.59375
Q38.4219 6.59375 43.0156 9.90625
Q47.6094 13.2344 47.6094 19.3906
Q47.6094 24.75 44.3125 27.7812
Q41.0156 30.8125 33.5 32.3281
L27.4844 33.5
Q16.4531 35.6875 11.5156 40.375
Q6.59375 45.0625 6.59375 53.4219
Q6.59375 63.0938 13.4062 68.6562
Q20.2188 74.2188 32.1719 74.2188
Q37.3125 74.2188 42.625 73.2812
Q47.9531 72.3594 53.5156 70.5156" id="DejaVuSans-53"/>
      <path d="
M19.6719 64.7969
L19.6719 37.4062
L32.0781 37.4062
Q38.9688 37.4062 42.7188 40.9688
Q46.4844 44.5312 46.4844 51.125
Q46.4844 57.6719 42.7188 61.2344
Q38.9688 64.7969 32.0781 64.7969
z

M9.8125 72.9062
L32.0781 72.9062
Q44.3438 72.9062 50.6094 67.3594
Q56.8906 61.8125 56.8906 51.125
Q56.8906 40.3281 50.6094 34.8125
Q44.3438 29.2969 32.0781 29.2969
L19.6719 29.2969
L19.6719 0
L9.8125 0
z
" id="DejaVuSans-50"/>
      <path d="
M9.8125 72.9062
L19.6719 72.9062
L19.6719 0
L9.8125 0
z
" id="DejaVuSans-49"/>
      <path d="
M-0.296875 72.9062
L61.375 72.9062
L61.375 64.5938
L35.5 64.5938
L35.5 0
L25.5938 0
L25.5938 64.5938
L-0.296875 64.5938
z
" id="DejaVuSans-54"/>
     </defs>
     <g transform="translate(1195.218 133.04475)scale(0.144 -0.144)">
      <use xlink:href="#DejaVuSans-4c"/>
      <use x="55.712890625" xlink:href="#DejaVuSans-44"/>
      <use x="132.71484375" xlink:href="#DejaVuSans-5f"/>
      <use x="182.71484375" xlink:href="#DejaVuSans-42"/>
      <use x="251.318359375" xlink:href="#DejaVuSans-4c"/>
      <use x="303.40625" xlink:href="#DejaVuSans-4f"/>
      <use x="382.1171875" xlink:href="#DejaVuSans-43"/>
      <use x="451.94140625" xlink:href="#DejaVuSans-4b"/>
      <use x="517.517578125" xlink:href="#DejaVuSans-53"/>
      <use x="580.994140625" xlink:href="#DejaVuSans-5f"/>
      <use x="630.994140625" xlink:href="#DejaVuSans-50"/>
      <use x="684.921875" xlink:href="#DejaVuSans-41"/>
      <use x="753.330078125" xlink:href="#DejaVuSans-52"/>
      <use x="815.5625" xlink:href="#DejaVuSans-54"/>
      <use x="876.646484375" xlink:href="#DejaVuSans-49"/>
      <use x="906.138671875" xlink:href="#DejaVuSans-41"/>
      <use x="974.546875" xlink:href="#DejaVuSans-4c"/>
      <use x="1030.25976562" xlink:href="#DejaVuSans-2e"/>
      <use x="1062.046875" xlink:href="#DejaVuSans-41"/>
      <use x="1130.45507812" xlink:href="#DejaVuSans-44"/>
      <use x="1207.45703125" xlink:href="#DejaVuSans-44"/>
      <use x="1284.45898438" xlink:href="#DejaVuSans-52"/>
      <use x="1353.94140625" xlink:href="#DejaVuSans-45"/>
      <use x="1417.125" xlink:href="#DejaVuSans-53"/>
      <use x="1480.6015625" xlink:href="#DejaVuSans-53"/>
      <use x="1544.078125" xlink:href="#DejaVuSans-5f"/>
      <use x="1594.078125" xlink:href="#DejaVuSans-41"/>
      <use x="1662.48632812" xlink:href="#DejaVuSans-4c"/>
      <use x="1718.19921875" xlink:href="#DejaVuSans-49"/>
      <use x="1747.69140625" xlink:href="#DejaVuSans-41"/>
      <use x="1816.09960938" xlink:href="#DejaVuSans-53"/>
     </g>
    </g>
    <g id="line2d_53">
     <path d="
M1159.22 149.542
L1179.38 149.542" style="fill:none;stroke:#00bfbf;"/>
    </g>
    <g id="line2d_54"/>
    <g id="text_18">
     <!-- RESOURCE_STALLS.ANY -->
     <defs>
      <path d="
M9.8125 72.9062
L23.0938 72.9062
L55.4219 11.9219
L55.4219 72.9062
L64.9844 72.9062
L64.9844 0
L51.7031 0
L19.3906 60.9844
L19.3906 0
L9.8125 0
z
" id="DejaVuSans-4e"/>
      <path d="
M-0.203125 72.9062
L10.4062 72.9062
L30.6094 42.9219
L50.6875 72.9062
L61.2812 72.9062
L35.5 34.7188
L35.5 0
L25.5938 0
L25.5938 34.7188
z
" id="DejaVuSans-59"/>
     </defs>
     <g transform="translate(1195.218 154.58175)scale(0.144 -0.144)">
      <use xlink:href="#DejaVuSans-52"/>
      <use x="69.482421875" xlink:href="#DejaVuSans-45"/>
      <use x="132.666015625" xlink:href="#DejaVuSans-53"/>
      <use x="196.142578125" xlink:href="#DejaVuSans-4f"/>
      <use x="274.853515625" xlink:href="#DejaVuSans-55"/>
      <use x="348.046875" xlink:href="#DejaVuSans-52"/>
      <use x="412.529296875" xlink:href="#DejaVuSans-43"/>
      <use x="482.353515625" xlink:href="#DejaVuSans-45"/>
      <use x="545.537109375" xlink:href="#DejaVuSans-5f"/>
      <use x="595.537109375" xlink:href="#DejaVuSans-53"/>
      <use x="659.013671875" xlink:href="#DejaVuSans-54"/>
      <use x="712.34765625" xlink:href="#DejaVuSans-41"/>
      <use x="780.755859375" xlink:href="#DejaVuSans-4c"/>
      <use x="836.46875" xlink:href="#DejaVuSans-4c"/>
      <use x="892.181640625" xlink:href="#DejaVuSans-53"/>
      <use x="955.658203125" xlink:href="#DejaVuSans-2e"/>
      <use x="987.4453125" xlink:href="#DejaVuSans-41"/>
      <use x="1055.85351562" xlink:href="#DejaVuSans-4e"/>
      <use x="1130.65820312" xlink:href="#DejaVuSans-59"/>
     </g>
    </g>
   </g>
  </g>
 </g>
 <defs>
  <clipPath id="p888dfa254e">
   <rect height="534.96" width="1271.5425" x="205.0875" y="66.87"/>
  </clipPath>
 </defs>
</svg>
