<?xml version="1.0" encoding="utf-8" standalone="no"?>
<!DOCTYPE svg PUBLIC "-//W3C//DTD SVG 1.1//EN"
  "http://www.w3.org/Graphics/SVG/1.1/DTD/svg11.dtd">
<!-- Created with matplotlib (http://matplotlib.sourceforge.net/) -->
<svg height="897pt" version="1.1" viewBox="0 0 1674 897" width="1674pt" xmlns="http://www.w3.org/2000/svg" xmlns:xlink="http://www.w3.org/1999/xlink">
 <defs>
  <style type="text/css">
*{stroke-linecap:square;stroke-linejoin:round;}
  </style>
 </defs>
 <g id="figure_1">
  <g id="patch_1">
   <path d="
M0 897.3
L1674.9 897.3
L1674.9 0
L0 0
z
" style="fill:#ffffff;"/>
  </g>
  <g id="axes_1">
   <g id="patch_2">
    <path d="
M209.362 807.57
L1507.41 807.57
L1507.41 89.73
L209.362 89.73
z
" style="fill:#ffffff;"/>
   </g>
   <g id="line2d_1">
    <path clip-path="url(#pec089a9809)" d="
M209.362 553.278
L212.608 557.422
L215.853 556.549
L219.098 557.694
L222.343 557.753
L225.588 557.24
L228.833 557.755
L232.078 557.733
L235.323 557.515
L238.569 557.139
L241.814 557.175
L245.059 557.755
L248.304 557.716
L254.794 556.74
L258.039 557.987
L261.284 557.561
L264.53 557.792
L267.775 557.071
L271.02 557.431
L274.265 556.358
L277.51 557.431
L280.755 557.732
L284 557.324
L287.245 557.187
L290.49 557.581
L293.736 556.364
L296.981 555.508
L300.226 557.546
L303.471 557.696
L306.716 557.647
L309.961 555.776
L313.206 557.291
L316.451 557.298
L319.697 555.744
L322.942 557.087
L326.187 557.707
L329.432 558.04
L332.677 557.596
L335.922 558.011
L339.167 557.741
L345.657 557.626
L348.903 557.813
L352.148 557.064
L355.393 557.426
L358.638 557.935
L361.883 557.753
L365.128 557.939
L368.373 557.964
L371.618 556.657
L374.864 558.056
L378.109 557.341
L381.354 556.059
L384.599 557.122
L387.844 557.485
L391.089 557.131
L394.334 555.088
L397.579 557.007
L400.825 557.808
L404.07 557.263
L407.315 557.691
L410.56 556.371
L413.805 557.879
L417.05 557.753
L420.295 557.162
L423.54 556.313
L426.785 557.99
L430.031 558.23
L433.276 557.027
L436.521 557.669
L439.766 557.326
L443.011 557.659
L446.256 557.701
L449.501 557.26
L452.746 556.541
L455.992 557.66
L459.237 557.678
L462.482 557.494
L465.727 556.231
L468.972 556.706
L472.217 555.454
L475.462 557.427
L478.707 557.922
L481.952 556.851
L485.198 557.676
L488.443 556.913
L491.688 555.081
L494.933 554.073
L498.178 557.68
L501.423 552.007
L504.668 556.586
L507.913 553.39
L511.159 557.274
L514.404 557.999
L517.649 557.094
L524.139 557.627
L527.384 557.813
L530.629 555.305
L533.874 556.568
L537.119 556.528
L540.365 558.231
L543.61 557.856
L546.855 557.154
L550.1 557.182
L553.345 557.622
L556.59 558.182
L559.835 557.309
L563.08 557.285
L566.326 558.034
L569.571 556.027
L572.816 557.665
L576.061 557.495
L579.306 555.54
L582.551 557.476
L585.796 557.749
L589.041 557.407
L592.287 556.521
L595.532 557.827
L598.777 557.552
L602.022 557.816
L605.267 557.459
L608.512 557.568
L611.757 557.023
L615.002 557.797
L618.247 556.981
L621.493 557.231
L624.738 557.869
L627.983 556.469
L631.228 556.228
L634.473 555.461
L637.718 555.919
L640.963 557.557
L644.208 557.442
L647.454 557.055
L650.699 557.734
L653.944 557.563
L657.189 556.654
L660.434 557.735
L663.679 557.06
L666.924 556.975
L670.169 557.55
L673.414 557.826
L676.66 555.589
L679.905 558.024
L683.15 557.574
L686.395 556.249
L689.64 557.697
L692.885 502.008
L696.13 501.474
L699.375 501.456
L702.621 500.425
L705.866 436.58
L709.111 501.581
L712.356 501.735
L715.601 501.394
L718.846 500.339
L722.091 501.496
L725.336 501.387
L728.581 500.52
L731.827 501.608
L735.072 501.506
L738.317 500.891
L741.562 500.917
L744.807 555.944
L748.052 557.72
L751.297 556.647
L754.542 557.931
L757.788 555.444
L761.033 557.706
L764.278 557.644
L767.523 557.113
L770.768 557.547
L774.013 558.161
L777.258 557.403
L780.503 557.127
L783.749 557.676
L786.994 556.975
L790.239 556.412
L793.484 557.292
L799.974 556.782
L803.219 557.598
L806.464 557.938
L809.709 556.821
L812.955 557.198
L816.2 556.644
L819.445 557.681
L822.69 556.753
L825.935 557.824
L829.18 556.84
L832.425 556.305
L835.67 557.426
L838.916 557.451
L842.161 555.549
L845.406 557.663
L848.651 557.905
L851.896 557.408
L858.386 556.821
L861.631 557.761
L868.122 557.574
L871.367 556.693
L874.612 556.838
L877.857 557.674
L881.102 557.275
L884.347 557.987
L887.592 557.584
L897.328 557.641
L900.573 556.547
L903.818 557.316
L907.063 557.336
L910.308 557.895
L913.553 553.538
L916.798 557.767
L923.289 557.609
L926.534 552.203
L929.779 555.493
L933.024 557.074
L936.269 555.898
L939.514 557.319
L942.759 557.876
L946.004 556.551
L949.25 557.507
L952.495 556.956
L955.74 555.966
L958.985 557.563
L962.23 556.822
L965.475 557.908
L968.72 555.194
L971.965 557.431
L975.211 557.124
L978.456 558.064
L981.701 558.065
L984.946 556.922
L988.191 557.775
L991.436 556.519
L994.681 557.503
L997.926 558.007
L1001.17 557.922
L1004.42 557.717
L1007.66 557.642
L1010.91 553.429
L1014.15 557.68
L1017.4 557.775
L1020.64 557.722
L1023.89 557
L1027.13 557.527
L1030.38 557.836
L1033.62 556.896
L1036.87 556.87
L1040.11 557.6
L1043.36 557.183
L1046.6 557.612
L1049.85 557.903
L1053.09 554.048
L1056.34 557.633
L1062.83 557.666
L1066.07 556.419
L1069.32 557.652
L1072.56 557.571
L1075.81 557.834
L1079.05 557.503
L1082.3 557.689
L1085.54 556.646
L1088.79 557.244
L1092.03 557.662
L1095.28 554.979
L1098.53 557.932
L1101.77 557.946
L1105.02 557.311
L1108.26 557.121
L1111.51 557.341
L1118 557.116
L1121.24 557.47
L1127.73 556.926
L1130.98 557.738
L1134.22 554.963
L1137.47 555.289
L1140.71 554.447
L1143.96 556.574
L1147.2 557.719
L1150.45 554.325
L1153.69 557.617
L1156.94 557.282
L1160.18 557.564
L1163.43 557.552
L1169.92 557.996
L1173.16 557.503
L1176.41 558.234
L1179.65 555.879
L1182.9 557.417
L1186.14 557.242
L1189.39 557.939
L1192.63 554.985
L1195.88 557.573
L1199.12 557.62
L1202.37 557.338
L1208.86 557.359
L1212.1 557.574
L1215.35 557.119
L1218.59 557.602
L1221.84 556.213
L1225.08 557.526
L1228.33 557.59
L1231.57 556.685
L1234.82 557.758
L1238.07 557.378
L1241.31 557.675
L1244.56 557.214
L1247.8 556.52
L1251.05 557.384
L1254.29 556.91
L1257.54 557.802
L1260.78 557.009
L1264.03 557.702
L1267.27 557.631
L1273.76 557.14
L1277.01 553.376
L1280.25 557.215
L1283.5 557.141
L1286.74 557.71
L1289.99 556.903
L1293.23 557.285
L1296.48 557.02
L1299.72 557.804
L1306.21 557.387
L1309.46 555.991
L1312.7 557.453
L1315.95 557.216
L1319.19 554.523
L1322.44 554.9
L1325.68 555.058
L1328.93 554.393
L1332.17 555.9
L1335.42 557.616
L1338.66 558.13
L1341.91 557.402
L1345.15 556.334
L1348.4 555.54
L1351.64 555.774
L1354.89 556.786
L1358.13 557.246
L1361.38 547.822
L1364.62 553.615
L1367.87 557.551
L1377.61 557.653
L1380.85 557.619
L1384.1 557.447
L1397.08 557.378
L1400.32 558.125
L1403.57 553.703
L1406.81 557.637
L1410.06 558.033
L1413.3 556.753
L1416.55 557.071
L1419.79 557.62
L1423.04 557.136
L1426.28 557.346
L1429.53 557.312
L1432.77 556.942
L1436.02 557.317
L1439.26 556.914
L1442.51 557.287
L1445.75 556.051
L1449 557.56
L1452.24 557.647
L1455.49 557.461
L1458.73 556.498
L1461.98 556.755
L1465.22 557.433
L1468.47 556.518
L1471.71 557.482
L1474.96 557.328
L1478.2 557.411
L1481.45 557.301
L1484.69 557.602
L1487.94 556.963
L1491.18 557.637
L1494.43 555.274
L1497.67 557.574
L1504.16 558.051
L1504.16 558.051" style="fill:none;stroke:#0000ff;"/>
   </g>
   <g id="line2d_2">
    <path clip-path="url(#pec089a9809)" d="
M209.362 807.531
L640.963 807.546
L689.64 807.547
L692.885 648.266
L702.621 648.211
L712.356 648.251
L715.601 664.178
L718.846 648.189
L741.562 648.209
L744.807 807.545
L1504.16 807.538
L1504.16 807.538" style="fill:none;stroke:#008000;"/>
   </g>
   <g id="line2d_3">
    <path clip-path="url(#pec089a9809)" d="
M209.362 557.721
L212.608 556.962
L215.853 558.174
L219.098 557.955
L222.343 558.099
L225.588 556.237
L228.833 558.106
L232.078 557.258
L235.323 558.44
L238.569 558.319
L241.814 558.006
L245.059 557.954
L251.549 558.314
L254.794 558.112
L258.039 558.342
L261.284 558.003
L264.53 558.266
L267.775 557.816
L271.02 557.528
L274.265 557.995
L277.51 556.847
L280.755 558.084
L284 557.805
L287.245 558.343
L290.49 555.051
L293.736 557.522
L296.981 558.018
L300.226 558.189
L303.471 554.64
L306.716 555.245
L309.961 549.115
L313.206 558.154
L316.451 558.022
L319.697 558.394
L322.942 557.393
L326.187 558.027
L329.432 557.656
L332.677 557.863
L335.922 557.919
L342.412 558.356
L345.657 558.512
L348.903 557.403
L352.148 555.434
L355.393 558.272
L358.638 557.95
L361.883 558.541
L365.128 558.474
L368.373 558.126
L371.618 558.526
L374.864 558.093
L378.109 557.533
L381.354 558.073
L384.599 558.41
L387.844 557.155
L391.089 557.809
L394.334 556.391
L397.579 557.767
L400.825 556.577
L404.07 558.138
L407.315 556.681
L410.56 558.143
L413.805 558.037
L417.05 558.093
L420.295 558.407
L423.54 558.267
L426.785 558.012
L430.031 557.484
L433.276 558.165
L436.521 553.048
L439.766 558.195
L443.011 557.752
L446.256 558.621
L449.501 557.912
L452.746 558.152
L455.992 557.961
L459.237 558.492
L462.482 558.433
L465.727 557.894
L468.972 557.69
L472.217 558.291
L475.462 557.926
L478.707 555.561
L481.952 557.699
L488.443 557.153
L491.688 558.289
L494.933 558.031
L498.178 557.281
L501.423 558.203
L504.668 558.335
L507.913 557.779
L511.159 558.212
L514.404 558.495
L517.649 558.508
L520.894 555.62
L524.139 558.281
L527.384 556.546
L530.629 558.19
L533.874 554.539
L537.119 557.852
L540.365 558.233
L543.61 558.024
L546.855 555.685
L550.1 556.248
L553.345 558
L556.59 557.579
L559.835 558.13
L563.08 558.229
L566.326 557.778
L569.571 557.52
L572.816 558.356
L579.306 558.099
L582.551 558.56
L585.796 557.966
L589.041 557.719
L592.287 555.406
L595.532 558.074
L598.777 558.32
L602.022 557.937
L605.267 558.653
L608.512 557.734
L611.757 557.608
L615.002 558.225
L618.247 558.089
L621.493 558.095
L624.738 558.23
L627.983 557.444
L631.228 558.056
L634.473 558.22
L637.718 558.118
L640.963 558.139
L644.208 558.017
L647.454 556.396
L650.699 558.274
L660.434 557.999
L663.679 557.349
L666.924 558.07
L670.169 558.427
L673.414 558.048
L676.66 557.246
L683.15 557.66
L686.395 558.438
L689.64 555.85
L692.885 502.098
L696.13 500.739
L699.375 501.978
L702.621 501.078
L705.866 501.924
L709.111 501.861
L712.356 501.561
L715.601 502.104
L718.846 501.8
L722.091 502.106
L725.336 501.155
L735.072 502.347
L741.562 501.741
L744.807 557.984
L748.052 557.351
L751.297 558.429
L754.542 558.372
L757.788 555.262
L761.033 558.521
L767.523 558.054
L770.768 558.184
L774.013 557.703
L777.258 558.254
L780.503 557.963
L783.749 558.015
L790.239 557.686
L793.484 558.589
L796.729 558.23
L799.974 555.553
L803.219 557.869
L806.464 558.229
L809.709 558.456
L812.955 557.985
L816.2 558.369
L819.445 558.089
L822.69 558.324
L825.935 558.068
L829.18 558.178
L832.425 557.649
L835.67 557.416
L838.916 558.137
L842.161 556.426
L845.406 558.296
L848.651 558.163
L851.896 557.764
L855.141 557.931
L858.386 558.472
L861.631 558.184
L864.876 558.121
L868.122 557.779
L871.367 557.924
L874.612 557.474
L877.857 558.112
L881.102 558.215
L884.347 557.657
L887.592 558.075
L890.837 557.504
L894.083 555.775
L897.328 558.328
L900.573 558.254
L903.818 556.909
L907.063 556.953
L910.308 557.649
L913.553 558.032
L916.798 558.219
L920.044 557.755
L923.289 558.111
L926.534 545.941
L929.779 557.67
L933.024 558.421
L936.269 557.561
L939.514 558.24
L942.759 557.526
L946.004 554.499
L949.25 557.819
L955.74 558.142
L958.985 557.992
L965.475 558.296
L968.72 555.938
L975.211 558.559
L978.456 558.001
L981.701 558.327
L984.946 557.788
L988.191 557.888
L991.436 556.814
L994.681 558.218
L997.926 558.071
L1001.17 558.055
L1004.42 557.916
L1007.66 558.16
L1010.91 554.461
L1014.15 558.543
L1017.4 558.602
L1020.64 557.817
L1023.89 556.648
L1027.13 558.286
L1030.38 558.293
L1033.62 558.491
L1036.87 557.818
L1040.11 557.894
L1043.36 556.978
L1046.6 558.04
L1049.85 558.439
L1053.09 557.14
L1056.34 558.153
L1059.58 557.917
L1062.83 556.224
L1066.07 553.505
L1069.32 558.256
L1075.81 557.848
L1079.05 558.24
L1082.3 558.069
L1085.54 558.08
L1088.79 557.785
L1092.03 557.016
L1095.28 556.697
L1098.53 558.365
L1101.77 558.009
L1105.02 558.368
L1108.26 553.849
L1111.51 558.07
L1114.75 557.478
L1118 557.373
L1121.24 558.519
L1124.49 557.31
L1127.73 557.251
L1130.98 558.498
L1134.22 557.678
L1137.47 557.224
L1140.71 557.014
L1143.96 558.006
L1147.2 558.21
L1150.45 556.891
L1153.69 554.169
L1156.94 558.216
L1160.18 558.344
L1163.43 558.131
L1166.67 557.529
L1169.92 558.213
L1173.16 558.092
L1176.41 557.64
L1179.65 558.296
L1182.9 557.919
L1189.39 558.657
L1192.63 554.716
L1195.88 556.762
L1199.12 558.382
L1202.37 558.341
L1205.61 558.132
L1208.86 558.595
L1212.1 557.263
L1215.35 557.2
L1218.59 558.064
L1221.84 557.466
L1225.08 557.915
L1228.33 557.697
L1231.57 556.584
L1234.82 555.264
L1238.07 558.326
L1241.31 558.08
L1244.56 557.482
L1247.8 557.68
L1257.54 557.819
L1260.78 557.131
L1264.03 558.233
L1267.27 558.025
L1270.52 558.335
L1273.76 557.795
L1277.01 557.932
L1280.25 558.385
L1283.5 557.822
L1286.74 557.402
L1289.99 559.417
L1293.23 558.293
L1296.48 558.112
L1299.72 557.737
L1302.97 557.245
L1306.21 556.574
L1309.46 558.335
L1312.7 558.084
L1315.95 556.679
L1319.19 557.095
L1322.44 558.112
L1325.68 557.27
L1328.93 557.201
L1332.17 558.665
L1335.42 555.054
L1338.66 557.951
L1341.91 555.212
L1345.15 557.617
L1348.4 557.596
L1351.64 556.077
L1354.89 558.128
L1358.13 557.98
L1361.38 557.416
L1364.62 558.118
L1367.87 558.452
L1371.12 558.374
L1374.36 557.122
L1377.61 558.121
L1380.85 557.881
L1384.1 558.32
L1387.34 557.724
L1390.59 558.433
L1393.83 558.36
L1397.08 557.738
L1400.32 558.052
L1403.57 557.057
L1406.81 558.137
L1410.06 557.932
L1413.3 558.147
L1416.55 555.935
L1419.79 557.743
L1423.04 557.33
L1426.28 558.037
L1429.53 557.53
L1432.77 557.768
L1436.02 557.363
L1439.26 558.302
L1442.51 558.229
L1445.75 557.877
L1449 558.441
L1452.24 557.664
L1455.49 558.374
L1458.73 555.253
L1461.98 557.91
L1465.22 558.07
L1468.47 557.388
L1471.71 557.941
L1474.96 557.719
L1478.2 558.2
L1481.45 558.095
L1484.69 557.715
L1487.94 558.257
L1494.43 557.335
L1497.67 558.375
L1500.92 557.09
L1504.16 558.388
L1504.16 558.388" style="fill:none;stroke:#ff0000;"/>
   </g>
   <g id="line2d_4">
    <path clip-path="url(#pec089a9809)" d="
M209.362 800.229
L274.265 800.224
L277.51 800.24
L280.755 800.137
L287.245 800.247
L290.49 800.143
L296.981 800.235
L433.276 800.243
L436.521 800.142
L443.011 800.238
L465.727 800.188
L478.707 800.248
L488.443 800.214
L517.649 800.23
L520.894 800.094
L527.384 800.212
L592.287 800.172
L598.777 800.235
L650.699 800.225
L679.905 800.223
L689.64 800.176
L692.885 798.581
L725.336 798.563
L728.581 796.651
L731.827 798.584
L741.562 798.58
L744.807 800.23
L757.788 800.176
L764.278 800.244
L799.974 800.191
L806.464 800.226
L812.955 800.222
L838.916 800.232
L842.161 800.159
L848.651 800.234
L903.818 800.23
L916.798 800.232
L920.044 800.145
L923.289 800.234
L926.534 800.081
L942.759 800.239
L949.25 800.204
L962.23 800.235
L1036.87 800.211
L1049.85 800.232
L1075.81 800.223
L1105.02 800.235
L1108.26 800.085
L1114.75 800.233
L1118 800.126
L1124.49 800.242
L1186.14 800.233
L1208.86 800.232
L1215.35 800.22
L1244.56 800.216
L1254.29 800.223
L1280.25 800.235
L1302.97 800.226
L1309.46 800.218
L1328.93 800.236
L1345.15 800.154
L1354.89 800.222
L1384.1 800.235
L1397.08 800.231
L1416.55 800.209
L1504.16 800.238
L1504.16 800.238" style="fill:none;stroke:#00bfbf;"/>
   </g>
   <g id="line2d_5">
    <path clip-path="url(#pec089a9809)" d="
M209.362 557.687
L212.608 558.361
L215.853 558.563
L219.098 558.532
L222.343 558.324
L225.588 556.507
L228.833 558.073
L232.078 556.975
L235.323 557.635
L238.569 558.159
L241.814 557.978
L245.059 558.105
L248.304 556.46
L251.549 557.178
L254.794 558.097
L258.039 558.019
L261.284 557.508
L264.53 558.644
L267.775 557.051
L271.02 557.944
L274.265 558.036
L277.51 557.515
L280.755 557.214
L284 555.497
L287.245 555.772
L290.49 557.759
L293.736 558.418
L300.226 557.755
L303.471 558.583
L306.716 558.46
L309.961 556.602
L313.206 558.116
L316.451 558.352
L319.697 558.221
L322.942 557.397
L326.187 557.087
L329.432 558.255
L332.677 558.478
L335.922 557.864
L339.167 558.195
L345.657 557.622
L348.903 558.283
L352.148 557.361
L355.393 557.756
L358.638 558.514
L361.883 558.404
L365.128 557.463
L368.373 558.294
L371.618 558.178
L374.864 557.73
L378.109 558.219
L381.354 557.798
L384.599 557.934
L387.844 557.846
L391.089 558.308
L394.334 556.977
L397.579 558.692
L400.825 558.053
L404.07 557.872
L407.315 557.492
L410.56 557.534
L413.805 558.39
L417.05 558.281
L420.295 557.755
L423.54 556.989
L426.785 558.16
L430.031 558.111
L433.276 558.496
L436.521 554.759
L439.766 558.654
L443.011 558.238
L446.256 556.655
L449.501 558.322
L452.746 558.309
L455.992 557.98
L462.482 558.174
L465.727 556.77
L468.972 558.181
L475.462 558.441
L478.707 554.903
L481.952 558.272
L485.198 557.694
L488.443 557.276
L491.688 557.23
L494.933 558.311
L498.178 557.931
L501.423 556.172
L504.668 555.998
L507.913 558.231
L511.159 558.037
L514.404 557.495
L517.649 558.417
L520.894 555.915
L524.139 558.198
L527.384 558.327
L530.629 558.693
L533.874 558.177
L540.365 558.066
L543.61 557.854
L546.855 557.064
L550.1 556.844
L553.345 558.036
L556.59 555.852
L559.835 557.847
L563.08 557.674
L566.326 557.795
L569.571 558.083
L572.816 558.018
L576.061 558.161
L579.306 558.162
L585.796 557.676
L589.041 558.061
L592.287 557.077
L595.532 558.403
L598.777 558.611
L602.022 558.417
L605.267 557.932
L608.512 557.324
L611.757 558.345
L615.002 558.345
L621.493 557.304
L624.738 558.597
L627.983 558.446
L631.228 558.729
L634.473 558.329
L637.718 557.733
L640.963 557.638
L644.208 557.396
L647.454 557.687
L650.699 557.72
L653.944 558.073
L657.189 558.182
L660.434 556.884
L663.679 558.293
L666.924 558.513
L670.169 558.433
L673.414 557.841
L676.66 558.375
L679.905 558.187
L683.15 557.447
L686.395 558.13
L689.64 557.129
L692.885 501.876
L696.13 501.147
L699.375 501.767
L702.621 502.249
L709.111 501.815
L712.356 501.234
L715.601 501.927
L718.846 502.27
L722.091 502.491
L725.336 501.745
L728.581 501.865
L731.827 501.824
L735.072 501.907
L738.317 501.131
L741.562 502.146
L744.807 558.3
L754.542 558.128
L757.788 557.138
L761.033 558.752
L767.523 558.371
L770.768 558.481
L774.013 557.998
L777.258 558.037
L780.503 558.26
L786.994 558.053
L790.239 558.065
L793.484 557.539
L796.729 557.425
L799.974 557.06
L803.219 558.277
L806.464 558.726
L809.709 558.169
L812.955 558.583
L816.2 557.996
L819.445 558.341
L822.69 558.197
L825.935 558.209
L829.18 558.352
L832.425 558.649
L835.67 558.068
L838.916 558.519
L842.161 556.118
L845.406 558.261
L848.651 558.679
L851.896 557.407
L855.141 558.459
L858.386 557.522
L861.631 558.233
L864.876 558.44
L868.122 558.323
L871.367 557.45
L877.857 558.178
L881.102 558.215
L884.347 554.286
L887.592 558.194
L890.837 558.043
L894.083 557.363
L897.328 558.396
L900.573 558.356
L903.818 554.442
L907.063 555.141
L910.308 558.198
L913.553 556.307
L916.798 558.182
L920.044 556.836
L923.289 557.812
L926.534 555.151
L929.779 557.683
L933.024 556.673
L936.269 558.222
L939.514 558.274
L942.759 557.885
L946.004 557.326
L949.25 556.577
L952.495 557.869
L955.74 558.336
L958.985 558.189
L962.23 558.3
L965.475 558.032
L968.72 557.29
L971.965 557.491
L975.211 558.342
L984.946 557.877
L988.191 556.617
L991.436 558.273
L994.681 558.441
L997.926 558.146
L1001.17 557.711
L1004.42 557.427
L1007.66 557.924
L1010.91 557.901
L1014.15 556.774
L1017.4 557.81
L1020.64 558.219
L1023.89 556.179
L1027.13 558.487
L1030.38 558.207
L1033.62 558.083
L1036.87 558.118
L1040.11 557.874
L1043.36 557.077
L1046.6 558.347
L1049.85 558.307
L1053.09 557.861
L1056.34 558.364
L1059.58 558.176
L1062.83 558.425
L1066.07 556.954
L1069.32 558.563
L1072.56 558.5
L1075.81 558.233
L1082.3 558.162
L1085.54 557.906
L1092.03 558.13
L1095.28 557.684
L1098.53 556.613
L1101.77 557.789
L1105.02 557.86
L1108.26 553.437
L1111.51 558.164
L1114.75 558.371
L1118 554.505
L1121.24 558.302
L1124.49 557.858
L1127.73 557.714
L1130.98 557.78
L1134.22 558.171
L1137.47 557.494
L1140.71 558.213
L1143.96 558.089
L1147.2 558.53
L1150.45 555.296
L1153.69 556.453
L1156.94 558.44
L1160.18 558.669
L1163.43 558.523
L1166.67 558.586
L1169.92 558.207
L1173.16 557.704
L1176.41 557.795
L1179.65 558.488
L1182.9 558.801
L1186.14 557.772
L1189.39 556.975
L1192.63 557.18
L1195.88 557.945
L1199.12 558.399
L1202.37 557.92
L1205.61 558.613
L1208.86 557.101
L1212.1 557.49
L1215.35 557.721
L1218.59 558.426
L1221.84 557.196
L1225.08 557.755
L1228.33 557.674
L1231.57 557.835
L1234.82 557.657
L1238.07 558.09
L1241.31 558.31
L1244.56 557.405
L1247.8 555.478
L1251.05 558.096
L1257.54 557.889
L1260.78 558.184
L1264.03 558.191
L1267.27 558.315
L1270.52 558.57
L1273.76 558.008
L1277.01 558.313
L1280.25 558.453
L1283.5 557.883
L1286.74 558.723
L1289.99 554.515
L1293.23 557.824
L1296.48 557.893
L1299.72 558.176
L1306.21 557.085
L1309.46 558.237
L1312.7 558.126
L1315.95 558.22
L1319.19 555.539
L1322.44 557.727
L1325.68 558.293
L1328.93 558.121
L1332.17 557.248
L1335.42 557.786
L1338.66 558.557
L1341.91 558.013
L1345.15 556.583
L1348.4 557.853
L1351.64 558.378
L1354.89 558.768
L1358.13 557.3
L1361.38 557.481
L1364.62 556.39
L1367.87 558.238
L1371.12 558.338
L1374.36 557.792
L1377.61 558.469
L1380.85 557.869
L1384.1 558.208
L1387.34 558.019
L1390.59 558.383
L1393.83 558.468
L1397.08 559.528
L1400.32 558.313
L1403.57 557.462
L1406.81 557.998
L1410.06 558.252
L1413.3 558.186
L1416.55 557.473
L1419.79 558.211
L1423.04 558.028
L1426.28 558.237
L1429.53 557.317
L1432.77 558.073
L1436.02 558.293
L1439.26 557.94
L1442.51 558.057
L1445.75 557.412
L1449 557.788
L1452.24 556.349
L1455.49 557.98
L1458.73 557.212
L1461.98 557.159
L1465.22 558.184
L1468.47 558.253
L1474.96 558.053
L1478.2 558.234
L1481.45 557.362
L1484.69 558.061
L1487.94 557.631
L1491.18 558.033
L1494.43 557.729
L1497.67 557.646
L1500.92 557.048
L1504.16 558.313
L1504.16 558.313" style="fill:none;stroke:#bf00bf;"/>
   </g>
   <g id="line2d_6">
    <path clip-path="url(#pec089a9809)" d="
M209.362 708.974
L212.608 708.923
L215.853 708.953
L219.098 708.634
L222.343 709.113
L225.588 708.998
L228.833 709.108
L235.323 708.7
L241.814 709.156
L245.059 708.549
L248.304 708.649
L251.549 709.107
L254.794 708.872
L261.284 708.965
L264.53 708.673
L267.775 708.866
L271.02 709.194
L274.265 709.002
L277.51 708.946
L280.755 707.876
L284 708.55
L287.245 706.774
L290.49 707.054
L293.736 708.906
L296.981 707.36
L300.226 706.181
L303.471 708.994
L306.716 706.076
L309.961 708.808
L313.206 707.109
L316.451 708.938
L319.697 707.531
L322.942 708.828
L326.187 709.031
L332.677 708.691
L335.922 708.88
L345.657 709.12
L348.903 708.689
L352.148 708.662
L355.393 709.064
L358.638 709.091
L361.883 708.873
L365.128 709.105
L368.373 708.688
L374.864 709.103
L378.109 708.651
L381.354 708.767
L384.599 709.121
L387.844 709.138
L391.089 708.896
L394.334 708.911
L397.579 709.102
L400.825 708.864
L407.315 709.008
L410.56 709.167
L413.805 708.903
L417.05 708.878
L420.295 709.192
L423.54 708.686
L426.785 708.903
L430.031 708.858
L433.276 709.017
L436.521 708.461
L439.766 708.903
L443.011 708.758
L446.256 708.832
L449.501 709.105
L452.746 708.848
L455.992 709.078
L462.482 708.748
L465.727 709.099
L468.972 708.923
L472.217 708.864
L478.707 709.122
L481.952 708.655
L485.198 708.935
L488.443 708.9
L491.688 709.238
L494.933 709.15
L498.178 708.546
L501.423 706.964
L504.668 708.957
L507.913 709.016
L511.159 708.951
L514.404 709.122
L517.649 708.833
L520.894 708.845
L524.139 708.71
L527.384 708.841
L530.629 708.604
L533.874 709.131
L537.119 709.16
L540.365 708.93
L543.61 709.122
L546.855 708.69
L550.1 708.899
L553.345 708.423
L556.59 708.948
L559.835 708.72
L563.08 709.088
L566.326 708.886
L569.571 709.086
L572.816 708.717
L576.061 709.072
L582.551 708.883
L585.796 708.853
L589.041 708.666
L592.287 708.958
L595.532 709.123
L598.777 709.117
L602.022 708.687
L605.267 708.935
L608.512 708.732
L611.757 709.137
L618.247 709.257
L621.493 708.541
L624.738 708.953
L627.983 708.412
L631.228 708.938
L634.473 708.905
L637.718 708.675
L640.963 708.904
L647.454 708.546
L650.699 709.149
L653.944 709.147
L657.189 708.955
L660.434 709.059
L666.924 708.788
L673.414 709.283
L676.66 708.73
L686.395 709.114
L689.64 709.104
L692.885 652.65
L696.13 652.607
L699.375 587.855
L702.621 652.909
L705.866 652.606
L709.111 653.04
L715.601 653.051
L718.846 653.001
L722.091 652.322
L728.581 653.029
L738.317 652.337
L741.562 652.544
L744.807 708.774
L751.297 708.733
L754.542 708.975
L757.788 708.993
L761.033 708.519
L764.278 708.932
L770.768 709.283
L774.013 708.944
L777.258 709.264
L780.503 708.712
L783.749 708.966
L786.994 709.065
L790.239 708.737
L796.729 708.684
L799.974 709.118
L803.219 708.544
L806.464 709.163
L809.709 708.912
L812.955 708.867
L816.2 709.086
L819.445 709.149
L822.69 708.578
L825.935 709.15
L829.18 708.943
L832.425 708.903
L835.67 709.125
L838.916 709.113
L842.161 708.903
L848.651 708.973
L851.896 708.749
L855.141 708.748
L858.386 709.108
L861.631 708.921
L864.876 708.969
L868.122 708.906
L871.367 709.107
L874.612 709.078
L877.857 708.9
L881.102 709.003
L884.347 708.96
L887.592 709.127
L890.837 709.099
L894.083 708.911
L900.573 708.954
L903.818 706.903
L907.063 708.54
L910.308 706.95
L913.553 708.768
L916.798 708.756
L923.289 707.515
L926.534 709.019
L929.779 709.095
L933.024 707.384
L936.269 707.341
L939.514 709.263
L942.759 706.909
L946.004 708.983
L952.495 709.176
L955.74 708.934
L958.985 709.005
L962.23 708.929
L965.475 709.143
L968.72 708.664
L971.965 708.472
L975.211 709.093
L978.456 708.895
L981.701 709.077
L984.946 708.886
L991.436 708.899
L994.681 709.103
L997.926 709.176
L1001.17 708.949
L1004.42 708.838
L1010.91 708.941
L1017.4 708.988
L1020.64 709.093
L1023.89 708.423
L1027.13 709.101
L1030.38 708.802
L1040.11 709.126
L1043.36 708.981
L1046.6 708.661
L1049.85 709.071
L1053.09 708.809
L1056.34 708.895
L1059.58 708.815
L1062.83 708.389
L1069.32 708.933
L1072.56 709.112
L1075.81 708.844
L1079.05 709.187
L1082.3 709.043
L1085.54 709.04
L1088.79 708.436
L1092.03 708.971
L1095.28 708.817
L1098.53 707.17
L1101.77 708.844
L1105.02 708.635
L1108.26 708.293
L1111.51 708.746
L1114.75 708.493
L1118 706.186
L1121.24 706.089
L1124.49 705.777
L1127.73 708.387
L1134.22 706.89
L1137.47 707.688
L1140.71 708.805
L1143.96 708.637
L1147.2 709.041
L1150.45 706.64
L1153.69 708.887
L1156.94 708.95
L1160.18 708.694
L1163.43 709.101
L1166.67 709.261
L1169.92 708.673
L1173.16 708.723
L1176.41 708.908
L1179.65 708.859
L1186.14 708.927
L1189.39 708.77
L1192.63 708.91
L1199.12 708.937
L1202.37 709.11
L1208.86 708.89
L1212.1 709.11
L1215.35 708.881
L1218.59 707.623
L1221.84 708.747
L1225.08 708.881
L1228.33 708.371
L1231.57 708.356
L1234.82 708.613
L1238.07 708.698
L1241.31 709.136
L1244.56 708.81
L1247.8 708.899
L1251.05 708.412
L1254.29 709.114
L1260.78 708.933
L1264.03 708.648
L1267.27 709.14
L1270.52 708.723
L1273.76 708.915
L1277.01 708.884
L1283.5 709.123
L1289.99 708.664
L1293.23 708.676
L1296.48 709.055
L1302.97 708.63
L1309.46 708.898
L1312.7 708.885
L1315.95 708.999
L1319.19 704.833
L1322.44 708.977
L1325.68 708.848
L1328.93 709.169
L1332.17 709.05
L1335.42 709.154
L1338.66 708.933
L1341.91 709.054
L1345.15 704.893
L1348.4 707.447
L1351.64 708.943
L1354.89 709.158
L1358.13 708.608
L1361.38 708.647
L1364.62 709.15
L1367.87 708.889
L1371.12 708.915
L1374.36 709.198
L1377.61 709.118
L1380.85 708.629
L1384.1 709.143
L1387.34 709.103
L1397.08 708.456
L1400.32 709.095
L1403.57 709.096
L1406.81 708.679
L1413.3 709.188
L1416.55 709.092
L1419.79 709.145
L1423.04 708.972
L1426.28 709.044
L1432.77 708.929
L1436.02 709.114
L1439.26 708.852
L1442.51 708.772
L1449 708.923
L1452.24 708.662
L1455.49 708.919
L1458.73 708.602
L1461.98 709.071
L1468.47 708.731
L1471.71 708.73
L1474.96 709.002
L1478.2 709.087
L1481.45 708.996
L1484.69 709.168
L1487.94 708.915
L1491.18 709.047
L1494.43 708.563
L1497.67 708.935
L1500.92 708.799
L1504.16 708.888
L1504.16 708.888" style="fill:none;stroke:#bfbf00;"/>
   </g>
   <g id="line2d_7">
    <path clip-path="url(#pec089a9809)" d="
M209.362 378.549
L212.608 378.261
L215.853 378.614
L219.098 378.448
L222.343 377.846
L225.588 377.535
L228.833 378.789
L232.078 378.145
L235.323 378.845
L238.569 377.226
L241.814 378.088
L248.304 377.747
L251.549 379.103
L254.794 377.283
L258.039 378.54
L261.284 378.05
L264.53 378.89
L267.775 379.17
L271.02 378.269
L274.265 378.432
L277.51 377.07
L280.755 376.687
L284 378.407
L290.49 378.219
L293.736 373.075
L296.981 378.316
L300.226 379.003
L303.471 378.46
L306.716 377.399
L309.961 377.973
L313.206 378.669
L316.451 378.654
L319.697 378.239
L322.942 377.215
L326.187 378.331
L329.432 377.848
L332.677 378.207
L335.922 379.217
L339.167 378.906
L342.412 378.718
L345.657 378.206
L348.903 378.854
L352.148 377.321
L355.393 377.432
L358.638 377.999
L361.883 378.38
L365.128 376.575
L368.373 378.379
L371.618 378.384
L374.864 379.176
L378.109 378.871
L381.354 377.825
L384.599 378.159
L387.844 378.339
L391.089 378.332
L394.334 378.025
L400.825 378.342
L404.07 379.084
L407.315 377.427
L410.56 376.896
L413.805 377.721
L417.05 378.224
L420.295 377.007
L423.54 378.637
L426.785 379.108
L430.031 378.953
L433.276 378.369
L436.521 378.462
L439.766 377.727
L443.011 378.452
L446.256 378.386
L449.501 377.319
L452.746 377.91
L455.992 378.329
L459.237 379.048
L462.482 378.232
L465.727 378.955
L468.972 378.13
L472.217 377.941
L475.462 378.624
L478.707 378.117
L481.952 378.553
L485.198 375.091
L488.443 376.221
L491.688 376.403
L494.933 377.88
L498.178 376.989
L501.423 371.819
L504.668 378.436
L507.913 378.784
L511.159 377.969
L514.404 378.991
L517.649 376.86
L520.894 373.218
L524.139 378.702
L527.384 378.652
L530.629 376.824
L533.874 374.267
L537.119 378.278
L540.365 378.982
L543.61 378.656
L546.855 379.027
L550.1 378.652
L553.345 379.422
L556.59 378.797
L559.835 377.49
L563.08 377.193
L566.326 379.16
L569.571 378.405
L572.816 377.839
L576.061 378.55
L579.306 378.884
L582.551 378.297
L585.796 379.11
L589.041 377.287
L592.287 377.932
L595.532 377.468
L598.777 378.323
L602.022 377.819
L605.267 377.539
L608.512 378.404
L611.757 378.221
L615.002 377.717
L618.247 378.879
L621.493 378.667
L624.738 378.287
L627.983 378.124
L631.228 378.533
L634.473 378.67
L640.963 378.13
L644.208 378.861
L647.454 378.617
L650.699 378.872
L653.944 377.405
L657.189 378.176
L660.434 376.688
L663.679 378.868
L666.924 378.477
L670.169 378.521
L673.414 377.437
L676.66 377.903
L679.905 379.005
L683.15 378.453
L686.395 378.032
L689.64 377.456
L692.885 265.728
L696.13 265.811
L699.375 266.016
L702.621 134.841
L705.866 265.762
L709.111 266.148
L712.356 265.63
L718.846 265.437
L722.091 266.412
L725.336 266.441
L728.581 263.424
L731.827 265.582
L735.072 266.224
L738.317 266.304
L741.562 266.925
L744.807 378.004
L748.052 378.125
L751.297 378.676
L754.542 378.133
L757.788 379.124
L761.033 379.244
L764.278 378.347
L767.523 379.087
L770.768 376.822
L774.013 378.656
L777.258 378.291
L780.503 378.592
L783.749 377.824
L786.994 378.395
L790.239 378.103
L793.484 378.634
L796.729 378.456
L799.974 378.747
L803.219 376.994
L806.464 377.815
L809.709 378.9
L812.955 376.869
L816.2 377.716
L819.445 378.399
L822.69 378.912
L825.935 377.513
L829.18 377.206
L832.425 378.756
L835.67 377.792
L838.916 378.246
L842.161 378.476
L845.406 378.158
L848.651 378.212
L851.896 378.394
L855.141 377.737
L858.386 378.321
L861.631 378.039
L864.876 378.164
L868.122 377.813
L871.367 378.349
L874.612 378.142
L877.857 378.413
L884.347 377.433
L887.592 378.862
L890.837 378.395
L894.083 379.078
L897.328 375.692
L900.573 376.713
L903.818 378.172
L910.308 378.843
L913.553 378.494
L916.798 377.891
L920.044 376.83
L926.534 378.886
L929.779 379.056
L933.024 378.321
L936.269 378.303
L939.514 378.046
L942.759 378.693
L946.004 378.032
L949.25 378.914
L952.495 378.793
L955.74 379.108
L958.985 378.174
L962.23 378.528
L965.475 378.071
L968.72 378.535
L971.965 379.257
L975.211 378.69
L978.456 377.614
L981.701 378.111
L984.946 378.03
L991.436 378.485
L994.681 376.017
L997.926 378.896
L1001.17 378.477
L1004.42 378.56
L1007.66 378.068
L1010.91 378.315
L1020.64 378.513
L1027.13 377.9
L1033.62 378.202
L1036.87 378.783
L1040.11 379.01
L1043.36 377.892
L1046.6 377.93
L1049.85 378.6
L1053.09 378.852
L1056.34 377.796
L1059.58 379.058
L1062.83 379.175
L1066.07 378.31
L1069.32 378.651
L1072.56 377.708
L1075.81 377.915
L1079.05 378.842
L1082.3 378.018
L1085.54 378.429
L1088.79 378.551
L1092.03 378.382
L1095.28 377.887
L1098.53 378.675
L1101.77 378.535
L1105.02 378.854
L1108.26 375.745
L1111.51 374.709
L1114.75 370.063
L1118 373.601
L1121.24 370.418
L1124.49 378.436
L1127.73 371.32
L1130.98 378.291
L1134.22 374.827
L1137.47 378.12
L1140.71 378.617
L1143.96 377.664
L1147.2 373.895
L1150.45 378.345
L1153.69 378.166
L1156.94 377.025
L1160.18 378.362
L1163.43 376.254
L1166.67 377.798
L1169.92 378.658
L1173.16 378.873
L1176.41 378.544
L1179.65 377.736
L1182.9 378.542
L1186.14 378.404
L1189.39 378.55
L1192.63 376.554
L1195.88 378.966
L1199.12 378.035
L1202.37 378.666
L1205.61 376.976
L1208.86 376.688
L1212.1 378.35
L1215.35 377.804
L1218.59 379.042
L1221.84 378.436
L1225.08 378.37
L1228.33 378.432
L1231.57 378.277
L1234.82 377.867
L1238.07 378.581
L1241.31 377.797
L1244.56 378.396
L1247.8 378.701
L1251.05 378.164
L1257.54 378.347
L1260.78 376.571
L1264.03 378.091
L1267.27 378.434
L1270.52 378.917
L1273.76 378.877
L1277.01 377.876
L1280.25 378.104
L1283.5 378.81
L1286.74 377.886
L1293.23 378.688
L1296.48 378.091
L1299.72 378.073
L1302.97 376.657
L1306.21 378.851
L1309.46 376.344
L1312.7 377.397
L1315.95 377.931
L1319.19 377.806
L1322.44 379.125
L1325.68 379.116
L1328.93 375.9
L1332.17 377.224
L1335.42 379.112
L1338.66 378.088
L1341.91 371.915
L1345.15 377.605
L1348.4 378.532
L1351.64 379.003
L1354.89 378.194
L1358.13 377.992
L1361.38 373.974
L1364.62 378.726
L1367.87 378.639
L1371.12 378.436
L1374.36 377.715
L1377.61 378.592
L1380.85 378.152
L1384.1 377.852
L1387.34 380.691
L1390.59 377.725
L1393.83 377.929
L1397.08 377.422
L1400.32 378.405
L1406.81 378.055
L1413.3 378.293
L1416.55 378.223
L1419.79 377.685
L1423.04 378.174
L1426.28 378.496
L1429.53 377.533
L1432.77 377.237
L1436.02 377.144
L1439.26 377.772
L1442.51 377.426
L1445.75 377.721
L1449 378.802
L1452.24 378.432
L1455.49 377.153
L1458.73 378.293
L1461.98 378.772
L1465.22 378.831
L1468.47 378.516
L1471.71 378.953
L1474.96 378.493
L1481.45 377.988
L1484.69 378.259
L1487.94 377.979
L1494.43 378.186
L1497.67 378.184
L1500.92 377.74
L1504.16 378.12
L1504.16 378.12" style="fill:none;stroke:#000000;"/>
   </g>
   <g id="matplotlib.axis_1">
    <g id="xtick_1">
     <g id="line2d_8">
      <path clip-path="url(#pec089a9809)" d="
M209.362 807.57
L209.362 89.73" style="fill:none;stroke:#000000;stroke-dasharray:1.000000,3.000000;stroke-dashoffset:0.0;stroke-linecap:butt;stroke-width:0.5;"/>
     </g>
     <g id="line2d_9">
      <defs>
       <path d="
M0 0
L0 -4" id="m0012dd4eef" style="stroke:#000000;stroke-linecap:butt;stroke-width:0.5;"/>
      </defs>
      <g>
       <use style="stroke:#000000;stroke-linecap:butt;stroke-width:0.5;" x="209.3625" xlink:href="#m0012dd4eef" y="807.57"/>
      </g>
     </g>
     <g id="line2d_10">
      <defs>
       <path d="
M0 0
L0 4" id="m476344969c" style="stroke:#000000;stroke-linecap:butt;stroke-width:0.5;"/>
      </defs>
      <g>
       <use style="stroke:#000000;stroke-linecap:butt;stroke-width:0.5;" x="209.3625" xlink:href="#m476344969c" y="89.73"/>
      </g>
     </g>
     <g id="text_1">
      <!-- 0 -->
      <defs>
       <path d="
M31.7812 66.4062
Q24.1719 66.4062 20.3281 58.9062
Q16.5 51.4219 16.5 36.375
Q16.5 21.3906 20.3281 13.8906
Q24.1719 6.39062 31.7812 6.39062
Q39.4531 6.39062 43.2812 13.8906
Q47.125 21.3906 47.125 36.375
Q47.125 51.4219 43.2812 58.9062
Q39.4531 66.4062 31.7812 66.4062
M31.7812 74.2188
Q44.0469 74.2188 50.5156 64.5156
Q56.9844 54.8281 56.9844 36.375
Q56.9844 17.9688 50.5156 8.26562
Q44.0469 -1.42188 31.7812 -1.42188
Q19.5312 -1.42188 13.0625 8.26562
Q6.59375 17.9688 6.59375 36.375
Q6.59375 54.8281 13.0625 64.5156
Q19.5312 74.2188 31.7812 74.2188" id="DejaVuSans-30"/>
      </defs>
      <g transform="translate(206.3390625 820.47625)scale(0.12 -0.12)">
       <use xlink:href="#DejaVuSans-30"/>
      </g>
     </g>
    </g>
    <g id="xtick_2">
     <g id="line2d_11">
      <path clip-path="url(#pec089a9809)" d="
M371.618 807.57
L371.618 89.73" style="fill:none;stroke:#000000;stroke-dasharray:1.000000,3.000000;stroke-dashoffset:0.0;stroke-linecap:butt;stroke-width:0.5;"/>
     </g>
     <g id="line2d_12">
      <g>
       <use style="stroke:#000000;stroke-linecap:butt;stroke-width:0.5;" x="371.6184375" xlink:href="#m0012dd4eef" y="807.57"/>
      </g>
     </g>
     <g id="line2d_13">
      <g>
       <use style="stroke:#000000;stroke-linecap:butt;stroke-width:0.5;" x="371.6184375" xlink:href="#m476344969c" y="89.73"/>
      </g>
     </g>
     <g id="text_2">
      <!-- 50 -->
      <defs>
       <path d="
M10.7969 72.9062
L49.5156 72.9062
L49.5156 64.5938
L19.8281 64.5938
L19.8281 46.7344
Q21.9688 47.4688 24.1094 47.8281
Q26.2656 48.1875 28.4219 48.1875
Q40.625 48.1875 47.75 41.5
Q54.8906 34.8125 54.8906 23.3906
Q54.8906 11.625 47.5625 5.09375
Q40.2344 -1.42188 26.9062 -1.42188
Q22.3125 -1.42188 17.5469 -0.640625
Q12.7969 0.140625 7.71875 1.70312
L7.71875 11.625
Q12.1094 9.23438 16.7969 8.0625
Q21.4844 6.89062 26.7031 6.89062
Q35.1562 6.89062 40.0781 11.3281
Q45.0156 15.7656 45.0156 23.3906
Q45.0156 31 40.0781 35.4375
Q35.1562 39.8906 26.7031 39.8906
Q22.75 39.8906 18.8125 39.0156
Q14.8906 38.1406 10.7969 36.2812
z
" id="DejaVuSans-35"/>
      </defs>
      <g transform="translate(364.845 820.47625)scale(0.12 -0.12)">
       <use xlink:href="#DejaVuSans-35"/>
       <use x="63.623046875" xlink:href="#DejaVuSans-30"/>
      </g>
     </g>
    </g>
    <g id="xtick_3">
     <g id="line2d_14">
      <path clip-path="url(#pec089a9809)" d="
M533.874 807.57
L533.874 89.73" style="fill:none;stroke:#000000;stroke-dasharray:1.000000,3.000000;stroke-dashoffset:0.0;stroke-linecap:butt;stroke-width:0.5;"/>
     </g>
     <g id="line2d_15">
      <g>
       <use style="stroke:#000000;stroke-linecap:butt;stroke-width:0.5;" x="533.874375" xlink:href="#m0012dd4eef" y="807.57"/>
      </g>
     </g>
     <g id="line2d_16">
      <g>
       <use style="stroke:#000000;stroke-linecap:butt;stroke-width:0.5;" x="533.874375" xlink:href="#m476344969c" y="89.73"/>
      </g>
     </g>
     <g id="text_3">
      <!-- 100 -->
      <defs>
       <path d="
M12.4062 8.29688
L28.5156 8.29688
L28.5156 63.9219
L10.9844 60.4062
L10.9844 69.3906
L28.4219 72.9062
L38.2812 72.9062
L38.2812 8.29688
L54.3906 8.29688
L54.3906 0
L12.4062 0
z
" id="DejaVuSans-31"/>
      </defs>
      <g transform="translate(523.479375 820.47625)scale(0.12 -0.12)">
       <use xlink:href="#DejaVuSans-31"/>
       <use x="63.623046875" xlink:href="#DejaVuSans-30"/>
       <use x="127.24609375" xlink:href="#DejaVuSans-30"/>
      </g>
     </g>
    </g>
    <g id="xtick_4">
     <g id="line2d_17">
      <path clip-path="url(#pec089a9809)" d="
M696.13 807.57
L696.13 89.73" style="fill:none;stroke:#000000;stroke-dasharray:1.000000,3.000000;stroke-dashoffset:0.0;stroke-linecap:butt;stroke-width:0.5;"/>
     </g>
     <g id="line2d_18">
      <g>
       <use style="stroke:#000000;stroke-linecap:butt;stroke-width:0.5;" x="696.1303125" xlink:href="#m0012dd4eef" y="807.57"/>
      </g>
     </g>
     <g id="line2d_19">
      <g>
       <use style="stroke:#000000;stroke-linecap:butt;stroke-width:0.5;" x="696.1303125" xlink:href="#m476344969c" y="89.73"/>
      </g>
     </g>
     <g id="text_4">
      <!-- 150 -->
      <g transform="translate(685.7353125 820.47625)scale(0.12 -0.12)">
       <use xlink:href="#DejaVuSans-31"/>
       <use x="63.623046875" xlink:href="#DejaVuSans-35"/>
       <use x="127.24609375" xlink:href="#DejaVuSans-30"/>
      </g>
     </g>
    </g>
    <g id="xtick_5">
     <g id="line2d_20">
      <path clip-path="url(#pec089a9809)" d="
M858.386 807.57
L858.386 89.73" style="fill:none;stroke:#000000;stroke-dasharray:1.000000,3.000000;stroke-dashoffset:0.0;stroke-linecap:butt;stroke-width:0.5;"/>
     </g>
     <g id="line2d_21">
      <g>
       <use style="stroke:#000000;stroke-linecap:butt;stroke-width:0.5;" x="858.38625" xlink:href="#m0012dd4eef" y="807.57"/>
      </g>
     </g>
     <g id="line2d_22">
      <g>
       <use style="stroke:#000000;stroke-linecap:butt;stroke-width:0.5;" x="858.38625" xlink:href="#m476344969c" y="89.73"/>
      </g>
     </g>
     <g id="text_5">
      <!-- 200 -->
      <defs>
       <path d="
M19.1875 8.29688
L53.6094 8.29688
L53.6094 0
L7.32812 0
L7.32812 8.29688
Q12.9375 14.1094 22.625 23.8906
Q32.3281 33.6875 34.8125 36.5312
Q39.5469 41.8438 41.4219 45.5312
Q43.3125 49.2188 43.3125 52.7812
Q43.3125 58.5938 39.2344 62.25
Q35.1562 65.9219 28.6094 65.9219
Q23.9688 65.9219 18.8125 64.3125
Q13.6719 62.7031 7.8125 59.4219
L7.8125 69.3906
Q13.7656 71.7812 18.9375 73
Q24.125 74.2188 28.4219 74.2188
Q39.75 74.2188 46.4844 68.5469
Q53.2188 62.8906 53.2188 53.4219
Q53.2188 48.9219 51.5312 44.8906
Q49.8594 40.875 45.4062 35.4062
Q44.1875 33.9844 37.6406 27.2188
Q31.1094 20.4531 19.1875 8.29688" id="DejaVuSans-32"/>
      </defs>
      <g transform="translate(847.771875 820.47625)scale(0.12 -0.12)">
       <use xlink:href="#DejaVuSans-32"/>
       <use x="63.623046875" xlink:href="#DejaVuSans-30"/>
       <use x="127.24609375" xlink:href="#DejaVuSans-30"/>
      </g>
     </g>
    </g>
    <g id="xtick_6">
     <g id="line2d_23">
      <path clip-path="url(#pec089a9809)" d="
M1020.64 807.57
L1020.64 89.73" style="fill:none;stroke:#000000;stroke-dasharray:1.000000,3.000000;stroke-dashoffset:0.0;stroke-linecap:butt;stroke-width:0.5;"/>
     </g>
     <g id="line2d_24">
      <g>
       <use style="stroke:#000000;stroke-linecap:butt;stroke-width:0.5;" x="1020.6421875" xlink:href="#m0012dd4eef" y="807.57"/>
      </g>
     </g>
     <g id="line2d_25">
      <g>
       <use style="stroke:#000000;stroke-linecap:butt;stroke-width:0.5;" x="1020.6421875" xlink:href="#m476344969c" y="89.73"/>
      </g>
     </g>
     <g id="text_6">
      <!-- 250 -->
      <g transform="translate(1010.0278125 820.47625)scale(0.12 -0.12)">
       <use xlink:href="#DejaVuSans-32"/>
       <use x="63.623046875" xlink:href="#DejaVuSans-35"/>
       <use x="127.24609375" xlink:href="#DejaVuSans-30"/>
      </g>
     </g>
    </g>
    <g id="xtick_7">
     <g id="line2d_26">
      <path clip-path="url(#pec089a9809)" d="
M1182.9 807.57
L1182.9 89.73" style="fill:none;stroke:#000000;stroke-dasharray:1.000000,3.000000;stroke-dashoffset:0.0;stroke-linecap:butt;stroke-width:0.5;"/>
     </g>
     <g id="line2d_27">
      <g>
       <use style="stroke:#000000;stroke-linecap:butt;stroke-width:0.5;" x="1182.898125" xlink:href="#m0012dd4eef" y="807.57"/>
      </g>
     </g>
     <g id="line2d_28">
      <g>
       <use style="stroke:#000000;stroke-linecap:butt;stroke-width:0.5;" x="1182.898125" xlink:href="#m476344969c" y="89.73"/>
      </g>
     </g>
     <g id="text_7">
      <!-- 300 -->
      <defs>
       <path d="
M40.5781 39.3125
Q47.6562 37.7969 51.625 33
Q55.6094 28.2188 55.6094 21.1875
Q55.6094 10.4062 48.1875 4.48438
Q40.7656 -1.42188 27.0938 -1.42188
Q22.5156 -1.42188 17.6562 -0.515625
Q12.7969 0.390625 7.625 2.20312
L7.625 11.7188
Q11.7188 9.32812 16.5938 8.10938
Q21.4844 6.89062 26.8125 6.89062
Q36.0781 6.89062 40.9375 10.5469
Q45.7969 14.2031 45.7969 21.1875
Q45.7969 27.6406 41.2812 31.2656
Q36.7656 34.9062 28.7188 34.9062
L20.2188 34.9062
L20.2188 43.0156
L29.1094 43.0156
Q36.375 43.0156 40.2344 45.9219
Q44.0938 48.8281 44.0938 54.2969
Q44.0938 59.9062 40.1094 62.9062
Q36.1406 65.9219 28.7188 65.9219
Q24.6562 65.9219 20.0156 65.0312
Q15.375 64.1562 9.8125 62.3125
L9.8125 71.0938
Q15.4375 72.6562 20.3438 73.4375
Q25.25 74.2188 29.5938 74.2188
Q40.8281 74.2188 47.3594 69.1094
Q53.9062 64.0156 53.9062 55.3281
Q53.9062 49.2656 50.4375 45.0938
Q46.9688 40.9219 40.5781 39.3125" id="DejaVuSans-33"/>
      </defs>
      <g transform="translate(1172.3015625 820.47625)scale(0.12 -0.12)">
       <use xlink:href="#DejaVuSans-33"/>
       <use x="63.623046875" xlink:href="#DejaVuSans-30"/>
       <use x="127.24609375" xlink:href="#DejaVuSans-30"/>
      </g>
     </g>
    </g>
    <g id="xtick_8">
     <g id="line2d_29">
      <path clip-path="url(#pec089a9809)" d="
M1345.15 807.57
L1345.15 89.73" style="fill:none;stroke:#000000;stroke-dasharray:1.000000,3.000000;stroke-dashoffset:0.0;stroke-linecap:butt;stroke-width:0.5;"/>
     </g>
     <g id="line2d_30">
      <g>
       <use style="stroke:#000000;stroke-linecap:butt;stroke-width:0.5;" x="1345.1540625" xlink:href="#m0012dd4eef" y="807.57"/>
      </g>
     </g>
     <g id="line2d_31">
      <g>
       <use style="stroke:#000000;stroke-linecap:butt;stroke-width:0.5;" x="1345.1540625" xlink:href="#m476344969c" y="89.73"/>
      </g>
     </g>
     <g id="text_8">
      <!-- 350 -->
      <g transform="translate(1334.5575 820.47625)scale(0.12 -0.12)">
       <use xlink:href="#DejaVuSans-33"/>
       <use x="63.623046875" xlink:href="#DejaVuSans-35"/>
       <use x="127.24609375" xlink:href="#DejaVuSans-30"/>
      </g>
     </g>
    </g>
    <g id="xtick_9">
     <g id="line2d_32">
      <path clip-path="url(#pec089a9809)" d="
M1507.41 807.57
L1507.41 89.73" style="fill:none;stroke:#000000;stroke-dasharray:1.000000,3.000000;stroke-dashoffset:0.0;stroke-linecap:butt;stroke-width:0.5;"/>
     </g>
     <g id="line2d_33">
      <g>
       <use style="stroke:#000000;stroke-linecap:butt;stroke-width:0.5;" x="1507.41" xlink:href="#m0012dd4eef" y="807.57"/>
      </g>
     </g>
     <g id="line2d_34">
      <g>
       <use style="stroke:#000000;stroke-linecap:butt;stroke-width:0.5;" x="1507.41" xlink:href="#m476344969c" y="89.73"/>
      </g>
     </g>
     <g id="text_9">
      <!-- 400 -->
      <defs>
       <path d="
M37.7969 64.3125
L12.8906 25.3906
L37.7969 25.3906
z

M35.2031 72.9062
L47.6094 72.9062
L47.6094 25.3906
L58.0156 25.3906
L58.0156 17.1875
L47.6094 17.1875
L47.6094 0
L37.7969 0
L37.7969 17.1875
L4.89062 17.1875
L4.89062 26.7031
z
" id="DejaVuSans-34"/>
      </defs>
      <g transform="translate(1496.649375 820.47625)scale(0.12 -0.12)">
       <use xlink:href="#DejaVuSans-34"/>
       <use x="63.623046875" xlink:href="#DejaVuSans-30"/>
       <use x="127.24609375" xlink:href="#DejaVuSans-30"/>
      </g>
     </g>
    </g>
   </g>
   <g id="matplotlib.axis_2">
    <g id="ytick_1">
     <g id="line2d_35">
      <path clip-path="url(#pec089a9809)" d="
M209.362 807.57
L1507.41 807.57" style="fill:none;stroke:#000000;stroke-dasharray:1.000000,3.000000;stroke-dashoffset:0.0;stroke-linecap:butt;stroke-width:0.5;"/>
     </g>
     <g id="line2d_36">
      <defs>
       <path d="
M0 0
L4 0" id="me8a85f7bf6" style="stroke:#000000;stroke-linecap:butt;stroke-width:0.5;"/>
      </defs>
      <g>
       <use style="stroke:#000000;stroke-linecap:butt;stroke-width:0.5;" x="209.3625" xlink:href="#me8a85f7bf6" y="807.57"/>
      </g>
     </g>
     <g id="line2d_37">
      <defs>
       <path d="
M0 0
L-4 0" id="m1a32005dea" style="stroke:#000000;stroke-linecap:butt;stroke-width:0.5;"/>
      </defs>
      <g>
       <use style="stroke:#000000;stroke-linecap:butt;stroke-width:0.5;" x="1507.41" xlink:href="#m1a32005dea" y="807.57"/>
      </g>
     </g>
     <g id="text_10">
      <!-- 0 -->
      <g transform="translate(199.315625 811.9378125)scale(0.12 -0.12)">
       <use xlink:href="#DejaVuSans-30"/>
      </g>
     </g>
    </g>
    <g id="ytick_2">
     <g id="line2d_38">
      <path clip-path="url(#pec089a9809)" d="
M209.362 628.11
L1507.41 628.11" style="fill:none;stroke:#000000;stroke-dasharray:1.000000,3.000000;stroke-dashoffset:0.0;stroke-linecap:butt;stroke-width:0.5;"/>
     </g>
     <g id="line2d_39">
      <g>
       <use style="stroke:#000000;stroke-linecap:butt;stroke-width:0.5;" x="209.3625" xlink:href="#me8a85f7bf6" y="628.11"/>
      </g>
     </g>
     <g id="line2d_40">
      <g>
       <use style="stroke:#000000;stroke-linecap:butt;stroke-width:0.5;" x="1507.41" xlink:href="#m1a32005dea" y="628.11"/>
      </g>
     </g>
     <g id="text_11">
      <!-- 500000 -->
      <g transform="translate(161.275625 632.4778125)scale(0.12 -0.12)">
       <use xlink:href="#DejaVuSans-35"/>
       <use x="63.623046875" xlink:href="#DejaVuSans-30"/>
       <use x="127.24609375" xlink:href="#DejaVuSans-30"/>
       <use x="190.869140625" xlink:href="#DejaVuSans-30"/>
       <use x="254.4921875" xlink:href="#DejaVuSans-30"/>
       <use x="318.115234375" xlink:href="#DejaVuSans-30"/>
      </g>
     </g>
    </g>
    <g id="ytick_3">
     <g id="line2d_41">
      <path clip-path="url(#pec089a9809)" d="
M209.362 448.65
L1507.41 448.65" style="fill:none;stroke:#000000;stroke-dasharray:1.000000,3.000000;stroke-dashoffset:0.0;stroke-linecap:butt;stroke-width:0.5;"/>
     </g>
     <g id="line2d_42">
      <g>
       <use style="stroke:#000000;stroke-linecap:butt;stroke-width:0.5;" x="209.3625" xlink:href="#me8a85f7bf6" y="448.65"/>
      </g>
     </g>
     <g id="line2d_43">
      <g>
       <use style="stroke:#000000;stroke-linecap:butt;stroke-width:0.5;" x="1507.41" xlink:href="#m1a32005dea" y="448.65"/>
      </g>
     </g>
     <g id="text_12">
      <!-- 1000000 -->
      <g transform="translate(154.0325 453.0178125)scale(0.12 -0.12)">
       <use xlink:href="#DejaVuSans-31"/>
       <use x="63.623046875" xlink:href="#DejaVuSans-30"/>
       <use x="127.24609375" xlink:href="#DejaVuSans-30"/>
       <use x="190.869140625" xlink:href="#DejaVuSans-30"/>
       <use x="254.4921875" xlink:href="#DejaVuSans-30"/>
       <use x="318.115234375" xlink:href="#DejaVuSans-30"/>
       <use x="381.73828125" xlink:href="#DejaVuSans-30"/>
      </g>
     </g>
    </g>
    <g id="ytick_4">
     <g id="line2d_44">
      <path clip-path="url(#pec089a9809)" d="
M209.362 269.19
L1507.41 269.19" style="fill:none;stroke:#000000;stroke-dasharray:1.000000,3.000000;stroke-dashoffset:0.0;stroke-linecap:butt;stroke-width:0.5;"/>
     </g>
     <g id="line2d_45">
      <g>
       <use style="stroke:#000000;stroke-linecap:butt;stroke-width:0.5;" x="209.3625" xlink:href="#me8a85f7bf6" y="269.19"/>
      </g>
     </g>
     <g id="line2d_46">
      <g>
       <use style="stroke:#000000;stroke-linecap:butt;stroke-width:0.5;" x="1507.41" xlink:href="#m1a32005dea" y="269.19"/>
      </g>
     </g>
     <g id="text_13">
      <!-- 1500000 -->
      <g transform="translate(154.0325 273.5578125)scale(0.12 -0.12)">
       <use xlink:href="#DejaVuSans-31"/>
       <use x="63.623046875" xlink:href="#DejaVuSans-35"/>
       <use x="127.24609375" xlink:href="#DejaVuSans-30"/>
       <use x="190.869140625" xlink:href="#DejaVuSans-30"/>
       <use x="254.4921875" xlink:href="#DejaVuSans-30"/>
       <use x="318.115234375" xlink:href="#DejaVuSans-30"/>
       <use x="381.73828125" xlink:href="#DejaVuSans-30"/>
      </g>
     </g>
    </g>
    <g id="ytick_5">
     <g id="line2d_47">
      <path clip-path="url(#pec089a9809)" d="
M209.362 89.73
L1507.41 89.73" style="fill:none;stroke:#000000;stroke-dasharray:1.000000,3.000000;stroke-dashoffset:0.0;stroke-linecap:butt;stroke-width:0.5;"/>
     </g>
     <g id="line2d_48">
      <g>
       <use style="stroke:#000000;stroke-linecap:butt;stroke-width:0.5;" x="209.3625" xlink:href="#me8a85f7bf6" y="89.73"/>
      </g>
     </g>
     <g id="line2d_49">
      <g>
       <use style="stroke:#000000;stroke-linecap:butt;stroke-width:0.5;" x="1507.41" xlink:href="#m1a32005dea" y="89.73"/>
      </g>
     </g>
     <g id="text_14">
      <!-- 2000000 -->
      <g transform="translate(153.59375 94.0978125)scale(0.12 -0.12)">
       <use xlink:href="#DejaVuSans-32"/>
       <use x="63.623046875" xlink:href="#DejaVuSans-30"/>
       <use x="127.24609375" xlink:href="#DejaVuSans-30"/>
       <use x="190.869140625" xlink:href="#DejaVuSans-30"/>
       <use x="254.4921875" xlink:href="#DejaVuSans-30"/>
       <use x="318.115234375" xlink:href="#DejaVuSans-30"/>
       <use x="381.73828125" xlink:href="#DejaVuSans-30"/>
      </g>
     </g>
    </g>
   </g>
   <g id="patch_3">
    <path d="
M209.362 89.73
L1507.41 89.73" style="fill:none;stroke:#000000;"/>
   </g>
   <g id="patch_4">
    <path d="
M1507.41 807.57
L1507.41 89.73" style="fill:none;stroke:#000000;"/>
   </g>
   <g id="patch_5">
    <path d="
M209.362 807.57
L1507.41 807.57" style="fill:none;stroke:#000000;"/>
   </g>
   <g id="patch_6">
    <path d="
M209.362 807.57
L209.362 89.73" style="fill:none;stroke:#000000;"/>
   </g>
   <g id="legend_1">
    <g id="patch_7">
     <path d="
M1158.29 251.609
L1500.21 251.609
L1500.21 96.93
L1158.29 96.93
L1158.29 251.609
z
" style="fill:#ffffff;stroke:#000000;"/>
    </g>
    <g id="line2d_50">
     <path d="
M1168.37 108.592
L1188.53 108.592" style="fill:none;stroke:#0000ff;"/>
    </g>
    <g id="line2d_51"/>
    <g id="text_15">
     <!-- UnHalted Core Cycles -->
     <defs>
      <path d="
M30.6094 48.3906
Q23.3906 48.3906 19.1875 42.75
Q14.9844 37.1094 14.9844 27.2969
Q14.9844 17.4844 19.1562 11.8438
Q23.3438 6.20312 30.6094 6.20312
Q37.7969 6.20312 41.9844 11.8594
Q46.1875 17.5312 46.1875 27.2969
Q46.1875 37.0156 41.9844 42.7031
Q37.7969 48.3906 30.6094 48.3906
M30.6094 56
Q42.3281 56 49.0156 48.375
Q55.7188 40.7656 55.7188 27.2969
Q55.7188 13.875 49.0156 6.21875
Q42.3281 -1.42188 30.6094 -1.42188
Q18.8438 -1.42188 12.1719 6.21875
Q5.51562 13.875 5.51562 27.2969
Q5.51562 40.7656 12.1719 48.375
Q18.8438 56 30.6094 56" id="DejaVuSans-6f"/>
      <path d="
M54.8906 33.0156
L54.8906 0
L45.9062 0
L45.9062 32.7188
Q45.9062 40.4844 42.875 44.3281
Q39.8438 48.1875 33.7969 48.1875
Q26.5156 48.1875 22.3125 43.5469
Q18.1094 38.9219 18.1094 30.9062
L18.1094 0
L9.07812 0
L9.07812 54.6875
L18.1094 54.6875
L18.1094 46.1875
Q21.3438 51.125 25.7031 53.5625
Q30.0781 56 35.7969 56
Q45.2188 56 50.0469 50.1719
Q54.8906 44.3438 54.8906 33.0156" id="DejaVuSans-6e"/>
      <path d="
M9.42188 75.9844
L18.4062 75.9844
L18.4062 0
L9.42188 0
z
" id="DejaVuSans-6c"/>
      <path d="
M41.1094 46.2969
Q39.5938 47.1719 37.8125 47.5781
Q36.0312 48 33.8906 48
Q26.2656 48 22.1875 43.0469
Q18.1094 38.0938 18.1094 28.8125
L18.1094 0
L9.07812 0
L9.07812 54.6875
L18.1094 54.6875
L18.1094 46.1875
Q20.9531 51.1719 25.4844 53.5781
Q30.0312 56 36.5312 56
Q37.4531 56 38.5781 55.875
Q39.7031 55.7656 41.0625 55.5156
z
" id="DejaVuSans-72"/>
      <path id="DejaVuSans-20"/>
      <path d="
M32.1719 -5.07812
Q28.375 -14.8438 24.75 -17.8125
Q21.1406 -20.7969 15.0938 -20.7969
L7.90625 -20.7969
L7.90625 -13.2812
L13.1875 -13.2812
Q16.8906 -13.2812 18.9375 -11.5156
Q21 -9.76562 23.4844 -3.21875
L25.0938 0.875
L2.98438 54.6875
L12.5 54.6875
L29.5938 11.9219
L46.6875 54.6875
L56.2031 54.6875
z
" id="DejaVuSans-79"/>
      <path d="
M44.2812 53.0781
L44.2812 44.5781
Q40.4844 46.5312 36.375 47.5
Q32.2812 48.4844 27.875 48.4844
Q21.1875 48.4844 17.8438 46.4375
Q14.5 44.3906 14.5 40.2812
Q14.5 37.1562 16.8906 35.375
Q19.2812 33.5938 26.5156 31.9844
L29.5938 31.2969
Q39.1562 29.25 43.1875 25.5156
Q47.2188 21.7812 47.2188 15.0938
Q47.2188 7.46875 41.1875 3.01562
Q35.1562 -1.42188 24.6094 -1.42188
Q20.2188 -1.42188 15.4531 -0.5625
Q10.6875 0.296875 5.42188 2
L5.42188 11.2812
Q10.4062 8.6875 15.2344 7.39062
Q20.0625 6.10938 24.8125 6.10938
Q31.1562 6.10938 34.5625 8.28125
Q37.9844 10.4531 37.9844 14.4062
Q37.9844 18.0625 35.5156 20.0156
Q33.0625 21.9688 24.7031 23.7812
L21.5781 24.5156
Q13.2344 26.2656 9.51562 29.9062
Q5.8125 33.5469 5.8125 39.8906
Q5.8125 47.6094 11.2812 51.7969
Q16.75 56 26.8125 56
Q31.7812 56 36.1719 55.2656
Q40.5781 54.5469 44.2812 53.0781" id="DejaVuSans-73"/>
      <path d="
M64.4062 67.2812
L64.4062 56.8906
Q59.4219 61.5312 53.7812 63.8125
Q48.1406 66.1094 41.7969 66.1094
Q29.2969 66.1094 22.6562 58.4688
Q16.0156 50.8281 16.0156 36.375
Q16.0156 21.9688 22.6562 14.3281
Q29.2969 6.6875 41.7969 6.6875
Q48.1406 6.6875 53.7812 8.98438
Q59.4219 11.2812 64.4062 15.9219
L64.4062 5.60938
Q59.2344 2.09375 53.4375 0.328125
Q47.6562 -1.42188 41.2188 -1.42188
Q24.6562 -1.42188 15.125 8.70312
Q5.60938 18.8438 5.60938 36.375
Q5.60938 53.9531 15.125 64.0781
Q24.6562 74.2188 41.2188 74.2188
Q47.75 74.2188 53.5312 72.4844
Q59.3281 70.75 64.4062 67.2812" id="DejaVuSans-43"/>
      <path d="
M18.3125 70.2188
L18.3125 54.6875
L36.8125 54.6875
L36.8125 47.7031
L18.3125 47.7031
L18.3125 18.0156
Q18.3125 11.3281 20.1406 9.42188
Q21.9688 7.51562 27.5938 7.51562
L36.8125 7.51562
L36.8125 0
L27.5938 0
Q17.1875 0 13.2344 3.875
Q9.28125 7.76562 9.28125 18.0156
L9.28125 47.7031
L2.6875 47.7031
L2.6875 54.6875
L9.28125 54.6875
L9.28125 70.2188
z
" id="DejaVuSans-74"/>
      <path d="
M45.4062 46.3906
L45.4062 75.9844
L54.3906 75.9844
L54.3906 0
L45.4062 0
L45.4062 8.20312
Q42.5781 3.32812 38.25 0.953125
Q33.9375 -1.42188 27.875 -1.42188
Q17.9688 -1.42188 11.7344 6.48438
Q5.51562 14.4062 5.51562 27.2969
Q5.51562 40.1875 11.7344 48.0938
Q17.9688 56 27.875 56
Q33.9375 56 38.25 53.625
Q42.5781 51.2656 45.4062 46.3906
M14.7969 27.2969
Q14.7969 17.3906 18.875 11.75
Q22.9531 6.10938 30.0781 6.10938
Q37.2031 6.10938 41.2969 11.75
Q45.4062 17.3906 45.4062 27.2969
Q45.4062 37.2031 41.2969 42.8438
Q37.2031 48.4844 30.0781 48.4844
Q22.9531 48.4844 18.875 42.8438
Q14.7969 37.2031 14.7969 27.2969" id="DejaVuSans-64"/>
      <path d="
M56.2031 29.5938
L56.2031 25.2031
L14.8906 25.2031
Q15.4844 15.9219 20.4844 11.0625
Q25.4844 6.20312 34.4219 6.20312
Q39.5938 6.20312 44.4531 7.46875
Q49.3125 8.73438 54.1094 11.2812
L54.1094 2.78125
Q49.2656 0.734375 44.1875 -0.34375
Q39.1094 -1.42188 33.8906 -1.42188
Q20.7969 -1.42188 13.1562 6.1875
Q5.51562 13.8125 5.51562 26.8125
Q5.51562 40.2344 12.7656 48.1094
Q20.0156 56 32.3281 56
Q43.3594 56 49.7812 48.8906
Q56.2031 41.7969 56.2031 29.5938
M47.2188 32.2344
Q47.125 39.5938 43.0938 43.9844
Q39.0625 48.3906 32.4219 48.3906
Q24.9062 48.3906 20.3906 44.1406
Q15.875 39.8906 15.1875 32.1719
z
" id="DejaVuSans-65"/>
      <path d="
M9.8125 72.9062
L19.6719 72.9062
L19.6719 43.0156
L55.5156 43.0156
L55.5156 72.9062
L65.375 72.9062
L65.375 0
L55.5156 0
L55.5156 34.7188
L19.6719 34.7188
L19.6719 0
L9.8125 0
z
" id="DejaVuSans-48"/>
      <path d="
M48.7812 52.5938
L48.7812 44.1875
Q44.9688 46.2969 41.1406 47.3438
Q37.3125 48.3906 33.4062 48.3906
Q24.6562 48.3906 19.8125 42.8438
Q14.9844 37.3125 14.9844 27.2969
Q14.9844 17.2812 19.8125 11.7344
Q24.6562 6.20312 33.4062 6.20312
Q37.3125 6.20312 41.1406 7.25
Q44.9688 8.29688 48.7812 10.4062
L48.7812 2.09375
Q45.0156 0.34375 40.9844 -0.53125
Q36.9688 -1.42188 32.4219 -1.42188
Q20.0625 -1.42188 12.7812 6.34375
Q5.51562 14.1094 5.51562 27.2969
Q5.51562 40.6719 12.8594 48.3281
Q20.2188 56 33.0156 56
Q37.1562 56 41.1094 55.1406
Q45.0625 54.2969 48.7812 52.5938" id="DejaVuSans-63"/>
      <path d="
M8.6875 72.9062
L18.6094 72.9062
L18.6094 28.6094
Q18.6094 16.8906 22.8438 11.7344
Q27.0938 6.59375 36.625 6.59375
Q46.0938 6.59375 50.3438 11.7344
Q54.5938 16.8906 54.5938 28.6094
L54.5938 72.9062
L64.5 72.9062
L64.5 27.3906
Q64.5 13.1406 57.4375 5.85938
Q50.3906 -1.42188 36.625 -1.42188
Q22.7969 -1.42188 15.7344 5.85938
Q8.6875 13.1406 8.6875 27.3906
z
" id="DejaVuSans-55"/>
      <path d="
M34.2812 27.4844
Q23.3906 27.4844 19.1875 25
Q14.9844 22.5156 14.9844 16.5
Q14.9844 11.7188 18.1406 8.90625
Q21.2969 6.10938 26.7031 6.10938
Q34.1875 6.10938 38.7031 11.4062
Q43.2188 16.7031 43.2188 25.4844
L43.2188 27.4844
z

M52.2031 31.2031
L52.2031 0
L43.2188 0
L43.2188 8.29688
Q40.1406 3.32812 35.5469 0.953125
Q30.9531 -1.42188 24.3125 -1.42188
Q15.9219 -1.42188 10.9531 3.29688
Q6 8.01562 6 15.9219
Q6 25.1406 12.1719 29.8281
Q18.3594 34.5156 30.6094 34.5156
L43.2188 34.5156
L43.2188 35.4062
Q43.2188 41.6094 39.1406 45
Q35.0625 48.3906 27.6875 48.3906
Q23 48.3906 18.5469 47.2656
Q14.1094 46.1406 10.0156 43.8906
L10.0156 52.2031
Q14.9375 54.1094 19.5781 55.0469
Q24.2188 56 28.6094 56
Q40.4844 56 46.3438 49.8438
Q52.2031 43.7031 52.2031 31.2031" id="DejaVuSans-61"/>
     </defs>
     <g transform="translate(1204.3665 113.63175)scale(0.144 -0.144)">
      <use xlink:href="#DejaVuSans-55"/>
      <use x="73.193359375" xlink:href="#DejaVuSans-6e"/>
      <use x="136.572265625" xlink:href="#DejaVuSans-48"/>
      <use x="211.767578125" xlink:href="#DejaVuSans-61"/>
      <use x="273.046875" xlink:href="#DejaVuSans-6c"/>
      <use x="300.830078125" xlink:href="#DejaVuSans-74"/>
      <use x="340.0390625" xlink:href="#DejaVuSans-65"/>
      <use x="401.5625" xlink:href="#DejaVuSans-64"/>
      <use x="465.0390625" xlink:href="#DejaVuSans-20"/>
      <use x="496.826171875" xlink:href="#DejaVuSans-43"/>
      <use x="566.650390625" xlink:href="#DejaVuSans-6f"/>
      <use x="627.83203125" xlink:href="#DejaVuSans-72"/>
      <use x="666.6953125" xlink:href="#DejaVuSans-65"/>
      <use x="728.21875" xlink:href="#DejaVuSans-20"/>
      <use x="760.005859375" xlink:href="#DejaVuSans-43"/>
      <use x="829.830078125" xlink:href="#DejaVuSans-79"/>
      <use x="889.009765625" xlink:href="#DejaVuSans-63"/>
      <use x="943.990234375" xlink:href="#DejaVuSans-6c"/>
      <use x="971.7734375" xlink:href="#DejaVuSans-65"/>
      <use x="1033.296875" xlink:href="#DejaVuSans-73"/>
     </g>
    </g>
    <g id="line2d_52">
     <path d="
M1168.37 129.728
L1188.53 129.728" style="fill:none;stroke:#008000;"/>
    </g>
    <g id="line2d_53"/>
    <g id="text_16">
     <!-- LD_BLOCKS_PARTIAL.ADDRESS_ALIAS -->
     <defs>
      <path d="
M39.4062 66.2188
Q28.6562 66.2188 22.3281 58.2031
Q16.0156 50.2031 16.0156 36.375
Q16.0156 22.6094 22.3281 14.5938
Q28.6562 6.59375 39.4062 6.59375
Q50.1406 6.59375 56.4219 14.5938
Q62.7031 22.6094 62.7031 36.375
Q62.7031 50.2031 56.4219 58.2031
Q50.1406 66.2188 39.4062 66.2188
M39.4062 74.2188
Q54.7344 74.2188 63.9062 63.9375
Q73.0938 53.6562 73.0938 36.375
Q73.0938 19.1406 63.9062 8.85938
Q54.7344 -1.42188 39.4062 -1.42188
Q24.0312 -1.42188 14.8125 8.82812
Q5.60938 19.0938 5.60938 36.375
Q5.60938 53.6562 14.8125 63.9375
Q24.0312 74.2188 39.4062 74.2188" id="DejaVuSans-4f"/>
      <path d="
M9.8125 72.9062
L19.6719 72.9062
L19.6719 42.0938
L52.3906 72.9062
L65.0938 72.9062
L28.9062 38.9219
L67.6719 0
L54.6875 0
L19.6719 35.1094
L19.6719 0
L9.8125 0
z
" id="DejaVuSans-4b"/>
      <path d="
M9.8125 72.9062
L19.6719 72.9062
L19.6719 8.29688
L55.1719 8.29688
L55.1719 0
L9.8125 0
z
" id="DejaVuSans-4c"/>
      <path d="
M10.6875 12.4062
L21 12.4062
L21 0
L10.6875 0
z
" id="DejaVuSans-2e"/>
      <path d="
M50.9844 -16.6094
L50.9844 -23.5781
L-0.984375 -23.5781
L-0.984375 -16.6094
z
" id="DejaVuSans-5f"/>
      <path d="
M19.6719 64.7969
L19.6719 8.10938
L31.5938 8.10938
Q46.6875 8.10938 53.6875 14.9375
Q60.6875 21.7812 60.6875 36.5312
Q60.6875 51.1719 53.6875 57.9844
Q46.6875 64.7969 31.5938 64.7969
z

M9.8125 72.9062
L30.0781 72.9062
Q51.2656 72.9062 61.1719 64.0938
Q71.0938 55.2812 71.0938 36.5312
Q71.0938 17.6719 61.125 8.82812
Q51.1719 0 30.0781 0
L9.8125 0
z
" id="DejaVuSans-44"/>
      <path d="
M9.8125 72.9062
L55.9062 72.9062
L55.9062 64.5938
L19.6719 64.5938
L19.6719 43.0156
L54.3906 43.0156
L54.3906 34.7188
L19.6719 34.7188
L19.6719 8.29688
L56.7812 8.29688
L56.7812 0
L9.8125 0
z
" id="DejaVuSans-45"/>
      <path d="
M34.1875 63.1875
L20.7969 26.9062
L47.6094 26.9062
z

M28.6094 72.9062
L39.7969 72.9062
L67.5781 0
L57.3281 0
L50.6875 18.7031
L17.8281 18.7031
L11.1875 0
L0.78125 0
z
" id="DejaVuSans-41"/>
      <path d="
M19.6719 34.8125
L19.6719 8.10938
L35.5 8.10938
Q43.4531 8.10938 47.2812 11.4062
Q51.125 14.7031 51.125 21.4844
Q51.125 28.3281 47.2812 31.5625
Q43.4531 34.8125 35.5 34.8125
z

M19.6719 64.7969
L19.6719 42.8281
L34.2812 42.8281
Q41.5 42.8281 45.0312 45.5312
Q48.5781 48.25 48.5781 53.8125
Q48.5781 59.3281 45.0312 62.0625
Q41.5 64.7969 34.2812 64.7969
z

M9.8125 72.9062
L35.0156 72.9062
Q46.2969 72.9062 52.3906 68.2188
Q58.5 63.5312 58.5 54.8906
Q58.5 48.1875 55.375 44.2344
Q52.25 40.2812 46.1875 39.3125
Q53.4688 37.75 57.5 32.7812
Q61.5312 27.8281 61.5312 20.4062
Q61.5312 10.6406 54.8906 5.3125
Q48.25 0 35.9844 0
L9.8125 0
z
" id="DejaVuSans-42"/>
      <path d="
M53.5156 70.5156
L53.5156 60.8906
Q47.9062 63.5781 42.9219 64.8906
Q37.9375 66.2188 33.2969 66.2188
Q25.25 66.2188 20.875 63.0938
Q16.5 59.9688 16.5 54.2031
Q16.5 49.3594 19.4062 46.8906
Q22.3125 44.4375 30.4219 42.9219
L36.375 41.7031
Q47.4062 39.5938 52.6562 34.2969
Q57.9062 29 57.9062 20.125
Q57.9062 9.51562 50.7969 4.04688
Q43.7031 -1.42188 29.9844 -1.42188
Q24.8125 -1.42188 18.9688 -0.25
Q13.1406 0.921875 6.89062 3.21875
L6.89062 13.375
Q12.8906 10.0156 18.6562 8.29688
Q24.4219 6.59375 29.9844 6.59375
Q38.4219 6.59375 43.0156 9.90625
Q47.6094 13.2344 47.6094 19.3906
Q47.6094 24.75 44.3125 27.7812
Q41.0156 30.8125 33.5 32.3281
L27.4844 33.5
Q16.4531 35.6875 11.5156 40.375
Q6.59375 45.0625 6.59375 53.4219
Q6.59375 63.0938 13.4062 68.6562
Q20.2188 74.2188 32.1719 74.2188
Q37.3125 74.2188 42.625 73.2812
Q47.9531 72.3594 53.5156 70.5156" id="DejaVuSans-53"/>
      <path d="
M44.3906 34.1875
Q47.5625 33.1094 50.5625 29.5938
Q53.5625 26.0781 56.5938 19.9219
L66.6094 0
L56 0
L46.6875 18.7031
Q43.0625 26.0312 39.6719 28.4219
Q36.2812 30.8125 30.4219 30.8125
L19.6719 30.8125
L19.6719 0
L9.8125 0
L9.8125 72.9062
L32.0781 72.9062
Q44.5781 72.9062 50.7344 67.6719
Q56.8906 62.4531 56.8906 51.9062
Q56.8906 45.0156 53.6875 40.4688
Q50.4844 35.9375 44.3906 34.1875
M19.6719 64.7969
L19.6719 38.9219
L32.0781 38.9219
Q39.2031 38.9219 42.8438 42.2188
Q46.4844 45.5156 46.4844 51.9062
Q46.4844 58.2969 42.8438 61.5469
Q39.2031 64.7969 32.0781 64.7969
z
" id="DejaVuSans-52"/>
      <path d="
M19.6719 64.7969
L19.6719 37.4062
L32.0781 37.4062
Q38.9688 37.4062 42.7188 40.9688
Q46.4844 44.5312 46.4844 51.125
Q46.4844 57.6719 42.7188 61.2344
Q38.9688 64.7969 32.0781 64.7969
z

M9.8125 72.9062
L32.0781 72.9062
Q44.3438 72.9062 50.6094 67.3594
Q56.8906 61.8125 56.8906 51.125
Q56.8906 40.3281 50.6094 34.8125
Q44.3438 29.2969 32.0781 29.2969
L19.6719 29.2969
L19.6719 0
L9.8125 0
z
" id="DejaVuSans-50"/>
      <path d="
M9.8125 72.9062
L19.6719 72.9062
L19.6719 0
L9.8125 0
z
" id="DejaVuSans-49"/>
      <path d="
M-0.296875 72.9062
L61.375 72.9062
L61.375 64.5938
L35.5 64.5938
L35.5 0
L25.5938 0
L25.5938 64.5938
L-0.296875 64.5938
z
" id="DejaVuSans-54"/>
     </defs>
     <g transform="translate(1204.3665 134.76825)scale(0.144 -0.144)">
      <use xlink:href="#DejaVuSans-4c"/>
      <use x="55.712890625" xlink:href="#DejaVuSans-44"/>
      <use x="132.71484375" xlink:href="#DejaVuSans-5f"/>
      <use x="182.71484375" xlink:href="#DejaVuSans-42"/>
      <use x="251.318359375" xlink:href="#DejaVuSans-4c"/>
      <use x="303.40625" xlink:href="#DejaVuSans-4f"/>
      <use x="382.1171875" xlink:href="#DejaVuSans-43"/>
      <use x="451.94140625" xlink:href="#DejaVuSans-4b"/>
      <use x="517.517578125" xlink:href="#DejaVuSans-53"/>
      <use x="580.994140625" xlink:href="#DejaVuSans-5f"/>
      <use x="630.994140625" xlink:href="#DejaVuSans-50"/>
      <use x="684.921875" xlink:href="#DejaVuSans-41"/>
      <use x="753.330078125" xlink:href="#DejaVuSans-52"/>
      <use x="815.5625" xlink:href="#DejaVuSans-54"/>
      <use x="876.646484375" xlink:href="#DejaVuSans-49"/>
      <use x="906.138671875" xlink:href="#DejaVuSans-41"/>
      <use x="974.546875" xlink:href="#DejaVuSans-4c"/>
      <use x="1030.25976562" xlink:href="#DejaVuSans-2e"/>
      <use x="1062.046875" xlink:href="#DejaVuSans-41"/>
      <use x="1130.45507812" xlink:href="#DejaVuSans-44"/>
      <use x="1207.45703125" xlink:href="#DejaVuSans-44"/>
      <use x="1284.45898438" xlink:href="#DejaVuSans-52"/>
      <use x="1353.94140625" xlink:href="#DejaVuSans-45"/>
      <use x="1417.125" xlink:href="#DejaVuSans-53"/>
      <use x="1480.6015625" xlink:href="#DejaVuSans-53"/>
      <use x="1544.078125" xlink:href="#DejaVuSans-5f"/>
      <use x="1594.078125" xlink:href="#DejaVuSans-41"/>
      <use x="1662.48632812" xlink:href="#DejaVuSans-4c"/>
      <use x="1718.19921875" xlink:href="#DejaVuSans-49"/>
      <use x="1747.69140625" xlink:href="#DejaVuSans-41"/>
      <use x="1816.09960938" xlink:href="#DejaVuSans-53"/>
     </g>
    </g>
    <g id="line2d_54">
     <path d="
M1168.37 151.265
L1188.53 151.265" style="fill:none;stroke:#ff0000;"/>
    </g>
    <g id="line2d_55"/>
    <g id="text_17">
     <!-- CPU_CLK_UNHALTED.THREAD_P -->
     <defs>
      <path d="
M9.8125 72.9062
L23.0938 72.9062
L55.4219 11.9219
L55.4219 72.9062
L64.9844 72.9062
L64.9844 0
L51.7031 0
L19.3906 60.9844
L19.3906 0
L9.8125 0
z
" id="DejaVuSans-4e"/>
     </defs>
     <g transform="translate(1204.3665 156.30525)scale(0.144 -0.144)">
      <use xlink:href="#DejaVuSans-43"/>
      <use x="69.82421875" xlink:href="#DejaVuSans-50"/>
      <use x="130.126953125" xlink:href="#DejaVuSans-55"/>
      <use x="203.3203125" xlink:href="#DejaVuSans-5f"/>
      <use x="253.3203125" xlink:href="#DejaVuSans-43"/>
      <use x="323.14453125" xlink:href="#DejaVuSans-4c"/>
      <use x="378.857421875" xlink:href="#DejaVuSans-4b"/>
      <use x="444.43359375" xlink:href="#DejaVuSans-5f"/>
      <use x="494.43359375" xlink:href="#DejaVuSans-55"/>
      <use x="567.626953125" xlink:href="#DejaVuSans-4e"/>
      <use x="642.431640625" xlink:href="#DejaVuSans-48"/>
      <use x="717.626953125" xlink:href="#DejaVuSans-41"/>
      <use x="786.03515625" xlink:href="#DejaVuSans-4c"/>
      <use x="827.998046875" xlink:href="#DejaVuSans-54"/>
      <use x="889.08203125" xlink:href="#DejaVuSans-45"/>
      <use x="952.265625" xlink:href="#DejaVuSans-44"/>
      <use x="1029.26757812" xlink:href="#DejaVuSans-2e"/>
      <use x="1061.0546875" xlink:href="#DejaVuSans-54"/>
      <use x="1122.13867188" xlink:href="#DejaVuSans-48"/>
      <use x="1197.33398438" xlink:href="#DejaVuSans-52"/>
      <use x="1266.81640625" xlink:href="#DejaVuSans-45"/>
      <use x="1330.0" xlink:href="#DejaVuSans-41"/>
      <use x="1398.40820312" xlink:href="#DejaVuSans-44"/>
      <use x="1475.41015625" xlink:href="#DejaVuSans-5f"/>
      <use x="1525.41015625" xlink:href="#DejaVuSans-50"/>
     </g>
    </g>
    <g id="line2d_56">
     <path d="
M1168.37 172.802
L1188.53 172.802" style="fill:none;stroke:#00bfbf;"/>
    </g>
    <g id="line2d_57"/>
    <g id="text_18">
     <!-- CPU_CLK_THREAD_UNHALTED.REF_XCLK -->
     <defs>
      <path d="
M9.8125 72.9062
L51.7031 72.9062
L51.7031 64.5938
L19.6719 64.5938
L19.6719 43.1094
L48.5781 43.1094
L48.5781 34.8125
L19.6719 34.8125
L19.6719 0
L9.8125 0
z
" id="DejaVuSans-46"/>
      <path d="
M6.29688 72.9062
L16.8906 72.9062
L35.0156 45.7969
L53.2188 72.9062
L63.8125 72.9062
L40.375 37.8906
L65.375 0
L54.7812 0
L34.2812 31
L13.625 0
L2.98438 0
L29 38.9219
z
" id="DejaVuSans-58"/>
     </defs>
     <g transform="translate(1204.3665 177.84225)scale(0.144 -0.144)">
      <use xlink:href="#DejaVuSans-43"/>
      <use x="69.82421875" xlink:href="#DejaVuSans-50"/>
      <use x="130.126953125" xlink:href="#DejaVuSans-55"/>
      <use x="203.3203125" xlink:href="#DejaVuSans-5f"/>
      <use x="253.3203125" xlink:href="#DejaVuSans-43"/>
      <use x="323.14453125" xlink:href="#DejaVuSans-4c"/>
      <use x="378.857421875" xlink:href="#DejaVuSans-4b"/>
      <use x="444.43359375" xlink:href="#DejaVuSans-5f"/>
      <use x="494.43359375" xlink:href="#DejaVuSans-54"/>
      <use x="555.517578125" xlink:href="#DejaVuSans-48"/>
      <use x="630.712890625" xlink:href="#DejaVuSans-52"/>
      <use x="700.1953125" xlink:href="#DejaVuSans-45"/>
      <use x="763.37890625" xlink:href="#DejaVuSans-41"/>
      <use x="831.787109375" xlink:href="#DejaVuSans-44"/>
      <use x="908.7890625" xlink:href="#DejaVuSans-5f"/>
      <use x="958.7890625" xlink:href="#DejaVuSans-55"/>
      <use x="1031.98242188" xlink:href="#DejaVuSans-4e"/>
      <use x="1106.78710938" xlink:href="#DejaVuSans-48"/>
      <use x="1181.98242188" xlink:href="#DejaVuSans-41"/>
      <use x="1250.390625" xlink:href="#DejaVuSans-4c"/>
      <use x="1292.35351562" xlink:href="#DejaVuSans-54"/>
      <use x="1353.4375" xlink:href="#DejaVuSans-45"/>
      <use x="1416.62109375" xlink:href="#DejaVuSans-44"/>
      <use x="1493.62304688" xlink:href="#DejaVuSans-2e"/>
      <use x="1525.41015625" xlink:href="#DejaVuSans-52"/>
      <use x="1594.89257812" xlink:href="#DejaVuSans-45"/>
      <use x="1658.07617188" xlink:href="#DejaVuSans-46"/>
      <use x="1715.59570312" xlink:href="#DejaVuSans-5f"/>
      <use x="1765.59570312" xlink:href="#DejaVuSans-58"/>
      <use x="1826.8515625" xlink:href="#DejaVuSans-43"/>
      <use x="1896.67578125" xlink:href="#DejaVuSans-4c"/>
      <use x="1952.38867188" xlink:href="#DejaVuSans-4b"/>
     </g>
    </g>
    <g id="line2d_58">
     <path d="
M1168.37 194.339
L1188.53 194.339" style="fill:none;stroke:#bf00bf;"/>
    </g>
    <g id="line2d_59"/>
    <g id="text_19">
     <!-- CPL_CYCLES.RING123 -->
     <defs>
      <path d="
M-0.203125 72.9062
L10.4062 72.9062
L30.6094 42.9219
L50.6875 72.9062
L61.2812 72.9062
L35.5 34.7188
L35.5 0
L25.5938 0
L25.5938 34.7188
z
" id="DejaVuSans-59"/>
      <path d="
M59.5156 10.4062
L59.5156 29.9844
L43.4062 29.9844
L43.4062 38.0938
L69.2812 38.0938
L69.2812 6.78125
Q63.5781 2.73438 56.6875 0.65625
Q49.8125 -1.42188 42 -1.42188
Q24.9062 -1.42188 15.25 8.5625
Q5.60938 18.5625 5.60938 36.375
Q5.60938 54.25 15.25 64.2344
Q24.9062 74.2188 42 74.2188
Q49.125 74.2188 55.5469 72.4531
Q61.9688 70.7031 67.3906 67.2812
L67.3906 56.7812
Q61.9219 61.4219 55.7656 63.7656
Q49.6094 66.1094 42.8281 66.1094
Q29.4375 66.1094 22.7188 58.6406
Q16.0156 51.1719 16.0156 36.375
Q16.0156 21.625 22.7188 14.1562
Q29.4375 6.6875 42.8281 6.6875
Q48.0469 6.6875 52.1406 7.59375
Q56.25 8.5 59.5156 10.4062" id="DejaVuSans-47"/>
     </defs>
     <g transform="translate(1204.3665 199.37925)scale(0.144 -0.144)">
      <use xlink:href="#DejaVuSans-43"/>
      <use x="69.82421875" xlink:href="#DejaVuSans-50"/>
      <use x="130.126953125" xlink:href="#DejaVuSans-4c"/>
      <use x="185.83984375" xlink:href="#DejaVuSans-5f"/>
      <use x="235.83984375" xlink:href="#DejaVuSans-43"/>
      <use x="303.9140625" xlink:href="#DejaVuSans-59"/>
      <use x="359.498046875" xlink:href="#DejaVuSans-43"/>
      <use x="429.322265625" xlink:href="#DejaVuSans-4c"/>
      <use x="485.03515625" xlink:href="#DejaVuSans-45"/>
      <use x="548.21875" xlink:href="#DejaVuSans-53"/>
      <use x="611.6953125" xlink:href="#DejaVuSans-2e"/>
      <use x="643.482421875" xlink:href="#DejaVuSans-52"/>
      <use x="712.96484375" xlink:href="#DejaVuSans-49"/>
      <use x="742.45703125" xlink:href="#DejaVuSans-4e"/>
      <use x="817.26171875" xlink:href="#DejaVuSans-47"/>
      <use x="894.751953125" xlink:href="#DejaVuSans-31"/>
      <use x="958.375" xlink:href="#DejaVuSans-32"/>
      <use x="1021.99804688" xlink:href="#DejaVuSans-33"/>
     </g>
    </g>
    <g id="line2d_60">
     <path d="
M1168.37 215.876
L1188.53 215.876" style="fill:none;stroke:#bfbf00;"/>
    </g>
    <g id="line2d_61"/>
    <g id="text_20">
     <!-- RESOURCE_STALLS.ANY -->
     <g transform="translate(1204.3665 220.91625)scale(0.144 -0.144)">
      <use xlink:href="#DejaVuSans-52"/>
      <use x="69.482421875" xlink:href="#DejaVuSans-45"/>
      <use x="132.666015625" xlink:href="#DejaVuSans-53"/>
      <use x="196.142578125" xlink:href="#DejaVuSans-4f"/>
      <use x="274.853515625" xlink:href="#DejaVuSans-55"/>
      <use x="348.046875" xlink:href="#DejaVuSans-52"/>
      <use x="412.529296875" xlink:href="#DejaVuSans-43"/>
      <use x="482.353515625" xlink:href="#DejaVuSans-45"/>
      <use x="545.537109375" xlink:href="#DejaVuSans-5f"/>
      <use x="595.537109375" xlink:href="#DejaVuSans-53"/>
      <use x="659.013671875" xlink:href="#DejaVuSans-54"/>
      <use x="712.34765625" xlink:href="#DejaVuSans-41"/>
      <use x="780.755859375" xlink:href="#DejaVuSans-4c"/>
      <use x="836.46875" xlink:href="#DejaVuSans-4c"/>
      <use x="892.181640625" xlink:href="#DejaVuSans-53"/>
      <use x="955.658203125" xlink:href="#DejaVuSans-2e"/>
      <use x="987.4453125" xlink:href="#DejaVuSans-41"/>
      <use x="1055.85351562" xlink:href="#DejaVuSans-4e"/>
      <use x="1130.65820312" xlink:href="#DejaVuSans-59"/>
     </g>
    </g>
    <g id="line2d_62">
     <path d="
M1168.37 237.413
L1188.53 237.413" style="fill:none;stroke:#000000;"/>
    </g>
    <g id="line2d_63"/>
    <g id="text_21">
     <!-- CYCLE_ACTIVITY.CYCLES_LDM_PENDING -->
     <defs>
      <path d="
M9.8125 72.9062
L24.5156 72.9062
L43.1094 23.2969
L61.8125 72.9062
L76.5156 72.9062
L76.5156 0
L66.8906 0
L66.8906 64.0156
L48.0938 14.0156
L38.1875 14.0156
L19.3906 64.0156
L19.3906 0
L9.8125 0
z
" id="DejaVuSans-4d"/>
      <path d="
M28.6094 0
L0.78125 72.9062
L11.0781 72.9062
L34.1875 11.5312
L57.3281 72.9062
L67.5781 72.9062
L39.7969 0
z
" id="DejaVuSans-56"/>
     </defs>
     <g transform="translate(1204.3665 242.45325)scale(0.144 -0.144)">
      <use xlink:href="#DejaVuSans-43"/>
      <use x="68.07421875" xlink:href="#DejaVuSans-59"/>
      <use x="123.658203125" xlink:href="#DejaVuSans-43"/>
      <use x="193.482421875" xlink:href="#DejaVuSans-4c"/>
      <use x="249.1953125" xlink:href="#DejaVuSans-45"/>
      <use x="312.37890625" xlink:href="#DejaVuSans-5f"/>
      <use x="362.37890625" xlink:href="#DejaVuSans-41"/>
      <use x="429.037109375" xlink:href="#DejaVuSans-43"/>
      <use x="498.861328125" xlink:href="#DejaVuSans-54"/>
      <use x="559.9453125" xlink:href="#DejaVuSans-49"/>
      <use x="589.4375" xlink:href="#DejaVuSans-56"/>
      <use x="657.845703125" xlink:href="#DejaVuSans-49"/>
      <use x="687.337890625" xlink:href="#DejaVuSans-54"/>
      <use x="748.421875" xlink:href="#DejaVuSans-59"/>
      <use x="789.255859375" xlink:href="#DejaVuSans-2e"/>
      <use x="821.04296875" xlink:href="#DejaVuSans-43"/>
      <use x="889.1171875" xlink:href="#DejaVuSans-59"/>
      <use x="944.701171875" xlink:href="#DejaVuSans-43"/>
      <use x="1014.52539062" xlink:href="#DejaVuSans-4c"/>
      <use x="1070.23828125" xlink:href="#DejaVuSans-45"/>
      <use x="1133.421875" xlink:href="#DejaVuSans-53"/>
      <use x="1196.8984375" xlink:href="#DejaVuSans-5f"/>
      <use x="1246.8984375" xlink:href="#DejaVuSans-4c"/>
      <use x="1302.61132812" xlink:href="#DejaVuSans-44"/>
      <use x="1379.61328125" xlink:href="#DejaVuSans-4d"/>
      <use x="1465.89257812" xlink:href="#DejaVuSans-5f"/>
      <use x="1515.89257812" xlink:href="#DejaVuSans-50"/>
      <use x="1576.1953125" xlink:href="#DejaVuSans-45"/>
      <use x="1639.37890625" xlink:href="#DejaVuSans-4e"/>
      <use x="1714.18359375" xlink:href="#DejaVuSans-44"/>
      <use x="1791.18554688" xlink:href="#DejaVuSans-49"/>
      <use x="1820.67773438" xlink:href="#DejaVuSans-4e"/>
      <use x="1895.48242188" xlink:href="#DejaVuSans-47"/>
     </g>
    </g>
   </g>
  </g>
 </g>
 <defs>
  <clipPath id="pec089a9809">
   <rect height="717.84" width="1298.0475" x="209.3625" y="89.73"/>
  </clipPath>
 </defs>
</svg>
