<?xml version="1.0" encoding="UTF-8" standalone="no"?>
<!-- Created with Inkscape (http://www.inkscape.org/) -->

<svg
   xmlns:osb="http://www.openswatchbook.org/uri/2009/osb"
   xmlns:dc="http://purl.org/dc/elements/1.1/"
   xmlns:cc="http://creativecommons.org/ns#"
   xmlns:rdf="http://www.w3.org/1999/02/22-rdf-syntax-ns#"
   xmlns:svg="http://www.w3.org/2000/svg"
   xmlns="http://www.w3.org/2000/svg"
   xmlns:xlink="http://www.w3.org/1999/xlink"
   xmlns:sodipodi="http://sodipodi.sourceforge.net/DTD/sodipodi-0.dtd"
   xmlns:inkscape="http://www.inkscape.org/namespaces/inkscape"
   width="744.09448819"
   height="1052.3622047"
   id="svg2"
   version="1.1"
   inkscape:version="0.48.3.1 r9886"
   sodipodi:docname="unix-vm.svg">
  <defs
     id="defs4">
    <linearGradient
       id="linearGradient4105">
      <stop
         style="stop-color:#7b7b7b;stop-opacity:1;"
         offset="0"
         id="stop4107" />
      <stop
         style="stop-color:#7b7b7b;stop-opacity:0;"
         offset="1"
         id="stop4109" />
    </linearGradient>
    <pattern
       inkscape:collect="always"
       xlink:href="#pattern5450"
       id="pattern5455"
       patternTransform="matrix(6.2745099,0,0,7.027027,-22.047084,-251.96995)" />
    <pattern
       inkscape:collect="always"
       xlink:href="#Strips1_1"
       id="pattern5450"
       patternTransform="matrix(6.2745099,0,0,7.027027,185.46442,-58.852767)" />
    <pattern
       inkscape:collect="always"
       xlink:href="#pattern5407"
       id="pattern5430"
       patternTransform="matrix(5.5116255,1.6054314e-8,-1.6054314e-8,5.5116255,-52.289403,-193.27302)" />
    <pattern
       inkscape:collect="always"
       xlink:href="#Strips1_1"
       id="pattern5407"
       patternTransform="matrix(5.5116255,1.6054314e-8,-1.6054314e-8,5.5116255,236.16659,29.234473)" />
    <pattern
       inkscape:stockid="Stripes 1:1"
       id="Strips1_1"
       patternTransform="translate(0,0) scale(10,10)"
       height="1"
       width="2"
       patternUnits="userSpaceOnUse"
       inkscape:collect="always">
      <rect
         id="rect4664"
         height="2"
         width="1"
         y="-0.5"
         x="0"
         style="fill:black;stroke:none" />
    </pattern>
    <linearGradient
       id="linearGradient5379"
       osb:paint="solid">
      <stop
         style="stop-color:#000000;stop-opacity:1;"
         offset="0"
         id="stop5381" />
    </linearGradient>
    <pattern
       patternUnits="userSpaceOnUse"
       width="61.905446"
       height="53.991109"
       patternTransform="translate(149.32925,332.29087)"
       id="pattern5427">
      <rect
         transform="matrix(0.88167013,0.47186627,-0.47186627,0.88167013,0,0)"
         ry="0"
         y="-7.3316245"
         x="13.850068"
         height="33.069752"
         width="52.360443"
         id="rect3165"
         style="opacity:0.46502057;fill:url(#pattern5430);fill-opacity:1;stroke:#000000;stroke-width:0.07771392;stroke-miterlimit:4;stroke-opacity:1;stroke-dasharray:none" />
    </pattern>
    <pattern
       patternUnits="userSpaceOnUse"
       width="203.69213"
       height="192.71137"
       patternTransform="translate(83.151639,271.00014)"
       id="pattern5452">
      <rect
         transform="matrix(0.8660254,0.5,-0.5,0.8660254,0,0)"
         y="-32.472198"
         x="56.384277"
         height="130"
         width="160"
         id="rect5444"
         style="opacity:0.46502057;fill:url(#pattern5455);fill-opacity:1;stroke:#000000;stroke-width:0.09362565;stroke-miterlimit:4;stroke-opacity:1;stroke-dasharray:none" />
    </pattern>
  </defs>
  <sodipodi:namedview
     id="base"
     pagecolor="#ffffff"
     bordercolor="#666666"
     borderopacity="1.0"
     inkscape:pageopacity="0.0"
     inkscape:pageshadow="2"
     inkscape:zoom="2.8"
     inkscape:cx="215.65772"
     inkscape:cy="639.501"
     inkscape:document-units="px"
     inkscape:current-layer="layer1"
     showgrid="true"
     inkscape:window-width="1717"
     inkscape:window-height="994"
     inkscape:window-x="73"
     inkscape:window-y="83"
     inkscape:window-maximized="0">
    <inkscape:grid
       type="xygrid"
       id="grid3959" />
  </sodipodi:namedview>
  <metadata
     id="metadata7">
    <rdf:RDF>
      <cc:Work
         rdf:about="">
        <dc:format>image/svg+xml</dc:format>
        <dc:type
           rdf:resource="http://purl.org/dc/dcmitype/StillImage" />
        <dc:title></dc:title>
      </cc:Work>
    </rdf:RDF>
  </metadata>
  <g
     inkscape:label="Layer 1"
     inkscape:groupmode="layer"
     id="layer1">
    <text
       xml:space="preserve"
       style="font-size:12px;font-style:normal;font-variant:normal;font-weight:normal;font-stretch:normal;line-height:125%;letter-spacing:0px;word-spacing:0px;fill:#000000;fill-opacity:1;stroke:none;font-family:cmr10;-inkscape-font-specification:cmr10"
       x="354"
       y="317.36218"
       id="text3757-6"
       sodipodi:linespacing="125%"><tspan
         sodipodi:role="line"
         id="tspan3759-6"
         x="354"
         y="317.36218">0x7fff'ffffffff</tspan></text>
    <text
       xml:space="preserve"
       style="font-size:12px;font-style:normal;font-variant:normal;font-weight:normal;font-stretch:normal;line-height:125%;letter-spacing:0px;word-spacing:0px;fill:#000000;fill-opacity:1;stroke:none;font-family:cmr10;-inkscape-font-specification:cmr10"
       x="354"
       y="527.36218"
       id="text3757-6-9"
       sodipodi:linespacing="125%"><tspan
         sodipodi:role="line"
         id="tspan3759-6-7"
         x="354"
         y="527.36218">0x0</tspan></text>
    <text
       xml:space="preserve"
       style="font-size:12px;font-style:normal;font-variant:normal;font-weight:normal;font-stretch:normal;line-height:125%;letter-spacing:0px;word-spacing:0px;fill:#000000;fill-opacity:1;stroke:none;font-family:cmr10;-inkscape-font-specification:cmr10"
       x="145"
       y="477.36218"
       id="text3757-6-9-0"
       sodipodi:linespacing="125%"><tspan
         sodipodi:role="line"
         id="tspan3759-6-7-4"
         x="145"
         y="477.36218">0x0</tspan></text>
    <text
       xml:space="preserve"
       style="font-size:12px;font-style:normal;font-variant:normal;font-weight:normal;font-stretch:normal;line-height:125%;letter-spacing:0px;word-spacing:0px;fill:#000000;fill-opacity:1;stroke:none;font-family:cmr10;-inkscape-font-specification:cmr10"
       x="145"
       y="437.36218"
       id="text3757-6-9-0-6"
       sodipodi:linespacing="125%"><tspan
         sodipodi:role="line"
         id="tspan3759-6-7-4-0"
         x="145"
         y="437.36218">0x7fff'ffffffff</tspan></text>
    <text
       xml:space="preserve"
       style="font-size:12px;font-style:normal;font-variant:normal;font-weight:normal;font-stretch:normal;line-height:125%;letter-spacing:0px;word-spacing:0px;fill:#000000;fill-opacity:1;stroke:none;font-family:cmr10;-inkscape-font-specification:cmr10"
       x="145"
       y="317.36218"
       id="text3757-6-9-0-6-8"
       sodipodi:linespacing="125%"><tspan
         sodipodi:role="line"
         id="tspan3759-6-7-4-0-3"
         x="145"
         y="317.36218">0xffffffff'ffffffff</tspan></text>
    <text
       xml:space="preserve"
       style="font-size:40px;font-style:normal;font-weight:normal;line-height:125%;letter-spacing:0px;word-spacing:0px;fill:#000000;fill-opacity:1;stroke:none;font-family:Sans"
       x="24.642857"
       y="309.14789"
       id="text5579"
       sodipodi:linespacing="125%"><tspan
         sodipodi:role="line"
         id="tspan5581"
         x="24.642857"
         y="309.14789"
         style="font-style:normal;font-variant:normal;font-weight:normal;font-stretch:normal;font-family:cmr10;-inkscape-font-specification:cmr10" /></text>
    <text
       xml:space="preserve"
       style="font-size:40px;font-style:normal;font-variant:normal;font-weight:normal;font-stretch:normal;line-height:125%;letter-spacing:0px;word-spacing:0px;fill:#000000;fill-opacity:1;stroke:none;font-family:cmr10;-inkscape-font-specification:cmr10"
       x="49.285713"
       y="304.50504"
       id="text5583"
       sodipodi:linespacing="125%"><tspan
         sodipodi:role="line"
         id="tspan5585"
         x="49.285713"
         y="304.50504" /></text>
    <text
       xml:space="preserve"
       style="font-size:40px;font-style:normal;font-variant:normal;font-weight:normal;font-stretch:normal;line-height:125%;letter-spacing:0px;word-spacing:0px;fill:#000000;fill-opacity:1;stroke:none;font-family:cmr10;-inkscape-font-specification:cmr10"
       x="27"
       y="395.36218"
       id="text5587"
       sodipodi:linespacing="125%"><tspan
         sodipodi:role="line"
         id="tspan5589"
         x="27"
         y="395.36218"
         style="font-size:12px">Unused</tspan></text>
    <text
       xml:space="preserve"
       style="font-size:40px;font-style:normal;font-variant:normal;font-weight:normal;font-stretch:normal;line-height:100%;letter-spacing:0px;word-spacing:0px;fill:#000000;fill-opacity:1;stroke:none;font-family:cmr10;-inkscape-font-specification:cmr10"
       x="28"
       y="444.36218"
       id="text5587-3"
       sodipodi:linespacing="100%"><tspan
         sodipodi:role="line"
         id="tspan5589-1"
         x="28"
         y="444.36218"
         style="font-size:12px;line-height:100%">Available</tspan><tspan
         sodipodi:role="line"
         x="28"
         y="456.36218"
         style="font-size:12px;line-height:100%"
         id="tspan5633">to user </tspan><tspan
         sodipodi:role="line"
         x="28"
         y="468.36218"
         style="font-size:12px;line-height:100%"
         id="tspan5635">programs</tspan></text>
    <text
       xml:space="preserve"
       style="font-size:40px;font-style:normal;font-variant:normal;font-weight:normal;font-stretch:normal;line-height:100%;letter-spacing:0px;word-spacing:0px;fill:#000000;fill-opacity:1;stroke:none;font-family:cmr10;-inkscape-font-specification:cmr10"
       x="27"
       y="329.36218"
       id="text5587-3-0"
       sodipodi:linespacing="100%"><tspan
         sodipodi:role="line"
         x="27"
         y="329.36218"
         style="font-size:12px;line-height:100%"
         id="tspan5635-6">Reserved</tspan><tspan
         sodipodi:role="line"
         x="27"
         y="341.36218"
         style="font-size:12px;line-height:100%"
         id="tspan5692">for OS</tspan></text>
    <text
       xml:space="preserve"
       style="font-size:12px;font-style:normal;font-variant:normal;font-weight:normal;font-stretch:normal;line-height:125%;letter-spacing:0px;word-spacing:0px;fill:#000000;fill-opacity:1;stroke:none;font-family:cmr10;-inkscape-font-specification:cmr10"
       x="145"
       y="367.36218"
       id="text3757-6-9-0-6-0"
       sodipodi:linespacing="125%"><tspan
         sodipodi:role="line"
         id="tspan3759-6-7-4-0-39"
         x="145"
         y="367.36218">0xffff7fff'ffffffff</tspan></text>
    <text
       xml:space="preserve"
       style="font-size:12px;font-style:normal;font-variant:normal;font-weight:normal;font-stretch:normal;line-height:125%;letter-spacing:0px;word-spacing:0px;fill:#000000;fill-opacity:1;stroke:none;font-family:cmr10;-inkscape-font-specification:cmr10"
       x="285"
       y="507.36218"
       id="text3828"
       sodipodi:linespacing="125%"><tspan
         sodipodi:role="line"
         id="tspan3830"
         x="285"
         y="507.36218">.text</tspan></text>
    <text
       xml:space="preserve"
       style="font-size:12px;font-style:normal;font-variant:normal;font-weight:normal;font-stretch:normal;line-height:125%;letter-spacing:0px;word-spacing:0px;fill:#000000;fill-opacity:1;stroke:none;font-family:cmr10;-inkscape-font-specification:cmr10"
       x="285"
       y="482.36218"
       id="text3828-3"
       sodipodi:linespacing="125%"><tspan
         sodipodi:role="line"
         id="tspan3830-8"
         x="285"
         y="482.36218">.data</tspan></text>
    <text
       xml:space="preserve"
       style="font-size:12px;font-style:normal;font-variant:normal;font-weight:normal;font-stretch:normal;line-height:125%;letter-spacing:0px;word-spacing:0px;fill:#000000;fill-opacity:1;stroke:none;font-family:cmr10;-inkscape-font-specification:cmr10;stroke-width:0.26;stroke-miterlimit:4;stroke-dasharray:none"
       x="285"
       y="457.36218"
       id="text3828-8"
       sodipodi:linespacing="125%"><tspan
         sodipodi:role="line"
         id="tspan3830-9"
         x="285"
         y="457.36218">.bss</tspan></text>
    <text
       xml:space="preserve"
       style="font-size:12px;font-style:normal;font-variant:normal;font-weight:normal;font-stretch:normal;line-height:125%;letter-spacing:0px;word-spacing:0px;fill:#000000;fill-opacity:1;stroke:none;font-family:cmr10;-inkscape-font-specification:cmr10;stroke-width:0.26;stroke-miterlimit:4;stroke-dasharray:none"
       x="285"
       y="427.36218"
       id="text3828-4"
       sodipodi:linespacing="125%"><tspan
         sodipodi:role="line"
         id="tspan3830-3"
         x="285"
         y="427.36218">.heap</tspan></text>
    <text
       xml:space="preserve"
       style="font-size:12px;font-style:normal;font-variant:normal;font-weight:normal;font-stretch:normal;line-height:125%;letter-spacing:0px;word-spacing:0px;fill:#000000;fill-opacity:1;stroke:none;font-family:cmr10;-inkscape-font-specification:cmr10;stroke-width:0.26;stroke-miterlimit:4;stroke-dasharray:none"
       x="285"
       y="327.36218"
       id="text3828-7"
       sodipodi:linespacing="125%"><tspan
         sodipodi:role="line"
         id="tspan3830-91"
         x="285"
         y="327.36218">.stack</tspan></text>
    <path
       style="fill:#000000;fill-opacity:1;stroke:#000000;stroke-width:0.25405094;stroke-miterlimit:4;stroke-opacity:1;stroke-dasharray:none"
       d="m 92.651141,308.41731 c -1.269849,0.2057 -2.446542,0.66557 -3.372713,1.32311 -0.961339,0.71837 -1.260316,1.63803 -1.530207,2.57894 -0.281861,1.02274 -0.358477,2.05515 -0.40598,3.09473 0.0156,1.02819 -0.104439,2.0482 -0.218608,3.07229 -0.125594,1.08189 -0.135239,2.16671 -0.156146,3.25171 0.002,1.13673 -0.179818,2.25994 -0.374734,3.38622 -0.169531,1.11445 -0.262258,2.23066 -0.65581,3.31905 -0.303646,0.68462 -0.591059,1.39289 -1.155467,1.99582 -0.285208,0.30474 -0.563309,0.51613 -0.905636,0.78488 -0.523116,0.40769 -1.108089,0.74862 -1.748815,1.05402 l 0.624578,-0.2018 c 0.636117,-0.31045 1.260525,-0.64375 1.780044,-1.05401 0.350161,-0.27931 0.615602,-0.46791 0.905633,-0.78494 0.557363,-0.60921 0.821423,-1.30812 1.12424,-1.99579 0.384681,-1.09095 0.48584,-2.20358 0.655802,-3.31903 0.196385,-1.12791 0.377457,-2.27034 0.374757,-3.40866 0.0213,-1.08419 0.031,-2.17069 0.156142,-3.25175 0.114239,-1.02472 0.202753,-2.04342 0.187365,-3.07228 0.0492,-1.03717 0.152042,-2.07482 0.437203,-3.09475 0.271577,-0.93543 0.563369,-1.84972 1.530214,-2.55648 0.143983,-0.099 0.320604,-0.17533 0.437205,-0.29153 0.0279,-0.0288 -0.16323,0.0197 -0.124915,0 0.537823,-0.2877 1.211688,-0.40914 1.8425,-0.53823 l 0.593348,-0.29152 z m -10.461658,23.92803 c 0.640727,0.30546 1.256928,0.64634 1.780045,1.05401 0.342326,0.26876 0.620428,0.48019 0.905634,0.78495 0.564406,0.60299 0.851823,1.31128 1.155467,1.99582 0.393553,1.0885 0.455051,2.20462 0.624571,3.31898 0.194917,1.12629 0.377017,2.24965 0.374757,3.38635 0.0209,1.08487 0.0618,2.16986 0.187365,3.25155 0.114149,1.02416 0.202965,2.04421 0.187365,3.07246 0.0475,1.03952 0.124119,2.07193 0.40598,3.09457 0.2699,0.94108 0.568882,1.86075 1.530216,2.57907 0.926174,0.65756 2.102867,1.11744 3.372716,1.32316 l -0.56212,-0.31409 c -0.630812,-0.1291 -1.335903,-0.22802 -1.87373,-0.51574 -0.0384,-0.0199 0.184067,0.0289 0.156144,0 -0.116591,-0.11631 -0.29322,-0.19247 -0.437202,-0.29145 -0.966846,-0.70693 -1.289866,-1.62121 -1.561442,-2.55664 -0.285153,-1.01996 -0.356789,-2.05744 -0.405968,-3.09478 0.0154,-1.02865 -0.0732,-2.04748 -0.187385,-3.07226 -0.125164,-1.08091 -0.166113,-2.16745 -0.187371,-3.25161 0.003,-1.1384 -0.178355,-2.28076 -0.374736,-3.40877 -0.169956,-1.11541 -0.239901,-2.2281 -0.624589,-3.3189 -0.302817,-0.68781 -0.598099,-1.38671 -1.155459,-1.99592 -0.290035,-0.31698 -0.555475,-0.50552 -0.905638,-0.78494 -0.519518,-0.41014 -1.112695,-0.74355 -1.748814,-1.05401 l -0.655806,-0.20181 z"
       id="path3989-0"
       inkscape:connector-curvature="0" />
    <path
       style="fill:#000000;fill-opacity:1;stroke:#000000;stroke-width:0.30220821;stroke-miterlimit:4;stroke-opacity:1;stroke-dasharray:none"
       d="m 92.680159,358.92554 c -1.270446,0.29093 -2.447689,0.94138 -3.374299,1.87138 -0.96179,1.01605 -1.260901,2.3168 -1.53093,3.6476 -0.28199,1.44657 -0.35864,2.90676 -0.40616,4.37715 0.0156,1.45424 -0.1045,2.89693 -0.21871,4.3454 -0.12566,1.53017 -0.13531,3.06459 -0.15622,4.59915 0.002,1.60768 -0.17991,3.19644 -0.37492,4.78947 -0.1696,1.57617 -0.26237,3.15489 -0.65611,4.69432 -0.30379,0.96829 -0.591339,1.9701 -1.15601,2.82294 -0.28534,0.43095 -0.56357,0.73001 -0.90606,1.11015 -0.52336,0.57662 -1.108609,1.05879 -1.749636,1.49075 l 0.624869,-0.28545 c 0.636418,-0.43905 1.261117,-0.91059 1.780878,-1.49075 0.350329,-0.39516 0.615891,-0.66178 0.90606,-1.11016 0.557629,-0.86169 0.821809,-1.85016 1.124769,-2.82295 0.38486,-1.54295 0.48608,-3.11669 0.65611,-4.69432 0.19648,-1.59531 0.37762,-3.21111 0.37492,-4.82119 0.0213,-1.5334 0.031,-3.07017 0.15622,-4.59916 0.1143,-1.44937 0.20285,-2.89023 0.18746,-4.3454 0.0492,-1.46698 0.15212,-2.93458 0.43741,-4.37712 0.271704,-1.32314 0.56363,-2.61624 1.53093,-3.61589 0.14405,-0.14024 0.320756,-0.24798 0.43741,-0.41234 0.0279,-0.0398 -0.163305,0.0286 -0.124971,0 0.538076,-0.40692 1.212255,-0.57868 1.843363,-0.76125 l 0.593627,-0.41233 z m -10.466568,33.84347 c 0.641027,0.43196 1.257519,0.91413 1.780879,1.49075 0.34249,0.38015 0.62072,0.67919 0.90606,1.11015 0.564671,0.85284 0.852221,1.85466 1.15601,2.82296 0.39374,1.53942 0.455264,3.11814 0.62487,4.69432 0.19501,1.59301 0.37718,3.18171 0.37492,4.78947 0.0209,1.53453 0.0618,3.06898 0.18746,4.59916 0.11421,1.44839 0.20306,2.89107 0.18746,4.34537 0.0475,1.47038 0.12418,2.9306 0.40617,4.37712 0.27002,1.33085 0.56914,2.63161 1.53093,3.64766 0.926608,0.92998 2.10385,1.58042 3.374296,1.87136 l -0.562383,-0.4441 c -0.631108,-0.18257 -1.336533,-0.32255 -1.87461,-0.72946 -0.0384,-0.0292 0.184154,0.0398 0.156217,0 -0.116643,-0.16445 -0.29336,-0.2721 -0.43741,-0.41235 -0.967298,-0.99971 -1.29047,-2.29282 -1.56217,-3.61591 -0.28529,-1.44255 -0.35696,-2.91019 -0.40617,-4.37712 0.0154,-1.45518 -0.0732,-2.89609 -0.18746,-4.34544 -0.12523,-1.52893 -0.1662,-3.06572 -0.18746,-4.59915 0.003,-1.61005 -0.17845,-3.22589 -0.37492,-4.82116 -0.170039,-1.57764 -0.24001,-3.15137 -0.62487,-4.69432 -0.30297,-0.97279 -0.598388,-1.96126 -1.15601,-2.82295 -0.29017,-0.44837 -0.555732,-0.71504 -0.90606,-1.11016 -0.51976,-0.5802 -1.113219,-1.05169 -1.749636,-1.49075 l -0.656113,-0.28545 z"
       id="path3989-8"
       inkscape:connector-curvature="0" />
    <path
       style="fill:#000000;fill-opacity:1;stroke:#000000;stroke-width:0.25109014;stroke-miterlimit:4;stroke-opacity:1;stroke-dasharray:none"
       d="m 92.657817,428.9149 c -1.27,0.20089 -2.446835,0.65005 -3.373119,1.2923 -0.961457,0.70162 -1.260463,1.59986 -1.530389,2.51888 -0.281896,0.99888 -0.358522,2.00727 -0.40603,3.02265 0.0156,1.00421 -0.104454,2.00049 -0.218627,3.00074 -0.125615,1.05669 -0.135265,2.11624 -0.156166,3.17597 0.002,1.11022 -0.179849,2.2073 -0.374789,3.30736 -0.169549,1.08849 -0.262283,2.17869 -0.655885,3.24174 -0.30368,0.66868 -0.591131,1.36045 -1.155606,1.94936 -0.285239,0.2976 -0.563376,0.50408 -0.905744,0.7666 -0.523178,0.3982 -1.108221,0.73118 -1.749025,1.02947 l 0.624651,-0.19714 c 0.636196,-0.30318 1.260678,-0.62875 1.780259,-1.02946 0.350205,-0.27279 0.615675,-0.45696 0.905745,-0.7666 0.557427,-0.59507 0.82152,-1.27764 1.124377,-1.94934 0.38472,-1.06557 0.485901,-2.15228 0.655876,-3.24174 0.19641,-1.10161 0.377502,-2.21744 0.374802,-3.32927 0.0213,-1.0589 0.031,-2.12013 0.156162,-3.17601 0.114254,-1.00086 0.202772,-1.99585 0.18739,-3.00072 0.0492,-1.01303 0.152062,-2.02649 0.437258,-3.02264 0.271606,-0.91368 0.563433,-1.80665 1.530394,-2.49699 0.143999,-0.0967 0.32064,-0.17122 0.437256,-0.28473 0.0279,-0.0279 -0.163249,0.0192 -0.12493,0 0.537888,-0.281 1.211833,-0.39964 1.842722,-0.52572 l 0.593418,-0.28471 z m -10.462914,23.37077 c 0.640802,0.29831 1.257079,0.63125 1.780257,1.02946 0.342368,0.26252 0.620503,0.46902 0.905744,0.76664 0.564477,0.58894 0.851926,1.28072 1.155605,1.94936 0.393598,1.06309 0.45511,2.15327 0.62465,3.24171 0.194942,1.10005 0.377056,2.19718 0.374796,3.30742 0.0209,1.05965 0.0618,2.11929 0.18739,3.17589 0.114164,1.00028 0.20299,1.99657 0.18739,3.00078 0.0475,1.01534 0.124134,2.02378 0.40603,3.02261 0.269926,0.91908 0.568948,1.81732 1.5304,2.51891 0.926282,0.64231 2.103116,1.09148 3.373118,1.29236 l -0.562188,-0.3067 c -0.630887,-0.12608 -1.336064,-0.22279 -1.873954,-0.50381 -0.0384,-0.0193 0.184088,0.0277 0.156161,0 -0.116604,-0.11351 -0.293254,-0.18791 -0.437255,-0.28467 -0.96696,-0.69037 -1.29002,-1.58337 -1.561631,-2.49701 -0.285188,-0.9962 -0.356834,-2.00957 -0.406018,-3.02269 0.0154,-1.0048 -0.0732,-1.99982 -0.187405,-3.00072 -0.125185,-1.0558 -0.166138,-2.11703 -0.18739,-3.17594 0.003,-1.11183 -0.17838,-2.22765 -0.37478,-3.32933 -0.169982,-1.08944 -0.239928,-2.1762 -0.624664,-3.24167 -0.30286,-0.67175 -0.598174,-1.35436 -1.155604,-1.9494 -0.290066,-0.30961 -0.55554,-0.49375 -0.905744,-0.76662 -0.51958,-0.40064 -1.112829,-0.72628 -1.749023,-1.02943 l -0.655885,-0.19715 z"
       id="path3989-1"
       inkscape:connector-curvature="0" />
    <path
       style="fill:none;stroke:#646464;stroke-width:1px;stroke-linecap:butt;stroke-linejoin:miter;stroke-opacity:1"
       d="m 95,307.36218 0,170 45,0 0,-170 z"
       id="path5142"
       inkscape:connector-curvature="0" />
    <path
       style="fill:none;stroke:#646464;stroke-width:1px;stroke-linecap:butt;stroke-linejoin:miter;stroke-opacity:1"
       d="m 95,357.36218 45,0"
       id="path5144"
       inkscape:connector-curvature="0" />
    <path
       style="fill:none;stroke:#646464;stroke-width:1px;stroke-linecap:butt;stroke-linejoin:miter;stroke-opacity:1"
       d="m 95,427.36218 45,0"
       id="path5146"
       inkscape:connector-curvature="0" />
    <path
       style="fill:none;stroke:#646464;stroke-width:1px;stroke-linecap:butt;stroke-linejoin:miter;stroke-opacity:1"
       d="m 280,307.36218 0,220 70,0 0,-220 z"
       id="path5154"
       inkscape:connector-curvature="0" />
    <path
       style="fill:none;stroke:#646464;stroke-width:1px;stroke-linecap:butt;stroke-linejoin:miter;stroke-opacity:1"
       d="m 280,312.36218 70,0"
       id="path5156"
       inkscape:connector-curvature="0" />
    <path
       style="fill:none;stroke:#646464;stroke-width:1px;stroke-linecap:butt;stroke-linejoin:miter;stroke-opacity:1"
       d="m 280,342.36218 70,0"
       id="path5158"
       inkscape:connector-curvature="0" />
    <path
       style="fill:none;stroke:#646464;stroke-width:1px;stroke-linecap:butt;stroke-linejoin:miter;stroke-opacity:1"
       d="m 280,522.36218 70,0"
       id="path5160"
       inkscape:connector-curvature="0" />
    <path
       style="fill:none;stroke:#646464;stroke-width:1px;stroke-linecap:butt;stroke-linejoin:miter;stroke-opacity:1"
       d="m 280,492.36218 70,0"
       id="path5162"
       inkscape:connector-curvature="0"
       sodipodi:nodetypes="cc" />
    <path
       style="fill:none;stroke:#646464;stroke-width:1px;stroke-linecap:butt;stroke-linejoin:miter;stroke-opacity:1"
       d="m 280,467.36218 70,0"
       id="path5164"
       inkscape:connector-curvature="0" />
    <path
       style="fill:none;stroke:#646464;stroke-width:1px;stroke-linecap:butt;stroke-linejoin:miter;stroke-opacity:1"
       d="m 280,442.36218 70,0"
       id="path5166"
       inkscape:connector-curvature="0" />
    <path
       style="fill:none;stroke:#646464;stroke-width:1px;stroke-linecap:butt;stroke-linejoin:miter;stroke-opacity:1"
       d="m 280,412.36218 70,0"
       id="path5168"
       inkscape:connector-curvature="0" />
    <path
       style="fill:#e4e5d2;fill-opacity:1;stroke:#646464;stroke-width:0.02321428;stroke-linecap:butt;stroke-linejoin:miter;stroke-miterlimit:4;stroke-opacity:1;stroke-dasharray:none;stroke-dashoffset:0"
       d="m 280.53733,524.89418 0,-1.96429 34.46428,0 34.46429,0 0,1.96429 0,1.96428 -34.46429,0 -34.46428,0 0,-1.96428 z"
       id="path5220"
       inkscape:connector-curvature="0" />
    <path
       style="fill:#e4e5d2;fill-opacity:1;stroke:#646464;stroke-width:0.02321428;stroke-linecap:butt;stroke-linejoin:miter;stroke-miterlimit:4;stroke-opacity:1;stroke-dasharray:none;stroke-dashoffset:0"
       d="m 280.53733,377.39418 0,-34.46429 34.46428,0 34.46429,0 0,34.46429 0,34.46428 -34.46429,0 -34.46428,0 0,-34.46428 z"
       id="path5222"
       inkscape:connector-curvature="0" />
    <path
       style="fill:#e4e5d2;fill-opacity:1;stroke:#646464;stroke-width:0.02321428;stroke-linecap:butt;stroke-linejoin:miter;stroke-miterlimit:4;stroke-opacity:1;stroke-dasharray:none;stroke-dashoffset:0"
       d="m 280.53733,309.89418 0,-1.96429 34.46428,0 34.46429,0 0,1.96429 0,1.96428 -34.46429,0 -34.46428,0 0,-1.96428 z"
       id="path5224"
       inkscape:connector-curvature="0" />
    <path
       style="fill:#e4e5d2;fill-opacity:1;stroke:#646464;stroke-width:0.01641498;stroke-linecap:butt;stroke-linejoin:miter;stroke-miterlimit:4;stroke-opacity:1;stroke-dasharray:none;stroke-dashoffset:0"
       d="m 95.526408,452.36574 0,-24.4962 21.970822,0 21.97081,0 0,24.4962 0,24.4962 -21.97081,0 -21.970822,0 0,-24.4962 z"
       id="path5226"
       inkscape:connector-curvature="0" />
  </g>
</svg>
